<?xml version="1.0" encoding="UTF-8"?>
<svg width="40px" height="40px" viewBox="0 0 40 40" version="1.1" xmlns="http://www.w3.org/2000/svg" xmlns:xlink="http://www.w3.org/1999/xlink">
    <title>编组 5</title>
    <g id="、app" stroke="none" stroke-width="1" fill="none" fill-rule="evenodd">
        <g id="登录页-手机" transform="translate(-123, -669)">
            <g id="编组-5" transform="translate(123, 669)">
                <circle id="椭圆形" stroke="#DBDBDB" stroke-width="0.685714286" fill="#FFFFFF" cx="20" cy="20" r="19.6571429"></circle>
                <g id="微信" transform="translate(10, 10)" fill-rule="nonzero">
                    <rect id="矩形" fill="#000000" opacity="0" x="0" y="0" width="20" height="20"></rect>
                    <path d="M19.7421875,12.265625 C19.7421875,9.5078125 16.9824219,7.26171875 13.8847656,7.26171875 C10.6035156,7.26171875 8.01953125,9.50976562 8.01953125,12.265625 C8.01953125,15.0273437 10.6035156,17.2695312 13.8847656,17.2695312 C14.5722656,17.2695312 15.265625,17.0957031 15.9550781,16.9238281 L17.8457031,17.9589844 L17.3261719,16.2363281 C18.7109375,15.1972656 19.7421875,13.8203125 19.7421875,12.265625 Z M12.0703125,11.5 C11.6386719,11.5 11.2890625,11.1503906 11.2890625,10.71875 C11.2890625,10.2871094 11.6386719,9.9375 12.0703125,9.9375 C12.5019531,9.9375 12.8515625,10.2871094 12.8515625,10.71875 C12.8515625,11.1484375 12.5019531,11.5 12.0703125,11.5 Z M15.8652344,11.4941406 C15.4335938,11.4941406 15.0839844,11.1445312 15.0839844,10.7128906 C15.0839844,10.28125 15.4335938,9.93164062 15.8652344,9.93164062 C16.296875,9.93164062 16.6464844,10.28125 16.6464844,10.7128906 C16.6464844,11.1445312 16.296875,11.4941406 15.8652344,11.4941406 Z" id="形状" fill="#00C800"></path>
                    <path d="M7.15429688,2.08789062 C3.36328125,2.08789062 0.2578125,4.671875 0.2578125,7.953125 C0.2578125,9.84765625 1.29101563,11.4023438 3.01757812,12.609375 L2.328125,14.6835938 L4.73828125,13.4746094 C5.6015625,13.6445313 6.29296875,13.8203125 7.15429688,13.8203125 C7.37109375,13.8203125 7.5859375,13.8105469 7.79882812,13.7929688 C7.6640625,13.3320313 7.5859375,12.8496094 7.5859375,12.3476563 C7.5859375,9.33398438 10.1738281,6.88867187 13.4492187,6.88867187 C13.6738281,6.88867187 13.8945312,6.90429688 14.1132812,6.9296875 C13.515625,4.15234375 10.5449219,2.08789062 7.15429688,2.08789062 Z M4.83789062,6.8203125 C4.3203125,6.8203125 3.90039062,6.40039062 3.90039062,5.8828125 C3.90039062,5.36523438 4.3203125,4.9453125 4.83789062,4.9453125 C5.35546875,4.9453125 5.77539062,5.36523438 5.77539062,5.8828125 C5.77539062,6.40039062 5.35546875,6.8203125 4.83789062,6.8203125 Z M9.65429688,6.8203125 C9.13671875,6.8203125 8.71679688,6.40039062 8.71679688,5.8828125 C8.71679688,5.36523438 9.13671875,4.9453125 9.65429688,4.9453125 C10.171875,4.9453125 10.5917969,5.36523438 10.5917969,5.8828125 C10.5917969,6.40039062 10.171875,6.8203125 9.65429688,6.8203125 Z" id="形状" fill="#00C800"></path>
                </g>
            </g>
        </g>
    </g>
</svg>