<?xml version="1.0" encoding="UTF-8"?>
<svg width="40px" height="40px" viewBox="0 0 40 40" version="1.1" xmlns="http://www.w3.org/2000/svg" xmlns:xlink="http://www.w3.org/1999/xlink">
    <title>编组 10</title>
    <g id="页面-2" stroke="none" stroke-width="1" fill="none" fill-rule="evenodd">
        <g id="升级" transform="translate(-974, -382)">
            <g id="编组-10" transform="translate(974, 382)">
                <circle id="椭圆形备份-6" fill="#F2F2F2" cx="20" cy="20" r="20"></circle>
                <g id="同步" transform="translate(10, 10)" fill-rule="nonzero">
                    <rect id="矩形" fill="#000000" opacity="0" x="0" y="0" width="20" height="20"></rect>
                    <path d="M10.3125,9.84375 C10.485089,9.84375 10.625,9.98366102 10.625,10.15625 L10.625,14.21875 L11.91625,14.21875 C12.16625,14.21875 12.315,14.4975 12.17625,14.705 L10.26,17.57875 C10.2020396,17.6656735 10.1044753,17.7178826 10,17.7178826 C9.89552467,17.7178826 9.79796037,17.6656735 9.74,17.57875 L7.82375,14.70375 C7.76028989,14.6078884 7.7545884,14.4849241 7.80890566,14.3836015 C7.86322293,14.2822789 7.96878658,14.2189619 8.08375,14.21875 L9.375,14.21875 L9.375,10.15625 C9.375,9.98366102 9.51491102,9.84375 9.6875,9.84375 L10.3125,9.84375 Z M10,2.34375 C12.5216765,2.34669259 14.647764,4.22429032 14.9625,6.72625 C17.4477267,6.87541636 19.3841138,8.93906744 19.375032,11.42875 C19.3625,14.02 17.20875,16.09375 14.61625,16.09375 L14.0625,16.09375 C13.889911,16.09375 13.75,15.953839 13.75,15.78125 L13.75,15.15625 C13.75,14.983661 13.889911,14.84375 14.0625,14.84375 L14.62625,14.84375 C16.55,14.84375 18.1575,13.26875 18.125,11.34625 C18.0902757,9.4721001 16.5619708,7.97047099 14.6875,7.96875 L14.0625,7.96875 C13.889911,7.96875 13.75,7.82883898 13.75,7.65625 L13.75,7.40625 C13.75,5.35375 12.125,3.63375 10.0725,3.59375 C9.06573559,3.57530765 8.09377299,3.96211828 7.3749797,4.66727847 C6.65618641,5.37243867 6.25083702,6.33681703 6.25,7.34375 L6.25,7.65625 C6.25,7.82883898 6.11008898,7.96875 5.9375,7.96875 L5.3125,7.96875 C3.43802923,7.97047099 1.90972426,9.4721001 1.875,11.34625 C1.8425,13.27 3.45,14.84375 5.37375,14.84375 L5.9375,14.84375 C6.11008898,14.84375 6.25,14.983661 6.25,15.15625 L6.25,15.78125 C6.25,15.953839 6.11008898,16.09375 5.9375,16.09375 L5.38375,16.09375 C2.79125,16.09375 0.6375,14.02 0.624967961,11.42875 C0.6158862,8.93906744 2.55227331,6.87541636 5.0375,6.72625 C5.35223595,4.22429032 7.47832351,2.34669259 10,2.34375 Z" id="形状" stroke="#333333" stroke-width="0.3" fill="#333333"></path>
                </g>
            </g>
        </g>
    </g>
</svg>