<?xml version="1.0" encoding="UTF-8"?>
<svg width="40px" height="40px" viewBox="0 0 40 40" version="1.1" xmlns="http://www.w3.org/2000/svg" xmlns:xlink="http://www.w3.org/1999/xlink">
    <title>编组 6</title>
    <g id="、app" stroke="none" stroke-width="1" fill="none" fill-rule="evenodd">
        <g id="登录页-手机" transform="translate(-213, -669)">
            <g id="编组-6" transform="translate(213, 669)">
                <circle id="椭圆形备份" stroke="#DBDBDB" stroke-width="0.666666667" fill="#FFFFFF" cx="20" cy="20" r="19.6666667"></circle>
                <g id="douyin-o-copy" transform="translate(10, 10)" fill-rule="nonzero">
                    <rect id="矩形" fill="#000000" opacity="0" x="0" y="0" width="20" height="20"></rect>
                    <path d="M8.03892578,7.87863281 L8.03892578,7.10363281 C7.76964844,7.07126953 7.50039062,7.04972656 7.22037109,7.04972656 C3.88150391,7.04972656 1.15654297,9.76253906 1.15654297,13.1103711 C1.15654297,15.1556836 2.17974609,16.9749219 3.74150391,18.0729102 C2.72904297,16.9856836 2.11511719,15.5431836 2.11511719,13.9500391 C2.12587891,10.6452148 4.7646875,7.95404297 8.03892578,7.87863281 Z" id="路径" fill="#00FAF0"></path>
                    <path d="M8.17939453,16.6949219 C9.66576172,16.6949219 10.882832,15.5108008 10.9366797,14.0360156 L10.9366797,0.849140625 L13.3493555,0.849140625 C13.2954492,0.58 13.2738867,0.30015625 13.2738867,0.0094921875 L9.97814453,0.0094921875 L9.97814453,13.1963477 C9.92427734,14.6711523 8.70714844,15.8552539 7.22085937,15.8552539 C6.75771484,15.8552539 6.31611328,15.7368164 5.93914062,15.5323047 C6.4453125,16.2427734 7.26390625,16.6949219 8.17939453,16.6949219 L8.17939453,16.6949219 Z M17.8609766,5.32759766 L17.8609766,4.59560547 C16.9455469,4.59560547 16.0838867,4.32650391 15.3622461,3.85283203 C16.0084375,4.58486328 16.880918,5.11232422 17.8609766,5.32759766 Z" id="形状" fill="#00FAF0"></path>
                    <path d="M15.3736328,3.85294922 C14.6735547,3.04560547 14.2427734,2.00140625 14.2427734,0.849570313 L13.3595312,0.849570313 C13.5965234,2.09830078 14.339668,3.17476563 15.3736328,3.85294922 L15.3736328,3.85294922 Z M7.22042969,10.3328711 C5.69097656,10.3328711 4.45236328,11.5708008 4.45236328,13.099375 C4.45236328,14.1651563 5.05550781,15.0801172 5.93869141,15.5430273 C5.61558594,15.0908789 5.4109375,14.5311133 5.4109375,13.9282813 C5.4109375,12.3996875 6.64955078,11.1617773 8.17894531,11.1617773 C8.45898437,11.1617773 8.73908203,11.2048242 8.99757812,11.2908789 L8.99757812,7.93228516 C8.72832031,7.9 8.45896484,7.87847656 8.17896484,7.87847656 L8.03896484,7.87847656 L8.03896484,10.4620117 C7.78046875,10.375918 7.51121094,10.3328711 7.22041016,10.3328711 L7.22042969,10.3328711 Z" id="形状" fill="#FF0050"></path>
                    <path d="M17.8613281,5.32759766 L17.8613281,7.88964844 C16.1488477,7.88964844 14.5763477,7.34070313 13.2838281,6.41488281 L13.2838281,13.0998047 C13.2838281,16.4369141 10.5696484,19.1603516 7.22003906,19.1603516 C5.92755859,19.1603516 4.73201172,18.7513281 3.751875,18.0624023 C4.86126953,19.2464844 6.43378906,20 8.189375,20 C11.5283008,20 14.2532422,17.2872852 14.2532422,13.9394336 L14.2532422,7.25453125 C15.5456836,8.1803125 17.1289648,8.72929688 18.8307227,8.72929688 L18.8307227,5.43527344 C18.4968359,5.42449219 18.1737109,5.39220703 17.8613672,5.32759766 L17.8613281,5.32759766 Z" id="路径" fill="#FF0050"></path>
                    <path d="M13.2830078,13.0998828 L13.2830078,6.41498047 C14.5754687,7.34076172 16.15875,7.88972656 17.8605273,7.88972656 L17.8605273,5.32773437 C16.8696289,5.11246094 16.0079883,4.58496094 15.3616992,3.85296875 C14.3277148,3.18556641 13.5845508,2.10908203 13.3583984,0.849589844 L10.9457617,0.849589844 L10.9457617,14.0364648 C10.891875,15.51125 9.67484375,16.6953711 8.18853516,16.6953711 C7.26226562,16.6953711 6.44365234,16.2432422 5.94820312,15.5435352 C5.06501953,15.0806445 4.461875,14.1549023 4.461875,13.0999023 C4.461875,11.5713477 5.70050781,10.3333984 7.22990234,10.3333984 C7.50994141,10.3333984 7.79,10.3764453 8.04845703,10.4625 L8.04845703,7.87898437 C4.77423828,7.95435547 2.13542969,10.6455859 2.13542969,13.9287891 C2.13542969,15.5220117 2.74933594,16.9752148 3.76179687,18.0517187 C4.74191406,18.7406641 5.94824219,19.1497974 7.22990234,19.1497974 C10.5580273,19.1605273 13.2830273,16.4369727 13.2830273,13.0999023 L13.2830078,13.0998828 Z" id="路径" fill="#111111"></path>
                </g>
            </g>
        </g>
    </g>
</svg>