<svg width="40" height="40" viewBox="0 0 40 40" fill="none" xmlns="http://www.w3.org/2000/svg">
  <!-- 抖音/TikTok 音符形图标 -->
  <path fill-rule="evenodd" clip-rule="evenodd"
    d="M28.5 3C28.5 3 29.1 9.5 36 10.5V16.5C36 16.5 32 16.2 28.5 13.5V27C28.5 33.9 22.9 39.5 16 39.5C9.1 39.5 3.5 33.9 3.5 27C3.5 20.1 9.1 14.5 16 14.5C16.7 14.5 17.4 14.56 18.1 14.66V20.84C17.41 20.64 16.72 20.5 16 20.5C12.41 20.5 9.5 23.41 9.5 27C9.5 30.59 12.41 33.5 16 33.5C19.59 33.5 22.5 30.59 22.5 27V3H28.5Z"
    fill="black"/>
</svg>
