<?xml version="1.0" encoding="UTF-8"?>
<svg width="40px" height="40px" viewBox="0 0 40 40" version="1.1" xmlns="http://www.w3.org/2000/svg" xmlns:xlink="http://www.w3.org/1999/xlink">
    <title>编组 11备份</title>
    <g id="、app" stroke="none" stroke-width="1" fill="none" fill-rule="evenodd">
        <g id="会员升级/月" transform="translate(-222, -616)" fill="#000000">
            <g id="编组-11备份" transform="translate(222, 616)">
                <g id="28体积、空间" transform="translate(9, 9)" fill-rule="nonzero">
                    <rect id="矩形" opacity="0" x="0" y="0" width="23" height="23"></rect>
                    <path d="M11.140625,20.1070312 L3.10859375,17.321875 C2.96484375,17.2679687 2.875,17.1421875 2.875,16.9804687 L2.875,6.45078125 L11.140625,8.96640625 L11.140625,20.1070312 Z M11.859375,20.1070312 L19.8914063,17.321875 C20.0351562,17.2679687 20.125,17.1421875 20.125,16.9804687 L20.125,6.45078125 L11.859375,8.96640625 L11.859375,20.1070312 Z M2.875,5.73203125 L11.5,8.24765625 L20.125,5.73203125 L11.6078125,2.9109375 C11.5359375,2.89296875 11.4460938,2.89296875 11.3742187,2.9109375 L2.875,5.73203125 L2.875,5.73203125 Z" id="形状"></path>
                </g>
            </g>
        </g>
    </g>
</svg>