<?xml version="1.0" encoding="UTF-8"?>
<svg width="41px" height="40px" viewBox="0 0 41 40" version="1.1" xmlns="http://www.w3.org/2000/svg" xmlns:xlink="http://www.w3.org/1999/xlink">
    <title>编组 8备份</title>
    <g id="、app" stroke="none" stroke-width="1" fill="none" fill-rule="evenodd">
        <g id="会员升级/月" transform="translate(-137, -552)">
            <g id="编组-8备份" transform="translate(137.75, 552)">
                <g id="编组" transform="translate(11.5625, 10.5625)" fill-rule="nonzero">
                    <g transform="translate(0, -0)">
                        <path d="M15.5222135,1.38461544 L1.3497577,1.38461544 C0.604307107,1.38461544 0,2.00452886 0,2.76923082 L0,16.6153846 C0,17.3800866 0.604307114,18 1.3497577,18 L15.5222135,18 C16.2676641,18 16.8719712,17.3800866 16.8719712,16.6153846 L16.8719712,2.76923082 C16.8719712,2.00452886 16.2676641,1.38461544 15.5222135,1.38461544 L15.5222135,1.38461544 Z" id="形状" fill="#333333"></path>
                        <path d="M4.72415194,3.52753844e-08 C5.0773244,-0.00011458518 5.37085567,0.279111859 5.39734359,0.640384677 L5.39903767,0.692307754 L5.39903767,3.46153851 C5.40065993,3.83497941 5.11326733,4.14244507 4.74948049,4.15645689 C4.38569365,4.17046872 4.07663438,3.88597636 4.05096029,3.51346158 L4.04927308,3.46153851 L4.04927308,0.692307754 C4.04927308,0.508696337 4.12037619,0.332605165 4.24694052,0.202772289 C4.37350486,0.0729394129 4.54516294,3.52753844e-08 4.72415194,3.52753844e-08 L4.72415194,3.52753844e-08 Z M12.1478192,3.52753844e-08 C12.5009917,-0.00011458518 12.794523,0.279111859 12.8210109,0.640384677 L12.822705,0.692307754 L12.822705,3.46153851 C12.8243274,3.83497953 12.5369348,4.14244537 12.1731478,4.1564572 C11.8093609,4.17046903 11.5003015,3.88597649 11.4746276,3.51346158 L11.4729404,3.46153851 L11.4729404,0.692307754 C11.4729404,0.309956778 11.775094,3.52753844e-08 12.1478192,3.52753844e-08 L12.1478192,3.52753844e-08 Z" id="形状" fill="#FFFFFF"></path>
                        <path d="M9.11086443,14.5384616 L7.76110675,14.5384616 L7.76110675,9.34615389 L8.43598559,9.34615389 C8.80871088,9.34615389 9.11086443,9.65611059 9.11086443,10.0384616 L9.11086443,14.5384616 L9.11086443,14.5384616 Z" id="路径" fill="#FFFFFF"></path>
                        <path d="M16.1970923,5.97980066 C16.561132,5.97813634 16.8608574,6.27295095 16.8745164,6.64613275 C16.8881755,7.01931456 16.6108451,7.33635539 16.2477082,7.36269235 L16.1970923,7.36442312 L0.67487886,7.36442312 C0.312628566,7.36354422 0.0156668954,7.0694443 0.00207164874,6.69809959 C-0.0115235979,6.32675489 0.26309737,6.01063404 0.624262947,5.98188465 L0.67487886,5.97980066 L16.1970923,5.97980066 L16.1970923,5.97980066 Z" id="路径" fill="#FFFFFF"></path>
                    </g>
                </g>
            </g>
        </g>
    </g>
</svg>