<svg width="40" height="40" viewBox="0 0 40 40" fill="none" xmlns="http://www.w3.org/2000/svg">
  <!-- 微信大气泡（主对话泡） -->
  <path fill-rule="evenodd" clip-rule="evenodd"
    d="M15.5 4C7.492 4 1 9.82 1 17c0 4.01 2.04 7.6 5.25 10.02l-.25 4.98 5.22-2.81c1.38.34 2.83.51 4.28.51 8.008 0 14.5-5.82 14.5-13S23.508 4 15.5 4z"
    fill="black"/>
  <!-- 微信小气泡（联系人气泡） -->
  <path fill-rule="evenodd" clip-rule="evenodd"
    d="M39 25.5c0-5.799-4.925-10.5-11-10.5-.29 0-.577.011-.862.033C27.7 15.69 28 16.58 28 17.5c0 5.523-4.926 10.14-11.37 10.88C17.952 32.44 22.1 36 27 36c1.33 0 2.6-.22 3.78-.61L35 38l-.22-4.28C37.56 31.82 39 28.8 39 25.5z"
    fill="black" fill-opacity="0.75"/>
</svg>
