<?xml version="1.0" encoding="UTF-8"?>
<svg width="40px" height="40px" viewBox="0 0 40 40" version="1.1" xmlns="http://www.w3.org/2000/svg" xmlns:xlink="http://www.w3.org/1999/xlink">
    <title>编组 7备份 3</title>
    <g id="、app" stroke="none" stroke-width="1" fill="none" fill-rule="evenodd">
        <g id="会员升级/月备份" transform="translate(-30, -552)" fill="#FFFFFF">
            <g id="编组-7备份-3" transform="translate(30, 552)">
                <g id="编组备份" transform="translate(11, 12)" fill-rule="nonzero">
                    <path d="M16.6256724,0 C17.9368099,0 19,1.00700148 19,2.24994292 L19,12.7504873 C19,13.9929423 17.9368099,15.0004303 16.6251834,15.0004303 L12.1142056,15.0004303 L7.56361484,17.8745195 C7.33779012,18.0153902 7.05748132,18.0391246 6.81097012,17.9382476 C6.56894693,17.8421681 6.39312385,17.629648 6.34490747,17.3749106 L6.33365937,17.2503732 L6.33365937,15.0004303 L2.37481661,15.0004303 C1.15170781,15.0004303 0.12813055,14.119912 0.0107590538,12.9664819 L0,12.7504873 L0,2.24994292 C0.000489047901,1.00748795 1.06367918,0 2.37481661,0 L16.6246943,0 L16.6256724,0 Z" id="形状" fill-opacity="0.502790937"></path>
                    <path d="M5.41070371,10.8971122 C5.79118298,10.8971122 6.00245167,10.7025225 6.15063319,10.2082648 L6.55214152,8.9886741 L9.0839425,8.9886741 L9.49083035,10.2082648 C9.63363234,10.6971713 9.85517104,10.8971122 10.2410298,10.8971122 C10.6484067,10.8971122 10.9178721,10.6553345 10.9178721,10.2768576 C10.9178721,10.129456 10.8807045,9.9557847 10.8068583,9.7300607 L8.98857816,4.54619221 C8.76117088,3.87339847 8.44426784,3.6 7.84714036,3.6 C7.24463334,3.6 6.92235078,3.87874968 6.6949435,4.54619221 L4.87666341,9.7300607 C4.78716764,9.99762148 4.75,10.1610768 4.75,10.3031272 C4.75,10.6601993 5.01946539,10.8966257 5.41021467,10.8966257 L5.41070371,10.8971122 Z M6.8695336,7.93205226 L7.78894366,5.02974751 L7.85741036,5.02974751 L8.77192994,7.93205226 L6.8695336,7.93205226 Z M12.6510579,10.8864097 C13.1004929,10.8864097 13.3591992,10.6027953 13.3591992,10.1187535 L13.3591992,4.37252094 C13.3591992,3.88896564 13.0951134,3.60535122 12.6461674,3.60535122 C12.1913529,3.60535122 11.9321575,3.88896564 11.9321575,4.37252094 L11.9321575,10.11924 C11.9321575,10.6032818 12.1962433,10.8868962 12.6510579,10.8868962 L12.6510579,10.8864097 Z" id="形状"></path>
                </g>
            </g>
        </g>
    </g>
</svg>