<?xml version="1.0" encoding="utf-8"?>
<!-- Generator: Adobe Illustrator 25.3.1, SVG Export Plug-In . SVG Version: 6.00 Build 0)  -->
<svg version="1.1" id="图层_1" xmlns="http://www.w3.org/2000/svg" xmlns:xlink="http://www.w3.org/1999/xlink" x="0px" y="0px"
         viewBox="0 0 41 40" style="enable-background:new 0 0 41 40;" xml:space="preserve">
<g>
        <defs>
                <path id="SVGID_1_" d="M39.7,6.6v26.9c0,3.5-2.7,6.3-5.9,6.3H6C2.7,39.8,0,37,0,33.5V6.6C0,3.1,2.7,0.3,6,0.3h27.8
                        C37,0.3,39.7,3.1,39.7,6.6z"/>
        </defs>
        <clipPath id="SVGID_2_">
                <use xlink:href="#SVGID_1_"  style="overflow:visible;"/>
        </clipPath>
        <g clip-path="url(#SVGID_2_)">
                <polygon fill="#FAC3AF" points="0.5,21 16.2,27.3 16.9,19.5 15.5,5.5 1.2,20.3               "/>
                <path fill="#F89575" d="M1.2,20.3L15.5,5.5c0,0-1-0.8-2.6-0.5c-0.6,0.1-1.2,0.4-1.7,0.8l-5.5,4.6c-0.8,0.7-1.6,1.4-2.2,2.3
                        c0,0,0,0,0,0.1c-1.1,1.4-1.8,3.1-2.1,4.8C1.3,18.4,1.2,19.4,1.2,20.3z"/>
                <path fill="#F9D2C1" d="M15.5,5.5l1.4,14l11.3-1.4c0.1-0.6,0-1.2-0.5-1.6l-7-7.3L22,3.2c0.1-0.3-0.3-0.6-0.6-0.5L15.5,5.5z"/>
                <path fill="#FBCDBD" d="M16.9,19.5l5.2,3.5c1.1,0.7,2.6,0.5,3.3-0.6l2.6-3.6c0.1-0.2,0.2-0.4,0.3-0.7L16.9,19.5z"/>
                <path fill="#F9AF96" d="M0.5,21l5.9,16.3l3.3,9.2c0.1,0.3,0.4,0.5,0.7,0.5h3.1c0.4,0,0.7-0.3,0.7-0.6l1.9-19L0.5,21z"/>
                <path fill="#FBC4B0" d="M-18.1,32.7L-7.5,37l8-16l-9.2-0.2c0,0-2,0-4.2,1.1c-1,0.5-2.1,1.2-2.9,2.2c-0.7,0.8-1.3,1.8-1.7,3
                        C-17.6,27.2-18.4,29.8-18.1,32.7z"/>
                <path fill="#F89575" d="M-18.1,32.7C-18.1,32.7-18.1,32.7-18.1,32.7l1.5,13.8c0,0.3,0.3,0.5,0.6,0.5h3.1c0.2,0,0.4-0.1,0.5-0.3
                        l4.8-9.6L-18.1,32.7z"/>
                <polygon fill="#F99575" points="-7.5,37 6.5,37.3 0.5,21            "/>
                <path fill="#F89575" d="M-22.9,22.7l7.1,1.4c0.9-1,1.9-1.7,2.9-2.2c-0.6-1.1-2.8-4.7-9.2-5c-0.2,0-0.3,0.1-0.4,0.3l-0.7,5.1
                        C-23.2,22.5-23.1,22.7-22.9,22.7z"/>
        </g>
</g>
</svg>
