<?xml version="1.0" encoding="UTF-8"?>
<svg width="40px" height="40px" viewBox="0 0 40 40" version="1.1" xmlns="http://www.w3.org/2000/svg" xmlns:xlink="http://www.w3.org/1999/xlink">
    <title>编组 9</title>
    <g id="页面-1" stroke="none" stroke-width="1" fill="none" fill-rule="evenodd">
        <g id="设置/我的账户" transform="translate(-861.000000, -338.000000)" fill="#F89575">
            <g id="编组-9" transform="translate(861.000000, 338.000000)">
                <circle id="椭圆形备份-5" fill-opacity="0.108528191" cx="20" cy="20" r="20"></circle>
                <g id="编组" transform="translate(11.000000, 11.000000)" fill-rule="nonzero">
                    <g id="路径">
                        <path d="M17.9481982,6.33579336 C17.8195078,5.89667897 17.3690914,5.58302583 16.918675,5.5202952 L12.2214753,4.8302583 L10.1624289,0.6900369 C9.96939332,0.250922509 9.51897692,0 9.00421531,0 C8.48945371,0 8.03903731,0.250922509 7.84600171,0.6900369 L5.7869553,4.8302583 L1.08975567,5.5202952 C0.63933927,5.58302583 0.188922868,5.89667897 0.0602324669,6.33579336 C-0.0684579338,6.77490775 -0.00411273348,7.27675277 0.381958469,7.5904059 L3.79225409,10.9151292 L3.02011168,15.5571956 C2.95576648,15.99631 3.14880208,16.498155 3.53487328,16.7490775 C3.72790889,16.8745387 4.04963489,17 4.30701569,17 C4.50005129,17 4.75743209,16.9372694 4.95046769,16.8745387 L9.06856051,14.7416974 L13.1866533,16.8745387 C13.3796889,17 13.5727245,17 13.8301053,17 C14.0874861,17 14.3448669,16.9372694 14.6022477,16.7490775 C14.9883189,16.498155 15.2456997,15.99631 15.1170093,15.5571956 L14.3448669,10.9151292 L17.7551626,7.5904059 C17.9481982,7.27675277 18.0768886,6.77490775 17.9481982,6.33579336 L17.9481982,6.33579336 Z"></path>
                    </g>
                </g>
            </g>
        </g>
    </g>
</svg>