<?xml version="1.0" encoding="UTF-8"?>
<svg width="24px" height="24px" viewBox="0 0 24 24" version="1.1" xmlns="http://www.w3.org/2000/svg" xmlns:xlink="http://www.w3.org/1999/xlink">
    <title>编组 27备份</title>
    <g id="谷" stroke="none" stroke-width="1" fill="none" fill-rule="evenodd">
        <g id="云同步" transform="translate(-63, -57)">
            <g id="编组-27备份" transform="translate(75, 69) rotate(2700) translate(-75, -69)translate(63, 57)">
                <rect id="矩形" x="0" y="0" width="24" height="24"></rect>
                <g id="编组-26备份" transform="translate(12, 12.0601) rotate(11970) translate(-12, -12.0601)translate(5, 5.0601)">
                    <path d="M9.63834073,13.483816 C12.1966232,12.4381485 14,9.91726337 14,6.97358771 C14,4.00124826 12.1613317,1.45997316 9.56339381,0.433233755" id="路径" stroke="#FF3800" stroke-width="1.5" stroke-linejoin="bevel"></path>
                    <path id="路径" d="M9.57258255,0.409983659 C12.2368681,1.46294451 14.025,4.05074378 14.025,6.97358771 C14.025,9.46597362 12.7261633,11.7329885 10.6439052,13.0034154 L11.1413767,14.7892047 C11.1519365,14.8271189 11.1540432,14.8668264 11.1475299,14.9051826 C11.1243586,15.0416348 10.9999099,15.1289886 10.8695659,15.1002926 L6.97386914,14.2426325 C6.92280388,14.2313901 6.87606044,14.2031123 6.84065495,14.1620435 C6.75028247,14.0572154 6.75544713,13.8976998 6.85219054,13.8057556 L9.74363859,11.0577451 C9.77083279,11.0318999 9.80356808,11.0132703 9.83925203,11.0033317 C9.96619777,10.9679748 10.0995614,11.0486542 10.137128,11.183534 L10.629,12.952 L10.8174931,12.8342859 C12.7680628,11.5523571 13.975,9.36772608 13.975,6.97358771 C13.975,4.07141353 12.1995419,1.50195594 9.55420506,0.456483851 L9.57258255,0.409983659 Z" fill="#FF3800" fill-rule="nonzero"></path>
                    <path d="M3.38537377,0.955212035 C1.356444,2.18563477 -1.13686838e-13,4.4206063 -1.13686838e-13,6.97358771 C-1.13686838e-13,9.7803026 1.63946883,12.2026542 4.00957886,13.3283857" id="路径" stroke="#FF3800" stroke-width="1.5" stroke-linejoin="round"></path>
                    <path id="路径" d="M2.16256149,-0.620566012 L6.13373742,-0.244008508 C6.18579208,-0.239072547 6.23563298,-0.216701408 6.27577908,-0.180252973 C6.37825196,-0.0872183808 6.39256359,0.0717377485 6.30774501,0.174785479 L3.77270398,3.25465574 C3.74886181,3.28362205 3.71864058,3.30610178 3.68443362,3.32031466 C3.56274232,3.37087702 3.42054132,3.30704997 3.36681882,3.17775295 L2.664,1.489 L2.50081191,1.6232425 C0.945054735,2.9420507 0.025,4.88153707 0.025,6.97358771 C0.025,9.70809214 1.60092593,12.1566708 4.02030473,13.3058035 L3.99885299,13.3509679 C1.56217958,12.1936208 -0.025,9.72755687 -0.025,6.97358771 C-0.025,4.78935664 0.970899594,2.77014901 2.64353987,1.44143427 L1.93068392,-0.278674811 C1.91558273,-0.315019699 1.9086532,-0.354174579 1.9104441,-0.393038629 C1.91681524,-0.531297569 2.02969204,-0.633165048 2.16256149,-0.620566012 Z" fill="#FF3800" fill-rule="nonzero"></path>
                </g>
            </g>
        </g>
    </g>
</svg>