<?xml version="1.0" encoding="UTF-8"?>
<svg width="24px" height="24px" viewBox="0 0 24 24" version="1.1" xmlns="http://www.w3.org/2000/svg" xmlns:xlink="http://www.w3.org/1999/xlink">
    <title>云盘 - 下载备份</title>
    <defs>
        <linearGradient x1="50%" y1="0%" x2="50%" y2="100%" id="linearGradient-1">
            <stop stop-color="#626262" offset="0%"></stop>
            <stop stop-color="#333333" offset="100%"></stop>
        </linearGradient>
        <linearGradient x1="50%" y1="0%" x2="50%" y2="100%" id="linearGradient-2">
            <stop stop-color="#FF3800" offset="0%"></stop>
            <stop stop-color="#FF3800" offset="100%"></stop>
        </linearGradient>
    </defs>
    <g id="谷" stroke="none" stroke-width="1" fill="none" fill-rule="evenodd">
        <g id="云同步按钮" transform="translate(-345, -23)" fill-rule="nonzero">
            <g id="云盘---下载备份" transform="translate(345, 23)">
                <rect id="矩形" fill="#000000" opacity="0" x="0" y="0" width="24" height="24"></rect>
                <path d="M16.3999922,18.608007 C16.1790923,18.608007 16.0000208,18.4289077 16.0000078,18.2080078 C16.0000078,17.9870988 16.1790831,17.8080129 16.3999922,17.808 C18.609129,17.9184591 20.4895331,16.2171447 20.5999922,14.0080078 C20.7104513,11.798871 19.0091368,9.91846692 16.8,9.80800781 C16.606515,9.78911501 16.4546281,9.63384624 16.44,9.43999219 C16.2990058,7.09117308 14.3530471,5.25852298 12,5.25852298 C9.64695292,5.25852298 7.70099421,7.09117308 7.56,9.43999219 C7.54537189,9.63384624 7.39348498,9.78911501 7.2,9.80800781 C6.2919818,9.91262733 5.44609622,10.3214693 4.8,10.968 C3.65136152,12.1072403 3.30205141,13.8262094 3.91494154,15.3234083 C4.52783167,16.8206071 5.98223383,17.8012124 7.60000781,17.808 C7.82091687,17.8080129 7.99999219,17.9870988 7.99999219,18.2080078 C7.99997924,18.4289077 7.82090772,18.608007 7.60000781,18.608007 C5.65284464,18.6128138 3.89569091,17.4408323 3.15200629,15.6412766 C2.40832167,13.8417209 2.82547269,11.7711859 4.20796875,10.3999922 C4.91210661,9.698983 5.81374451,9.23002105 6.79197656,9.05599219 C7.14619707,6.45531508 9.36728342,4.51624042 11.9919727,4.51624042 C14.6166619,4.51624042 16.8377482,6.45531508 17.1919687,9.05599219 C19.4923089,9.46458725 21.1740154,11.4557304 21.1919766,13.7920078 C21.1919766,15.065047 20.6862637,16.2859457 19.7860891,17.1861204 C18.8859145,18.086295 17.6650157,18.5920078 16.3919766,18.5920078 L16.3999922,18.608007 Z" id="路径" fill="url(#linearGradient-1)"></path>
                <path d="M11.9919727,4.18349042 C14.6280188,4.18349042 16.8812351,6.02276287 17.4407796,8.55690366 L17.4839772,8.77524042 L17.6895792,8.82610101 C19.8477544,9.40499379 21.4036308,11.3154416 21.518114,13.5658686 L21.5247266,13.7920078 C21.5247266,15.1532978 20.9839562,16.4588328 20.0213789,17.4214101 C19.2392848,18.2035042 18.230785,18.7071398 17.1499286,18.8685076 L16.9159772,18.8972404 L16.9388755,18.9407717 L16.3999922,18.9407717 C15.9953246,18.9407717 15.6672815,18.6126898 15.6672578,18.2080078 C15.6672578,17.8033336 15.9952985,17.4752737 16.4166093,17.4756652 C18.4422027,17.5769469 20.1663756,16.0169841 20.2676574,13.9913907 C20.3689391,11.9657973 18.8089763,10.2416244 16.7676625,10.1391828 C16.4132253,10.1045738 16.13499,9.82014336 16.1078479,9.45993051 C15.9774013,7.2868243 14.1770179,5.59127298 12,5.59127298 C9.8229821,5.59127298 8.02259868,7.2868243 7.89180667,9.46503012 C7.86501004,9.82014336 7.58677466,10.1045738 7.23808663,10.1385709 C6.40470837,10.2345906 5.62835537,10.6098254 5.03432128,11.2042543 C3.98123498,12.2487242 3.66098304,13.8246969 4.22288847,15.1973478 C4.78479391,16.5699986 6.11820822,17.46903 7.60002731,17.47525 C8.00470151,17.4752737 8.33274219,17.8033336 8.33274219,18.2080273 C8.33271848,18.6126898 8.0046754,18.9407717 7.60082924,18.9407717 C5.51868111,18.945896 3.63971938,17.6926669 2.84448181,15.7683642 C2.0492428,13.844058 2.49531195,11.6299876 3.97320344,10.1641791 C4.66274703,9.47769933 5.52957999,8.99952081 6.47421346,8.7813899 L6.49897722,8.77624042 L6.54316571,8.55690366 C7.08625302,6.09729643 9.22484948,4.29228401 11.7604072,4.1882345 L11.9919727,4.18349042 Z" id="路径" fill="url(#linearGradient-2)"></path>
                <path d="M12,20.2000078 C11.7790818,20.2000078 11.5999922,20.0209182 11.5999922,19.8 L11.5999922,14.4 C11.5999922,14.1790818 11.7790818,13.9999922 12,13.9999922 C12.2209182,13.9999922 12.4000078,14.1790818 12.4000078,14.4 L12.4000078,19.8 C12.4000078,20.0209182 12.2209182,20.2000078 12,20.2000078 L12,20.2000078 Z" id="路径" stroke="#FF3800" stroke-width="0.6655" fill="#FF3800"></path>
                <path d="M12,20.2000078 C11.8939144,20.2013023 11.7922189,20.1577197 11.7199922,20.0800078 C11.6426454,20.0074207 11.5987689,19.9060727 11.5987689,19.8 C11.5987689,19.6939273 11.6426454,19.5925793 11.7199922,19.5199922 L13.5199922,17.7199922 C13.6746362,17.5653482 13.9253638,17.5653482 14.0800078,17.7199922 C14.2346518,17.8746362 14.2346518,18.1253638 14.0800078,18.2800078 L12.2800078,20.0800078 C12.2077811,20.1577197 12.1060856,20.2013023 12,20.2000078 Z" id="路径" stroke="#FF3800" stroke-width="0.6655" fill="#FF3800"></path>
                <path d="M12,20.2000078 C11.8939144,20.2013023 11.7922189,20.1577197 11.7199922,20.0800078 L9.91999219,18.2800078 C9.76534816,18.1253638 9.76534817,17.8746362 9.91999221,17.7199922 C10.0746362,17.5653482 10.3253638,17.5653482 10.4800078,17.7199922 L12.2800078,19.5199922 C12.3573546,19.5925793 12.4012311,19.6939273 12.4012311,19.8 C12.4012311,19.9060727 12.3573546,20.0074207 12.2800078,20.0800078 C12.2077811,20.1577197 12.1060856,20.2013023 12,20.2000078 Z" id="路径" stroke="#FF3800" stroke-width="0.6655" fill="#FF3800"></path>
            </g>
        </g>
    </g>
</svg>