<?xml version="1.0" encoding="UTF-8"?>
<svg width="24px" height="24px" viewBox="0 0 24 24" version="1.1" xmlns="http://www.w3.org/2000/svg" xmlns:xlink="http://www.w3.org/1999/xlink">
    <title>云盘 - 下载</title>
    <g id="页面-1" stroke="none" stroke-width="1" fill="none" fill-rule="evenodd">
        <g id="主页黑色" transform="translate(-199.000000, -23.000000)" fill-rule="nonzero">
            <g id="云盘---下载" transform="translate(199.000000, 23.000000)">
                <rect id="矩形" fill="#000000" opacity="0" x="0" y="0" width="24" height="24"></rect>
                <path d="M16.3999922,18.608007 C16.1790923,18.608007 16.0000208,18.4289077 16.0000078,18.2080078 C16.0000078,17.9870988 16.1790831,17.8080129 16.3999922,17.808 C18.609129,17.9184591 20.4895331,16.2171447 20.5999922,14.0080078 C20.7104513,11.798871 19.0091368,9.91846692 16.8,9.80800781 C16.606515,9.78911501 16.4546281,9.63384624 16.44,9.43999219 C16.2990058,7.09117308 14.3530471,5.25852298 12,5.25852298 C9.64695292,5.25852298 7.70099421,7.09117308 7.56,9.43999219 C7.54537189,9.63384624 7.39348498,9.78911501 7.2,9.80800781 C6.2919818,9.91262733 5.44609622,10.3214693 4.8,10.968 C3.65136152,12.1072403 3.30205141,13.8262094 3.91494154,15.3234083 C4.52783167,16.8206071 5.98223383,17.8012124 7.60000781,17.808 C7.82091687,17.8080129 7.99999219,17.9870988 7.99999219,18.2080078 C7.99997924,18.4289077 7.82090772,18.608007 7.60000781,18.608007 C5.65284464,18.6128138 3.89569091,17.4408323 3.15200629,15.6412766 C2.40832167,13.8417209 2.82547269,11.7711859 4.20796875,10.3999922 C4.91210661,9.698983 5.81374451,9.23002105 6.79197656,9.05599219 C7.14619707,6.45531508 9.36728342,4.51624042 11.9919727,4.51624042 C14.6166619,4.51624042 16.8377482,6.45531508 17.1919688,9.05599219 C19.4923089,9.46458725 21.1740154,11.4557304 21.1919766,13.7920078 C21.1919766,15.065047 20.6862637,16.2859457 19.7860891,17.1861204 C18.8859145,18.086295 17.6650157,18.5920078 16.3919766,18.5920078 L16.3999922,18.608007 Z" id="路径" stroke="#FFFFFF" stroke-width="0.6655" fill="#FFFFFF"></path>
                <path d="M12,20.2000078 C11.7790818,20.2000078 11.5999922,20.0209182 11.5999922,19.8 L11.5999922,14.4 C11.5999922,14.1790818 11.7790818,13.9999922 12,13.9999922 C12.2209182,13.9999922 12.4000078,14.1790818 12.4000078,14.4 L12.4000078,19.8 C12.4000078,20.0209182 12.2209182,20.2000078 12,20.2000078 L12,20.2000078 Z" id="路径" stroke="#FFFFFF" stroke-width="0.6655" fill="#FFFFFF"></path>
                <path d="M12,20.2000078 C11.8939144,20.2013023 11.7922189,20.1577197 11.7199922,20.0800078 C11.6426454,20.0074207 11.5987689,19.9060727 11.5987689,19.8 C11.5987689,19.6939273 11.6426454,19.5925793 11.7199922,19.5199922 L13.5199922,17.7199922 C13.6746362,17.5653482 13.9253638,17.5653482 14.0800078,17.7199922 C14.2346518,17.8746362 14.2346518,18.1253638 14.0800078,18.2800078 L12.2800078,20.0800078 C12.2077811,20.1577197 12.1060856,20.2013023 12,20.2000078 Z" id="路径" stroke="#FFFFFF" stroke-width="0.6655" fill="#FFFFFF"></path>
                <path d="M12,20.2000078 C11.8939144,20.2013023 11.7922189,20.1577197 11.7199922,20.0800078 L9.91999219,18.2800078 C9.76534816,18.1253638 9.76534817,17.8746362 9.91999221,17.7199922 C10.0746362,17.5653482 10.3253638,17.5653482 10.4800078,17.7199922 L12.2800078,19.5199922 C12.3573546,19.5925793 12.4012311,19.6939273 12.4012311,19.8 C12.4012311,19.9060727 12.3573546,20.0074207 12.2800078,20.0800078 C12.2077811,20.1577197 12.1060856,20.2013023 12,20.2000078 Z" id="路径" stroke="#FFFFFF" stroke-width="0.6655" fill="#FFFFFF"></path>
            </g>
        </g>
    </g>
</svg>
