<?xml version="1.0" encoding="UTF-8"?>
<svg width="24px" height="24px" viewBox="0 0 24 24" version="1.1" xmlns="http://www.w3.org/2000/svg" xmlns:xlink="http://www.w3.org/1999/xlink">
    <title>上传</title>
    <g id="页面-1" stroke="none" stroke-width="1" fill="none" fill-rule="evenodd">
        <g id="文件库" transform="translate(-643.000000, -22.000000)" fill-rule="nonzero">
            <g id="上传" transform="translate(643.000000, 22.000000)">
                <rect id="矩形" fill="#000000" opacity="0" x="0" y="0" width="24" height="24"></rect>
                <path d="M12.7429688,3.6796875 L12.7429688,16.1953125 C12.7429688,16.584375 12.4289063,16.8984375 12.0398438,16.8984375 C11.6507813,16.8984375 11.3367188,16.584375 11.3367188,16.1953125 L11.3367188,3.6796875 C11.3367188,3.290625 11.6507813,2.9765625 12.0398438,2.9765625 C12.4265625,2.9765625 12.7429688,3.290625 12.7429688,3.6796875 Z" id="路径" stroke="#333333" stroke-width="0.2" fill="#333333"></path>
                <path d="M7.57265625,7.7578125 C7.84921875,8.034375 8.2921875,8.034375 8.56875,7.7578125 L11.3789062,4.94765625 C11.7445312,4.58203125 12.3375,4.58203125 12.7054687,4.94765625 L15.515625,7.7578125 C15.7898437,8.03203125 16.2351562,8.03203125 16.509375,7.7578125 C16.7835937,7.48359375 16.7835937,7.03828125 16.509375,6.7640625 L12.6960937,2.95546875 C12.3304687,2.58984375 11.7351562,2.58984375 11.3695312,2.95546875 L7.5703125,6.7640625 C7.2984375,7.040625 7.2984375,7.48359375 7.57265625,7.7578125 Z M20.0085937,21.3984375 L4.07109375,21.3984375 C3.2953125,21.3984375 2.66484375,20.7679688 2.66484375,19.9921875 L2.66484375,13.6804688 C2.66484375,13.2960938 2.96484375,12.9726563 3.34921875,12.9609375 C3.7453125,12.9515625 4.07109375,13.2703125 4.07109375,13.6640625 L4.07109375,19.2890625 C4.07109375,19.678125 4.38515625,19.9921875 4.77421875,19.9921875 L19.3054687,19.9921875 C19.6945312,19.9921875 20.0085937,19.678125 20.0085937,19.2890625 L20.0085937,13.6804688 C20.0085937,13.2960938 20.3085937,12.9726563 20.6929687,12.9609375 C21.0890625,12.9515625 21.4148437,13.2703125 21.4148437,13.6640625 L21.4148437,19.9921875 C21.4148437,20.7679688 20.784375,21.3984375 20.0085937,21.3984375 Z" id="形状" stroke="#333333" stroke-width="0.2" fill="#333333"></path>
            </g>
        </g>
    </g>
</svg>