<?xml version="1.0" encoding="UTF-8"?>
<svg width="24px" height="24px" viewBox="0 0 24 24" version="1.1" xmlns="http://www.w3.org/2000/svg" xmlns:xlink="http://www.w3.org/1999/xlink">
    <title>分享,转发,共享</title>
    <g id="页面-1" stroke="none" stroke-width="1" fill="none" fill-rule="evenodd">
        <g id="新建笔记页弹窗" transform="translate(-1358.000000, -23.000000)" fill-rule="nonzero">
            <g id="分享,转发,共享" transform="translate(1358.000000, 23.000000)">
                <rect id="矩形" fill="#000000" opacity="0" x="0" y="0" width="24" height="23.9999941"></rect>
                <path d="M18.4985937,14.7505169 L18.4985937,17.7502193 C18.4985937,18.1642348 18.1626719,18.500141 17.7486562,18.500141 L6.24978125,18.500141 C5.83576562,18.500141 5.49985937,18.1642348 5.49985937,17.7502193 L5.49985937,7.75120612 C5.49985937,7.33717497 5.83576562,7.0012688 6.24978125,7.0012688 L9.24948437,7.0012688 C9.66351562,7.0012688 9.99942187,6.66536263 9.99942187,6.25134711 C9.99942187,5.83733158 9.66351562,5.50140979 9.24948437,5.50140979 L6.24978125,5.50140979 C5.00771875,5.50140979 4,6.50912829 4,7.75120612 L4,17.7502193 C4,18.9922815 5.00771875,20 6.24978125,20 L17.7486562,20 C18.9907187,20 19.9984375,18.9922815 19.9984375,17.7502193 L19.9984375,14.7505169 C19.9984375,14.3364858 19.6625313,14.0005796 19.2485156,14.0005796 C18.8345,14.0005796 18.4985781,14.3364858 18.4985781,14.7505169 L18.4985937,14.7505169 Z M19.7625156,8.0308623 C19.6156562,8.17772164 19.4235,8.25114349 19.2328906,8.25114349 L14.9989062,8.25114349 C13.2037656,8.25114349 11.5789375,8.97920582 10.4024844,10.1540962 C9.37445312,11.1821115 8.69014062,12.5538612 8.53392187,14.0802671 C8.49485937,14.4614857 8.17145312,14.7505169 7.78867187,14.7505169 C7.34340625,14.7505169 6.9965625,14.3646108 7.0434375,13.9209077 C7.124306,13.1346691 7.32176148,12.3648477 7.6293125,11.636752 C8.84326562,8.76515899 11.6851719,6.75128448 14.9989062,6.75128448 L17.4221094,6.75128448 L15.9519531,5.28112859 C15.6582187,4.98897241 15.6582187,4.51401941 15.9519531,4.22030073 C16.2440937,3.92656642 16.7190625,3.92656642 17.0127812,4.22030073 L19.7625,6.97000318 C20.0562344,7.26373748 20.0562344,7.73869049 19.7625,8.03084667 L19.7625156,8.0308623 Z" id="形状" fill="#333333"></path>
            </g>
        </g>
    </g>
</svg>