<?xml version="1.0" encoding="UTF-8"?>
<svg width="24px" height="24px" viewBox="0 0 24 24" version="1.1" xmlns="http://www.w3.org/2000/svg" xmlns:xlink="http://www.w3.org/1999/xlink">
    <title>重复</title>
    <g id="页面-1" stroke="none" stroke-width="1" fill="none" fill-rule="evenodd">
        <g id="日历2/新建日程" transform="translate(-717.000000, -376.000000)" fill-rule="nonzero">
            <g id="重复" transform="translate(717.000000, 376.000000)">
                <rect id="矩形" fill="#000000" opacity="0" x="0" y="0" width="24" height="24"></rect>
                <path d="M8.54500781,7.48399219 L16.725,7.48399219 L13.9339922,10.2769922 C13.6910797,10.517755 13.6179383,10.8815348 13.7489209,11.1974728 C13.8799035,11.5134107 14.1889831,11.7187281 14.5309922,11.7169922 C14.7552012,11.7172618 14.9703255,11.6284128 15.129,11.4700078 L19.3129922,7.287 C19.6402454,6.95587784 19.6402454,6.42311435 19.3129922,6.09199219 L15.0049922,1.78600781 C14.846998,1.62741877 14.6323546,1.5382742 14.4084961,1.5382742 C14.1846376,1.5382742 13.9699942,1.62741877 13.812,1.78600781 C13.653411,1.94400197 13.5642664,2.15864539 13.5642664,2.38250391 C13.5642664,2.60636243 13.653411,2.82100584 13.812,2.979 L16.629,5.796 L8.54500781,5.796 C6.675,5.796 4.917,6.525 3.59500781,7.84600781 C2.27945089,9.15681064 1.54213063,10.9388943 1.5469683,12.7960078 C1.5469683,13.2618622 1.92464175,13.6395117 2.39049609,13.6395117 C2.85635044,13.6395117 3.234,13.2618622 3.234,12.7960078 C3.234,11.379 3.78799219,10.0429922 4.791,9.04000781 C5.78437774,8.04091221 7.13609118,7.48063092 8.54498437,7.48399219 L8.54500781,7.48399219 Z M21.612,10.3829994 C21.3880813,10.3827384 21.1732586,10.4715739 21.014924,10.6299084 C20.8565895,10.7882429 20.767754,11.0030657 20.7680156,11.2269844 C20.771525,12.6368013 20.2112833,13.9895162 19.212,14.9840156 C18.2177544,15.9836607 16.8648854,16.5439612 15.4549922,16.5400078 L7.275,16.5400078 L10.0689844,13.746 C10.2275734,13.5880058 10.316718,13.3733624 10.316718,13.1495039 C10.316718,12.9256454 10.2275734,12.711002 10.0689844,12.5530078 C9.91099115,12.394426 9.69635276,12.305286 9.4725,12.305286 C9.24864724,12.305286 9.03400885,12.394426 8.87601562,12.5530078 L4.69197656,16.737 C4.36472337,17.0681222 4.36472337,17.6008857 4.69197656,17.9320078 L8.99800781,22.2379687 C9.32799607,22.5679487 9.86300393,22.5679487 10.1929922,22.2379687 C10.3515812,22.0799746 10.4407258,21.8653312 10.4407258,21.6414727 C10.4407258,21.4176141 10.3515812,21.2029707 10.1929922,21.0449766 L7.37299219,18.225 L15.4570312,18.225 C17.3270156,18.225 19.0850156,17.496 20.4070312,16.1749922 C21.7239693,14.8649551 22.4621341,13.0825435 22.4570421,11.2249922 C22.4548118,10.7597181 22.0773024,10.3835491 21.6120234,10.3829994 L21.612,10.3829994 Z" id="形状" fill="#888888"></path>
            </g>
        </g>
    </g>
</svg>