<?xml version="1.0" encoding="UTF-8"?>
<svg width="24px" height="24px" viewBox="0 0 24 24" version="1.1" xmlns="http://www.w3.org/2000/svg" xmlns:xlink="http://www.w3.org/1999/xlink">
    <title>编辑</title>
    <g id="页面-1" stroke="none" stroke-width="1" fill="none" fill-rule="evenodd">
        <g id="日历2/新建日程" transform="translate(-717.000000, -482.000000)" fill-rule="nonzero">
            <g id="编辑" transform="translate(717.000000, 482.000000)">
                <rect id="矩形" fill="#000000" opacity="0" x="0" y="0" width="24" height="24"></rect>
                <path d="M20.2197656,2.71975781 C20.4080294,2.52459446 20.6869789,2.4462533 20.9493226,2.51486646 C21.2116663,2.58347962 21.4165423,2.78836011 21.4851497,3.05070533 C21.553757,3.31305055 21.4754097,3.59199834 21.2802422,3.78025781 L10.6744922,14.3862422 C10.4850102,14.5757241 10.2088343,14.6497253 9.94999713,14.5803701 C9.69115998,14.5110149 9.48898514,14.30884 9.41962994,14.0500029 C9.35027473,13.7911657 9.42427586,13.5149898 9.61375781,13.3255078 L20.2197422,2.71999219 L20.2197656,2.71975781 Z M19.9999687,10.5000078 C19.9999687,10.0857864 20.3357552,9.75 20.7499687,9.75 C21.1641823,9.75 21.4999687,10.0857864 21.4999687,10.5000078 L21.4999687,18.75 C21.4999687,20.26875 20.2687266,21.4999922 18.7499766,21.4999922 L5.25,21.4999922 C3.73125,21.4999922 2.50000781,20.26875 2.50000781,18.75 L2.50000781,5.25 C2.50000781,3.73125 3.73125,2.50000781 5.25,2.50000781 L13.2499922,2.50000781 C13.6642057,2.50000781 13.9999922,2.83579425 13.9999922,3.25000781 C13.9999922,3.66422137 13.6642057,4.00000781 13.2499922,4.00000781 L5.25,4.00000781 C4.55964838,4.00000781 4.00000781,4.55964838 4.00000781,5.25 L4.00000781,18.75 C4.00000781,19.4403516 4.55964838,19.9999922 5.25,19.9999922 L18.75,19.9999922 C19.4403516,19.9999922 19.9999922,19.4403516 19.9999922,18.75 L19.9999922,10.5000078 L19.9999687,10.5000078 Z" id="形状" fill="#888888"></path>
            </g>
        </g>
    </g>
</svg>