<?xml version="1.0" encoding="UTF-8"?>
<svg width="24px" height="24px" viewBox="0 0 24 24" version="1.1" xmlns="http://www.w3.org/2000/svg" xmlns:xlink="http://www.w3.org/1999/xlink">
    <title>编组</title>
    <g id="页面-1" stroke="none" stroke-width="1" fill="none" fill-rule="evenodd">
        <g id="新建笔记页弹窗" transform="translate(-1282.000000, -23.000000)">
            <g id="编组" transform="translate(1282.000000, 23.000000)">
                <rect id="矩形" x="0" y="0" width="24" height="24"></rect>
                <g id="编组备份" transform="translate(3.000000, 3.006579)" fill-rule="nonzero" stroke="#333333" stroke-width="1.3">
                    <path d="M8.63045492,0.743916685 C9.14109174,0.65 9.27096434,0.679742341 9.3779757,0.743916685 C9.46331917,0.795096866 9.53234092,0.869390931 9.57139185,0.96573168 L11.7895537,5.4552375 L16.8284347,6.20031877 C16.9493487,6.21726957 17.0698929,6.26995876 17.1676134,6.34787366 C17.2374782,6.40357849 17.2989948,6.47291269 17.324112,6.55918095 C17.392396,6.79371111 17.329826,7.0554902 17.2347937,7.24029825 L13.6484872,10.7596181 L14.4842422,15.8171752 C14.5180087,15.8951547 14.4967104,15.9783014 14.46494,16.0523468 C14.4195892,16.158043 14.3415894,16.2530542 14.2463954,16.3153315 C14.2415671,16.3184902 14.2366794,16.3215747 14.2317464,16.3245979 C14.2269077,16.3283508 14.2219785,16.3320754 14.2169571,16.3357711 L14.1202311,16.3955085 C14.0234964,16.4443126 13.9267486,16.4618433 13.8301053,16.4618433 C13.7164304,16.4618433 13.6163459,16.5030002 13.5255391,16.4292005 L9.06856051,14.1056568 L4.69923255,16.3835058 C4.57457922,16.4224815 4.42421804,16.4618433 4.30701569,16.4618433 C4.1663949,16.4618433 3.99479817,16.3834172 3.89072567,16.3153315 C3.80824389,16.2613707 3.75037752,16.1779843 3.71191529,16.0883427 C3.66714065,15.9839892 3.64777473,15.8675427 3.66263542,15.7581333 L4.48863379,10.7596181 L0.811066625,7.15074211 C0.732748002,7.09398293 0.688087534,7.01690072 0.667028202,6.93423681 C0.636022532,6.81253068 0.648839081,6.68103995 0.684318641,6.55918095 C0.709435867,6.47291269 0.770952416,6.40357849 0.840817177,6.34787366 C0.938537694,6.26995876 1.05908189,6.21726957 1.18483752,6.19962145 L6.21887762,5.45523606 L8.43703877,0.96573168 C8.4760897,0.869390931 8.54511146,0.795096866 8.63045492,0.743916685 Z" id="路径"></path>
                </g>
            </g>
        </g>
    </g>
</svg>