<?xml version="1.0" encoding="UTF-8"?>
<svg width="50px" height="50px" viewBox="0 0 50 50" version="1.1" xmlns="http://www.w3.org/2000/svg" xmlns:xlink="http://www.w3.org/1999/xlink">
    <title>编组 15</title>
    <defs>
        <linearGradient x1="19.1964286%" y1="-3.57142857%" x2="83.7372449%" y2="100%" id="linearGradient-1">
            <stop stop-color="#FF8800" offset="0%"></stop>
            <stop stop-color="#FF3800" offset="100%"></stop>
        </linearGradient>
    </defs>
    <g id="谷" stroke="none" stroke-width="1" fill="none" fill-rule="evenodd">
        <g id="主页-代办计划" transform="translate(-1166, -482)">
            <g id="编组-15" transform="translate(1166, 482)">
                <circle id="椭圆形" fill-opacity="0.096077979" fill="#FF3800" cx="25" cy="25" r="25"></circle>
                <g id="DeepSeek---探索未至之境" transform="translate(15, 13)" fill-rule="nonzero">
                    <path d="M14.2857143,0 L20.5357143,6.25 L20.5357143,20.1785714 C20.5357143,22.1875 20.5357143,23.1919643 20.0241071,23.8964286 C19.8590315,24.1235565 19.6592708,24.3233172 19.4321429,24.4883929 C18.7276786,25 17.7223214,25 15.7142857,25 L4.82142857,25 C2.8125,25 1.80803571,25 1.10357143,24.4883929 C0.876443483,24.3233172 0.676682835,24.1235565 0.511607143,23.8964286 C0,23.1919643 0,22.1866071 0,20.1785714 L0,4.82142857 C0,2.8125 0,1.80803571 0.511607143,1.10357143 C0.676682835,0.876443483 0.876443483,0.676682835 1.10357143,0.511607143 C1.80803571,0 2.81339286,0 4.82142857,0 L14.2857143,0 Z" id="路径" fill="url(#linearGradient-1)"></path>
                    <path d="M14.2857143,0 L20.5357143,6.25 L17.1428571,6.25 C16.1428571,6.25 15.6428571,6.25 15.2607143,6.05535714 C14.9247255,5.88415729 14.651557,5.61098874 14.4803571,5.275 C14.2857143,4.89285714 14.2857143,4.39285714 14.2857143,3.39285714 L14.2857143,0 Z" id="路径" fill-opacity="0.55" fill="#FFFFFF"></path>
                    <path d="M4.91071429,10.5214286 C4.91071429,10.1348214 5.22410714,9.82142857 5.61071429,9.82142857 L14.925,9.82142857 C15.3115993,9.82142857 15.625,10.1348292 15.625,10.5214286 C15.625,10.9080279 15.3115993,11.2214286 14.925,11.2214286 L5.61071429,11.2214286 C5.22411496,11.2214286 4.91071429,10.9080279 4.91071429,10.5214286 L4.91071429,10.5214286 Z M4.91071429,14.0928571 C4.91071429,13.70625 5.22410714,13.3928571 5.61071429,13.3928571 L14.925,13.3928571 C15.3115993,13.3928571 15.625,13.7062578 15.625,14.0928571 C15.625,14.4794565 15.3115993,14.7928571 14.925,14.7928571 L5.61071429,14.7928571 C5.22411496,14.7928571 4.91071429,14.4794565 4.91071429,14.0928571 L4.91071429,14.0928571 Z M5.0125,17.69375 C5.0125,17.3071429 5.325,16.99375 5.7125,16.99375 L11.3535714,16.99375 C11.7401708,16.99375 12.0535714,17.3071507 12.0535714,17.69375 C12.0535714,18.0803493 11.7401708,18.39375 11.3535714,18.39375 L5.7125,18.39375 C5.32590068,18.39375 5.0125,18.0803493 5.0125,17.69375 L5.0125,17.69375 Z" id="形状" fill="#FFFFFF"></path>
                </g>
            </g>
        </g>
    </g>
</svg>