<?xml version="1.0" encoding="UTF-8"?>
<svg width="24px" height="24px" viewBox="0 0 24 24" version="1.1" xmlns="http://www.w3.org/2000/svg" xmlns:xlink="http://www.w3.org/1999/xlink">
    <title>分享</title>
    <g id="页面-1" stroke="none" stroke-width="1" fill="none" fill-rule="evenodd">
        <g id="新建笔记页弹窗" transform="translate(-1320.000000, -23.000000)" fill-rule="nonzero">
            <g id="分享" transform="translate(1320.000000, 23.000000)">
                <rect id="矩形" fill="#000000" opacity="0" x="0" y="0" width="24" height="24"></rect>
                <path d="M17.3458449,16.571953 C16.6054015,16.571953 15.9329157,16.8858772 15.4500377,17.3859744 L9.02213096,13.7429429 C9.21171792,13.3705969 9.32617296,12.9544717 9.32617296,12.5054751 C9.32617296,12.2390013 9.27609888,11.9871277 9.2081412,11.7425542 L15.5430324,7.72719789 C16.0152011,8.16159444 16.6340152,8.431697 17.3136544,8.431697 C18.7802345,8.431697 19.9749422,7.21250059 19.9749422,5.71585911 C19.9749422,4.21921763 18.7802553,3 17.3136544,3 C15.8470536,3 14.6523459,4.21921763 14.6523459,5.71585911 C14.6523459,6.02611204 14.713171,6.31815725 14.8061657,6.59558109 L8.52850199,10.5708082 C8.0491799,10.0889612 7.39102181,9.78596591 6.66130852,9.78596591 C5.1947285,9.78596591 4,11.0051835 4,12.501825 C4,13.9984665 5.19474929,15.2176629 6.66130852,15.2176629 C7.19428141,15.2176629 7.69148709,15.0534114 8.10642822,14.7759875 L14.7847054,18.5613704 C14.7203244,18.795015 14.6774038,19.0322673 14.6774038,19.2841621 C14.6774038,20.7807824 15.8721115,22 17.3386915,22 C18.8052715,22 20,20.7807824 20,19.2841409 C20,17.7874994 18.8124041,16.571953 17.3458449,16.571953 L17.3458449,16.571953 Z M17.3136544,4.35791894 C18.0469445,4.35791894 18.6443191,4.96753837 18.6443191,5.71585911 C18.6443191,6.46417985 18.0469445,7.07377805 17.3136544,7.07377805 C16.5803644,7.07377805 15.9829898,6.46417985 15.9829898,5.71583789 C15.9829898,4.96749593 16.5803644,4.35791894 17.3136544,4.35791894 Z M5.33422058,12.5054751 C5.33422058,11.7571543 5.93159523,11.1475349 6.66488524,11.1475349 C7.39817525,11.1475349 7.99554989,11.7571543 7.99554989,12.5054751 C7.99554989,13.2537958 7.39817525,13.8634152 6.66488524,13.8634152 C5.93159523,13.8634152 5.33422058,13.2537958 5.33422058,12.5054751 L5.33422058,12.5054751 Z M17.3458241,20.6457099 C16.6125341,20.6457099 16.0151595,20.0361117 16.0151595,19.2877909 C16.0151595,18.5394702 16.6125341,17.929872 17.3458241,17.929872 C18.0791141,17.929872 18.6764888,18.5394702 18.6764888,19.2878121 C18.6764888,20.0397617 18.0791141,20.6457099 17.3458241,20.6457099 L17.3458241,20.6457099 Z" id="形状" fill="#333333"></path>
            </g>
        </g>
    </g>
</svg>