<?xml version="1.0" encoding="UTF-8"?>
<svg width="24px" height="24px" viewBox="0 0 24 24" version="1.1" xmlns="http://www.w3.org/2000/svg" xmlns:xlink="http://www.w3.org/1999/xlink">
    <title>闹钟_o</title>
    <g id="页面-1" stroke="none" stroke-width="1" fill="none" fill-rule="evenodd">
        <g id="日历2/新建日程" transform="translate(-717.000000, -322.000000)" fill-rule="nonzero">
            <g id="闹钟_o" transform="translate(717.000000, 322.000000)">
                <rect id="矩形" fill="#000000" opacity="0" x="0" y="0" width="24" height="24"></rect>
                <path d="M11.9999816,4.06577948 C14.558717,4.06577948 16.8731271,5.08272469 18.5474251,6.73058424 C20.2173708,8.37416023 21.25,10.645547 21.25,13.1578897 C21.25,15.6702357 20.217375,17.9416253 18.5474287,19.5852019 C16.8731342,21.2330579 14.5587265,22.25 11.9999816,22.25 C9.44124974,22.25 7.12685097,21.2330573 5.45256251,19.5852011 C3.7826222,17.9416244 2.75,15.6702352 2.75,13.1578897 C2.75,10.6455443 3.7826222,8.37415505 5.45256251,6.73057836 C7.12685097,5.08272217 9.44124974,4.06577948 11.9999816,4.06577948 Z" id="路径" stroke="#333333" stroke-width="1.5"></path>
                <polygon id="路径" stroke="#333333" stroke-width="0.588235294" fill="#333333" points="14.9411673 1 14.9411673 2.15790331 9.05882353 2.15790331 9.05882353 1"></polygon>
                <polygon id="路径" stroke="#333333" stroke-width="0.588235294" fill="#333333" points="16.4705882 7.94736556 17.2940993 8.75790059 12.470579 13.505258 11.6470404 12.694723"></polygon>
            </g>
        </g>
    </g>
</svg>