<?xml version="1.0" encoding="UTF-8"?>
<svg width="19px" height="20px" viewBox="0 0 19 20" version="1.1" xmlns="http://www.w3.org/2000/svg" xmlns:xlink="http://www.w3.org/1999/xlink">
    <title>编组</title>
    <g id="页面-1" stroke="none" stroke-width="1" fill="none" fill-rule="evenodd">
        <g id="日历2/新建日程" transform="translate(-720.000000, -431.000000)" fill="#333333" fill-rule="nonzero">
            <g id="编组-10" transform="translate(720.000000, 430.000000)">
                <g id="编组" transform="translate(0.000000, 1.000000)">
                    <path d="M17.4768626,1.5384616 L1.51972719,1.5384616 C0.680405038,1.5384616 0,2.22725429 0,3.07692314 L0,18.4615385 C0,19.3112073 0.680405047,20 1.51972719,20 L17.4768626,20 C18.3161847,20 18.9965898,19.3112073 18.9965898,18.4615385 L18.9965898,3.07692314 C18.9965898,2.22725429 18.3161847,1.5384616 17.4768626,1.5384616 L17.4768626,1.5384616 Z M1.51972719,3.07692314 L17.4768626,3.07692314 L17.4768626,18.4615385 L1.51972719,18.4615385 L1.51972719,3.07692314 Z" id="形状"></path>
                    <path d="M18.2367262,6.64422295 C18.6466079,6.64237371 18.9840764,6.9699455 18.9994556,7.38459195 C19.0148347,7.7992384 18.7025811,8.15150599 18.2937159,8.18076928 L18.2367262,8.18269235 L0.759863605,8.18269235 C0.351996608,8.1817158 0.0176397637,7.85493811 0.00233252302,7.44233288 C-0.0129747177,7.02972765 0.296228149,6.67848227 0.702873836,6.6465385 L0.759863605,6.64422295 L18.2367262,6.64422295 L18.2367262,6.64422295 Z M5.31904515,3.91948731e-08 C5.71669117,-0.000127316867 6.04718565,0.310124288 6.07700908,0.71153853 L6.07891649,0.769230838 L6.07891649,3.8461539 C6.08074304,4.26108824 5.75716025,4.60271674 5.34756322,4.61828544 C4.93796618,4.63385414 4.58998834,4.31775151 4.56108122,3.9038462 L4.55918154,3.8461539 L4.55918154,0.769230838 C4.55918154,0.565218152 4.63923837,0.369561295 4.78174044,0.225302544 C4.92424251,0.0810437921 5.11751679,3.91948731e-08 5.31904515,3.91948731e-08 L5.31904515,3.91948731e-08 Z M13.6775446,3.91948731e-08 C14.0751907,-0.000127316867 14.4056851,0.310124288 14.4355086,0.71153853 L14.437416,0.769230838 L14.437416,3.8461539 C14.4392427,4.26108837 14.1156599,4.60271708 13.7060627,4.61828578 C13.2964656,4.63385448 12.9484876,4.31775166 12.9195807,3.9038462 L12.917681,3.8461539 L12.917681,0.769230838 C12.917681,0.34439642 13.2578836,3.91948731e-08 13.6775446,3.91948731e-08 L13.6775446,3.91948731e-08 Z" id="形状"></path>
                    <path d="M10.2581585,16.1538462 L8.73843131,16.1538462 L8.73843131,10.3846154 L9.49829489,10.3846154 C9.91795596,10.3846154 10.2581585,10.7290118 10.2581585,11.1538462 L10.2581585,16.1538462 L10.2581585,16.1538462 Z" id="路径"></path>
                </g>
            </g>
        </g>
    </g>
</svg>