<?xml version="1.0" encoding="UTF-8"?>
<svg width="50px" height="50px" viewBox="0 0 50 50" version="1.1" xmlns="http://www.w3.org/2000/svg" xmlns:xlink="http://www.w3.org/1999/xlink">
    <title>形状结合</title>
    <g id="谷" stroke="none" stroke-width="1" fill="none" fill-rule="evenodd">
        <g id="暗夜模式-主页" transform="translate(-426, -706)" fill="#FF3800">
            <path d="M463.180574,706 C467.638168,706 469.254599,706.464128 470.884229,707.335664 C472.513858,708.207199 473.792801,709.486142 474.664336,711.115771 C475.535872,712.745401 476,714.361832 476,718.819426 L476,743.180574 C476,747.638168 475.535872,749.254599 474.664336,750.884229 C473.792801,752.513858 472.513858,753.792801 470.884229,754.664336 C469.254599,755.535872 467.638168,756 463.180574,756 L438.819426,756 C434.361832,756 432.745401,755.535872 431.115771,754.664336 C429.486142,753.792801 428.207199,752.513858 427.335664,750.884229 C426.464128,749.254599 426,747.638168 426,743.180574 L426,718.819426 C426,714.361832 426.464128,712.745401 427.335664,711.115771 C428.207199,709.486142 429.486142,708.207199 431.115771,707.335664 C432.745401,706.464128 434.361832,706 438.819426,706 L463.180574,706 Z M464.308344,720 L437.691656,720 C435.017099,720 434.047241,720.278477 433.069463,720.801398 C432.091685,721.324319 431.324319,722.091685 430.801398,723.069463 C430.278477,724.047241 430,725.017099 430,727.691656 L430,744.308344 C430,746.982901 430.278477,747.952759 430.801398,748.930537 C431.324319,749.908315 432.091685,750.675681 433.069463,751.198602 C434.047241,751.721523 435.017099,752 437.691656,752 L464.308344,752 C466.982901,752 467.952759,751.721523 468.930537,751.198602 C469.908315,750.675681 470.675681,749.908315 471.198602,748.930537 C471.721523,747.952759 472,746.982901 472,744.308344 L472,727.691656 C472,725.017099 471.721523,724.047241 471.198602,723.069463 C470.675681,722.091685 469.908315,721.324319 468.930537,720.801398 C467.952759,720.278477 466.982901,720 464.308344,720 Z" id="形状结合"></path>
        </g>
    </g>
</svg>