<?xml version="1.0" encoding="UTF-8"?>
<svg width="25px" height="25px" viewBox="0 0 25 25" version="1.1" xmlns="http://www.w3.org/2000/svg" xmlns:xlink="http://www.w3.org/1999/xlink">
    <title>编组 8备份</title>
    <g id="、app" stroke="none" stroke-width="1" fill="none" fill-rule="evenodd">
        <g id="tab" transform="translate(-320, -75)">
            <g id="编组-8备份" transform="translate(320, 75)">
                <rect id="矩形" x="0" y="0" width="25" height="25"></rect>
                <g id="编组" transform="translate(1.5, 1.5)" fill="#FF3800" fill-rule="nonzero">
                    <path d="M11,0 C17.0750698,0 22,4.92493024 22,11 C22,12.8316279 21.5507907,14.5987907 20.7096744,16.1746046 L20.512186,16.5266047 L21.5282791,19.6567442 C21.5671628,19.7754419 21.5927442,19.8982326 21.6060465,20.0220465 L21.6162791,20.2093023 C21.6162791,21.1982773 20.8145564,22 19.8255814,22 L11,22 C4.92493024,22 0,17.0750698 0,11 C0,4.92493024 4.92493024,0 11,0 Z M11,1.53488373 C5.77256063,1.53488373 1.53488373,5.77256063 1.53488373,11 C1.53488373,16.2274394 5.77256063,20.4651163 11,20.4651163 L19.8245581,20.4651163 C19.9064249,20.4651163 19.9833706,20.4260312 20.0315464,20.3598401 C20.0797222,20.293649 20.093308,20.2083986 20.068093,20.1305116 L18.9445581,16.6667907 C18.8744276,16.4506863 18.9036555,16.2146152 19.0243721,16.0221395 C19.9687479,14.5175162 20.4682263,12.7764368 20.4651307,11 C20.4651307,8.48969509 19.4679015,6.08220573 17.6928479,4.3071521 C15.9177943,2.53209847 13.5103049,1.53488373 11,1.53488373 Z M15.5534884,13.4578605 C15.8922305,13.7124819 15.9604849,14.1934693 15.7059535,14.5322791 C14.5955302,16.0139199 12.851566,16.8853331 11,16.8837232 C9.12744187,16.8837232 7.39813952,16.0006512 6.29404651,14.5322791 C6.0394561,14.1932019 6.10794613,13.7119393 6.44702327,13.4573489 C6.78610041,13.2027584 7.26736305,13.2712484 7.52195348,13.6103256 C8.34239892,14.7057323 9.6314076,15.350047 11,15.3488372 C12.3691328,15.3501285 13.6586232,14.7053834 14.4790698,13.6093023 C14.7340044,13.2708949 15.214946,13.2031051 15.5534884,13.4578605 L15.5534884,13.4578605 Z" id="形状"></path>
                </g>
            </g>
        </g>
    </g>
</svg>