<?xml version="1.0" encoding="UTF-8"?>
<svg width="25px" height="25px" viewBox="0 0 25 25" version="1.1" xmlns="http://www.w3.org/2000/svg" xmlns:xlink="http://www.w3.org/1999/xlink">
    <title>编组 7备份</title>
    <g id="、app" stroke="none" stroke-width="1" fill="none" fill-rule="evenodd">
        <g id="tab" transform="translate(-259, -75)">
            <g id="编组-7备份" transform="translate(259, 75)">
                <rect id="矩形" x="0" y="0" width="25" height="25"></rect>
                <g id="编组" transform="translate(1.5, 1.5)" fill="#FF3800" fill-rule="nonzero">
                    <path d="M11,22 C4.93465116,22 0,17.0656047 0,11 C0,4.93465116 4.93465116,0 11,0 C17.0656047,0 22,4.93465116 22,11 C22,17.0656047 17.0656047,22 11,22 Z M11,1.53488372 C5.78088372,1.53488372 1.53488372,5.78088372 1.53488372,11 C1.53488372,16.2191163 5.78088372,20.4651163 11,20.4651163 C16.2191163,20.4651163 20.4651163,16.2191163 20.4651163,11 C20.4651163,5.78088372 16.2191163,1.53488372 11,1.53488372 Z" id="形状"></path>
                    <path d="M11,17.5557442 C10.5761163,17.5557442 10.2325581,17.2119302 10.2325581,16.7883023 L10.2325581,5.21169767 C10.2325581,4.78781395 10.5761163,4.44425581 11,4.44425581 C11.4238837,4.44425581 11.7674419,4.78781395 11.7674419,5.21169767 L11.7674419,16.7883023 C11.7674419,17.2119302 11.4238837,17.5557442 11,17.5557442 Z" id="路径"></path>
                    <path d="M16.7883023,11.7674419 L5.21169767,11.7674419 C4.78781395,11.7674419 4.44425581,11.4238837 4.44425581,11 C4.44425581,10.5761163 4.78781395,10.2325581 5.21169767,10.2325581 L16.7883023,10.2325581 C17.2119302,10.2325581 17.5557442,10.5761163 17.5557442,11 C17.5557442,11.4238837 17.2119302,11.7674419 16.7883023,11.7674419 Z" id="路径"></path>
                </g>
            </g>
        </g>
    </g>
</svg>