<?xml version="1.0" encoding="UTF-8"?>
<svg width="25px" height="25px" viewBox="0 0 25 25" version="1.1" xmlns="http://www.w3.org/2000/svg" xmlns:xlink="http://www.w3.org/1999/xlink">
    <title>编组 3备份</title>
    <g id="、app" stroke="none" stroke-width="1" fill="none" fill-rule="evenodd">
        <g id="tab" transform="translate(-30, -75)">
            <g id="编组-3备份" transform="translate(30, 75)">
                <rect id="矩形" x="0" y="0" width="25" height="25"></rect>
                <g id="编组" transform="translate(3, 2)" fill-rule="nonzero" stroke="#FF3800" stroke-width="1.83333333">
                    <path d="M7.72878782,19.7983297 C7.69265551,21.0197861 6.68391004,21.9933492 5.4475818,22.0001519 L3.2260617,22.0001519 C1.42184924,21.9494802 -0.00980244756,20.4814032 0.00553554074,18.6975078 L0.00553554074,9.41346829 C-0.0523733793,8.47708511 0.346701203,7.56988049 1.07904426,6.97309218 L7.78847375,0.872151902 C9.03116679,-0.254373788 10.9267898,-0.294116676 12.2166972,0.779311506 L18.7919381,6.34973523 C19.5683931,6.95893085 20.0145965,7.88996856 19.9996354,8.86968883 L19.9996354,18.6975078 C19.9996426,19.5756789 19.6457728,20.4176902 19.016253,21.0374053 C18.3867332,21.6571204 17.5334101,22.0035001 16.6449207,22.0001519 L14.23052,22.0001519 C13.6492248,21.9930559 13.0949509,21.7563043 12.6915174,21.3426062 C12.2880838,20.9289081 12.0691064,20.3727349 12.0835026,19.7983297 L12.0835026,15.3207463 C12.0835026,14.7684616 11.6357873,14.3207463 11.0835026,14.3207463 L8.72878782,14.3207463 C8.17650307,14.3207463 7.72878782,14.7684616 7.72878782,15.3207463 L7.72878782,19.7983297 L7.72878782,19.7983297 Z" id="路径"></path>
                </g>
            </g>
        </g>
    </g>
</svg>