<?xml version="1.0" encoding="UTF-8"?>
<svg width="25px" height="25px" viewBox="0 0 25 25" version="1.1" xmlns="http://www.w3.org/2000/svg" xmlns:xlink="http://www.w3.org/1999/xlink">
    <title>搜索</title>
    <g id="、app" stroke="none" stroke-width="1" fill="none" fill-rule="evenodd">
        <g id="tab" transform="translate(-91, -22)">
            <g id="搜索" transform="translate(91, 22)">
                <rect id="矩形" fill="#000000" fill-rule="nonzero" opacity="0" x="0" y="0" width="25" height="25"></rect>
                <path d="M20.3654614,19.1984845 C21.966075,17.3228132 22.8740435,14.9434885 22.8740435,12.4373671 C22.8743272,6.67254541 18.2018094,2 12.4373054,2 C6.67280144,2 2,6.67282908 2,12.4370835 C2,18.2016473 6.67280144,22.8747343 12.4370218,22.8747343 C13.469901,22.8755843 14.4971843,22.7230917 15.4852791,22.422243 C15.9182616,22.2870579 16.1609584,21.8277431 16.0286616,21.3938671 C15.8963648,20.959991 15.4386798,20.7142382 15.0039346,20.8436424 C14.1718586,21.0969051 13.3067866,21.2252041 12.4370218,21.2243416 C7.58435436,21.2240579 3.65038295,17.2900632 3.65038295,12.4370835 C3.65038295,7.58438739 7.58435436,3.65039271 12.4370218,3.65039271 C17.2899728,3.65039271 21.2242279,7.58438739 21.2242279,12.4370835 C21.2242279,14.7393813 20.311824,16.9162493 18.7192044,18.5570233 C18.3560552,18.9310771 18.3604651,19.5273914 18.7291067,19.8960333 L22.5965213,23.7634708 C22.9195637,24.0808207 23.4379992,24.0785444 23.7582425,23.75837 C24.0784857,23.4381956 24.0808766,22.9197575 23.7635999,22.5966431 L20.3654614,19.1984845 Z" id="路径" stroke="#333333" stroke-width="0.316873526" fill="#333333" fill-rule="nonzero"></path>
            </g>
        </g>
    </g>
</svg>