<?xml version="1.0" encoding="UTF-8"?>
<svg width="18px" height="17px" viewBox="0 0 18 17" version="1.1" xmlns="http://www.w3.org/2000/svg" xmlns:xlink="http://www.w3.org/1999/xlink">
    <title>编组</title>
    <g id="、app" stroke="none" stroke-width="1" fill="none" fill-rule="evenodd">
        <g id="垃圾箱-无结果备份" transform="translate(-332, -162)" fill="#333333" stroke="#333333">
            <g id="形状" transform="translate(333, 162.5)" fill-rule="nonzero" stroke-width="0.1">
                <path d="M14.8571429,3.42857143 L14.8571429,13.7142857 C14.8571429,14.9766509 13.8337937,16 12.5714286,16 L3.42857143,16 C2.16620629,16 1.14285714,14.9766509 1.14285714,13.7142857 L1.14285714,3.42857143 L0,3.42857143 L0,2.28571429 L3.42857143,2.28571429 L3.42857143,1.14285714 C3.42857143,0.511674572 3.940246,0 4.57142857,0 L11.4285714,0 C12.059754,0 12.5714286,0.511674572 12.5714286,1.14285714 L12.5714286,2.28571429 L16,2.28571429 L16,3.42857143 L14.8571429,3.42857143 Z M11.4285714,1.14285714 L4.57142857,1.14285714 L4.57142857,2.28571429 L11.4285714,2.28571429 L11.4285714,1.14285714 Z M13.7142857,3.42857143 L2.28571429,3.42857143 L2.28571429,13.7142857 C2.28571429,14.3454683 2.79738886,14.8571429 3.42857143,14.8571429 L12.5714286,14.8571429 C13.2026111,14.8571429 13.7142857,14.3454683 13.7142857,13.7142857 L13.7142857,3.42857143 Z M9.14285714,5.71428571 L10.2857143,5.71428571 L10.2857143,12.5714286 L9.14285714,12.5714286 L9.14285714,5.71428571 Z M5.71428571,5.71428571 L6.85714286,5.71428571 L6.85714286,12.5714286 L5.71428571,12.5714286 L5.71428571,5.71428571 Z"></path>
            </g>
        </g>
    </g>
</svg>