<?xml version="1.0" encoding="UTF-8"?>
<svg width="19px" height="19px" viewBox="0 0 19 19" version="1.1" xmlns="http://www.w3.org/2000/svg" xmlns:xlink="http://www.w3.org/1999/xlink">
    <title>重置</title>
    <g id="、app" stroke="none" stroke-width="1" fill="none" fill-rule="evenodd">
        <g id="垃圾箱-无结果备份" transform="translate(-298, -161)">
            <g id="重置" transform="translate(298, 161)">
                <rect id="矩形" fill="#000000" fill-rule="nonzero" opacity="0" x="0" y="0" width="19" height="19"></rect>
                <path d="M3.37196191,10.5688613 L4.54600977,10.4071943 C4.49548605,10.0390625 4.47840164,9.66711176 4.49496582,9.29589844 L3.31100977,9.2432959 C3.29129077,9.68608504 3.31169139,10.1297503 3.37196191,10.5688613 L3.37196191,10.5688613 Z" id="路径" fill="#000000" fill-rule="nonzero"></path>
                <path d="M10.5614209,16.8280811 C11.5409414,16.8280811 12.4914609,16.6361143 13.3866133,16.2574873 C14.2509092,15.8919043 15.0270146,15.3686807 15.6933506,14.7023447 C16.3596865,14.0360088 16.8829102,13.2599033 17.2484932,12.3955889 C17.6271016,11.5004365 17.8190869,10.5499355 17.8190869,9.57039648 C17.8190869,8.59087598 17.6271201,7.64035645 17.2484932,6.7452041 C16.8829102,5.8809082 16.3596865,5.10480273 15.6933506,4.4384668 C15.0270146,3.77213086 14.2509092,3.24890723 13.3866133,2.88332422 C12.4914609,2.50471582 11.5409414,2.31273047 10.5614209,2.31273047 C8.67986426,2.31273047 6.89599805,3.02975781 5.53844434,4.33172168 C4.18510254,5.62965918 3.39404199,7.37394824 3.31100977,9.24325879 L4.49496582,9.29589844 C4.63937695,6.04467188 7.30408984,3.49787402 10.5614209,3.49787402 C13.9098369,3.49787402 16.6339619,6.22201758 16.6339619,9.57041504 C16.6339619,12.9188125 13.9098369,15.6429746 10.5614209,15.6429746 C9.26955078,15.6429746 8.03629492,15.2428799 6.99502441,14.48596 L6.29820313,15.4445508 C7.54333398,16.349667 9.01754102,16.8280811 10.5614209,16.8280811 Z" id="路径" fill="#333333" fill-rule="nonzero"></path>
                <path d="M4.1259502,11.6770029 C4.27759766,11.6770029 4.42924512,11.6191494 4.54493359,11.5034424 L6.72015527,9.32823926 C6.95156934,9.09684375 6.95156934,8.72164941 6.72015527,8.49023535 C6.48875977,8.25882129 6.11356543,8.25882129 5.88216992,8.49023535 L3.7069668,10.6654385 C3.47555273,10.8968525 3.47555273,11.2720469 3.7069668,11.5034424 C3.82267383,11.6191494 3.97432129,11.6770029 4.1259502,11.6770029 L4.1259502,11.6770029 Z" id="路径" fill="#333333" fill-rule="nonzero"></path>
                <path d="M4.00098438,11.7153926 C4.15265039,11.7153926 4.30426074,11.6575576 4.41996777,11.541832 C4.65138184,11.3104365 4.65138184,10.9352422 4.41996777,10.7038281 L2.24476465,8.528625 C2.0133877,8.29722949 1.63819336,8.29722949 1.4067793,8.528625 C1.17536523,8.76003906 1.17536523,9.13521484 1.4067793,9.36662891 L3.58200098,11.541832 C3.6976709,11.6575205 3.84935547,11.7153926 4.00098437,11.7153926 L4.00098438,11.7153926 Z" id="路径" fill="#333333" fill-rule="nonzero"></path>
            </g>
        </g>
    </g>
</svg>