<?xml version="1.0" encoding="UTF-8"?>
<svg width="22px" height="22px" viewBox="0 0 22 22" version="1.1" xmlns="http://www.w3.org/2000/svg" xmlns:xlink="http://www.w3.org/1999/xlink">
    <title>导入</title>
    <g id="页面-1" stroke="none" stroke-width="1" fill="none" fill-rule="evenodd">
        <g id="主页黑色" transform="translate(-231.000000, -24.000000)" fill-rule="nonzero">
            <g id="导入" transform="translate(231.000000, 24.000000)">
                <rect id="矩形" fill="#000000" opacity="0" x="0" y="0" width="22" height="22"></rect>
                <path d="M5.48683557,11.5397996 L5.48683557,16.6717952 C5.48683557,17.3942601 6.0728127,17.9802555 6.79525503,17.9802555 L16.67187,17.9802555 C17.3944901,17.9802555 17.9802895,17.3944379 17.9802895,16.6717952 L17.9802895,6.79487149 C17.9802895,6.0722288 17.3944901,5.48641115 16.67187,5.48641115 L11.9535633,5.48641115 C11.6535685,5.48641115 11.4103747,5.24320973 11.4103747,4.94320557 C11.4103747,4.64320142 11.6535685,4.4 11.9535633,4.4 L16.67187,4.4 C17.9944797,4.4 19.0666667,5.47222049 19.0666667,6.79487149 L19.0666667,16.6717952 C19.0666667,17.9944462 17.9944797,19.0666667 16.67187,19.0666667 L6.79525503,19.0666667 C5.47264536,19.0666667 4.40045838,17.9944462 4.40045838,16.6717952 L4.40045838,11.5397996 C4.40045838,11.2397955 4.6436522,10.9965941 4.94364698,10.9965941 C5.24364176,10.9965941 5.48683557,11.2397955 5.48683557,11.5397996 Z M4.91445186,6.16477494 L5.16567264,6.17835217 C8.48976131,6.35648732 11.2340983,8.8399362 11.7423924,12.1298616 C11.7929672,12.4215899 12.0678437,12.6190819 12.3604501,12.5739207 C12.6530564,12.5287596 12.8556025,12.2575817 12.8158733,11.9641795 C12.2293616,8.16647537 9.06181785,5.29945686 5.22474338,5.09326887 L4.9728421,5.07969164 C4.67303524,5.06356712 4.41692266,5.29354469 4.40079864,5.59336092 C4.38467462,5.89317715 4.614645,6.14929773 4.91445186,6.16542226 L4.91445186,6.16477494 Z M12.247556,11.9580714 L9.9254235,10.6889817 C9.66272792,10.5498038 9.33695658,10.6476627 9.19443407,10.9085647 C9.05191156,11.1694667 9.14559225,11.4964733 9.40464162,11.642326 L11.892451,13.0023898 C12.2980729,13.2240201 12.8059755,13.0951945 13.0569364,12.7070269 L14.6118297,10.3033086 C14.7749491,10.0513022 14.7028982,9.71477213 14.4508997,9.55164768 C14.1989011,9.38852324 13.8623816,9.4605763 13.6992623,9.71258271 L12.247556,11.9580714 Z" id="形状" stroke="#FFFFFF" stroke-width="0.5" fill="#FFFFFF"></path>
            </g>
        </g>
    </g>
</svg>
