<?xml version="1.0" encoding="UTF-8"?>
<svg width="20px" height="20px" viewBox="0 0 20 20" version="1.1" xmlns="http://www.w3.org/2000/svg" xmlns:xlink="http://www.w3.org/1999/xlink">
    <title>编组</title>
    <g id="谷" stroke="none" stroke-width="1" fill="none" fill-rule="evenodd">
        <g id="主页-代办计划" transform="translate(-405, -639)" fill="#636363" fill-rule="nonzero" stroke="#636363" stroke-width="0.4">
            <g id="编组-14" transform="translate(406, 638)">
                <g id="编组" transform="translate(0, 2)">
                    <path d="M16.6987952,0 L1.30120482,0 C0.585542169,0 0,0.585542169 0,1.30120482 L0,16.6987952 C0,17.4144578 0.585542169,18 1.30120482,18 L16.6987952,18 C17.4144578,18 18,17.4144578 18,16.6987952 L18,1.30120482 C18,0.585542169 17.4144578,0 16.6987952,0 L16.6987952,0 Z M17.1325301,16.6987952 C17.1325301,16.9340964 16.9340964,17.1325301 16.6987952,17.1325301 L1.30120482,17.1325301 C1.06590361,17.1325301 0.86746988,16.9340964 0.86746988,16.6987952 L0.86746988,5.40650602 C0.902168675,5.41518072 0.937951807,5.42168675 0.975903614,5.42168675 L17.1325301,5.42168675 L17.1325301,16.6987952 Z M17.1325301,4.55421687 L0.975903614,4.55421687 C0.937951807,4.55421687 0.902168675,4.56072289 0.86746988,4.56939759 L0.86746988,1.30120482 C0.86746988,1.06590361 1.06590361,0.86746988 1.30120482,0.86746988 L16.6987952,0.86746988 C16.9340964,0.86746988 17.1325301,1.06590361 17.1325301,1.30120482 L17.1325301,4.55421687 L17.1325301,4.55421687 Z" id="形状"></path>
                    <path d="M7.28024096,14.2178313 C7.37024096,14.3078313 7.49060241,14.3479518 7.60987952,14.3425301 C7.72807229,14.3490361 7.84951807,14.3078313 7.93951807,14.2178313 L13.7092771,8.44807229 C13.8784103,8.27845129 13.8784103,8.00395834 13.7092771,7.83433735 C13.5396561,7.66520416 13.2651632,7.66520416 13.0955422,7.83433735 L7.60987952,13.32 L4.90337349,10.613494 C4.7337525,10.4443608 4.45925955,10.4443608 4.28963855,10.613494 C4.12050536,10.783115 4.12050536,11.0576079 4.28963855,11.2272289 L7.28024096,14.2178313 L7.28024096,14.2178313 Z" id="路径"></path>
                </g>
            </g>
        </g>
    </g>
</svg>