<?xml version="1.0" encoding="UTF-8"?>
<svg width="16px" height="16px" viewBox="0 0 16 16" version="1.1" xmlns="http://www.w3.org/2000/svg" xmlns:xlink="http://www.w3.org/1999/xlink">
    <title>编组</title>
    <g id="页面-1" stroke="none" stroke-width="1" fill="none" fill-rule="evenodd">
        <g id="编组" transform="translate(0.8437, 0.9043)" fill="#6666FF" fill-rule="nonzero">
            <path d="M13.3003944,8.62654377 C13.133884,8.57846107 13.0327751,8.41008096 13.0686731,8.24065037 C13.8058317,4.72040349 11.7398377,1.17468015 8.3367594,0.232051263 C4.83019391,-0.736054088 1.21264216,1.41370927 0.26026017,5.02836889 L0.26026017,5.04560298 C-0.319708274,7.27565511 0.0796523122,9.64700716 1.35812413,11.5645787 C2.24501277,12.9038781 3.52757245,13.9337152 5.02741946,14.510856 C9.1849043,16.0791567 13.6603498,13.7315761 14.9801862,9.53470452 C15.0141365,9.43028147 15.0041598,9.31655594 14.9525456,9.21962715 C14.9009315,9.12269836 14.8121118,9.05088925 14.7064701,9.02067953 L13.3003944,8.62654377 Z M6.39075053,12.0358931 C5.11290887,11.6844679 4.05029054,10.837001 3.38962241,9.66283611 C2.73275549,8.48685641 2.55468876,7.10317906 2.89243401,5.79940636 C3.45861387,3.6488937 5.61084718,2.37357224 7.70308792,2.94679252 C9.68284261,3.49528564 10.9089407,5.51691742 10.5489853,7.56402565 C10.5125675,7.75411519 10.6279444,7.94039428 10.8144524,7.99262958 L12.1432877,8.36053958 C12.2263038,8.38348598 12.2958803,8.44017481 12.3350833,8.51680884 C12.3742863,8.59344286 12.3795206,8.68299408 12.3495122,8.76366705 C11.5171153,11.2738473 8.92018711,12.7297519 6.39150044,12.0358931 L6.39075053,12.0358931 Z" id="形状"></path>
        </g>
    </g>
</svg>