<?xml version="1.0" encoding="UTF-8"?>
<svg width="1000px" height="1000px" viewBox="0 0 1000 1000" version="1.1" xmlns="http://www.w3.org/2000/svg" xmlns:xlink="http://www.w3.org/1999/xlink">
    <title>编组 2</title>
    <g id="页面-1" stroke="none" stroke-width="1" fill="none" fill-rule="evenodd">
        <g id="编组-2">
            <path d="M365.353641,0 L634.646359,2.90186925e-14 C761.687779,-1.6860696e-14 807.756068,13.2276496 854.200513,38.0664103 C900.644957,62.905171 937.094829,99.3550428 961.93359,145.799487 C986.77235,192.243932 1000,238.312221 1000,365.353641 L1000,634.646359 C1000,761.687779 986.77235,807.756068 961.93359,854.200513 C937.094829,900.644957 900.644957,937.094829 854.200513,961.93359 C807.756068,986.77235 761.687779,1000 634.646359,1000 L365.353641,1000 C238.312221,1000 192.243932,986.77235 145.799487,961.93359 C99.3550428,937.094829 62.905171,900.644957 38.0664103,854.200513 C13.2276496,807.756068 0,761.687779 0,634.646359 L0,365.353641 C0,238.312221 13.2276496,192.243932 38.0664103,145.799487 C62.905171,99.3550428 99.3550428,62.905171 145.799487,38.0664103 C192.243932,13.2276496 238.312221,0 365.353641,0 Z" id="矩形" fill="#FF3800"></path>
            <g id="编组备份" transform="translate(149.3683, 110.3896)" fill="#FFFFFF">
                <path d="M440.11114,0.743028528 C451.325979,-3.03883826 457.815017,8.7072191 457.065182,11.4797708 C457.357352,12.5605961 432.559666,106.878433 431.928333,107.487291 C430.451137,112.742268 423.003863,117.727549 418.768417,120.197714 C416.935714,121.264238 414.876221,121.86288 412.761563,121.979339 L353.387684,125.287196 L416.506653,126.157577 C416.506653,126.157577 431.699501,126.786866 440.327714,134.156501 C441.784479,135.460029 696.113488,388.636703 696.983869,390.287567 C704.782564,399.859715 700.822944,415.359035 698.39977,422.407895 C697.602943,424.724825 696.285112,426.819051 694.568868,428.565943 L639.949395,484.186559 C639.949395,484.186559 626.907982,500.008696 607.259028,501.57579 C591.418502,502.836413 563.823747,487.145037 553.722423,481.015593 C550.994821,479.360643 548.134414,477.948828 545.155504,476.802622 L511.968653,464.014559 L130.639612,337.253576 L354.070096,425.642198 C357.635389,427.049927 360.469235,429.830651 361.936215,433.369384 C379.964952,476.814881 498.242785,761.897352 498.232569,762.228342 C500.933611,772.086531 491.786438,777.155581 488.353949,778.677726 C487.600027,779.012802 486.809329,779.182384 485.985941,779.184427 C485.816727,779.184631 485.629416,779.184858 485.424792,779.185107 L484.759767,779.185914 C479.752004,779.19199 467.455254,779.206715 455.135106,779.214953 L453.37571,779.216084 C452.20372,779.216807 451.034655,779.217464 449.874793,779.218042 L448.142685,779.21885 C447.855412,779.218974 447.568911,779.219093 447.283279,779.219206 L445.580702,779.219819 C445.29894,779.219909 445.018243,779.219994 444.738709,779.220072 L436.066994,779.220165 C435.824925,779.220084 435.585098,779.219994 435.347611,779.219896 L433.951558,779.219203 C427.575026,779.215473 423.187093,779.204695 422.940525,779.182384 C414.159076,779.220779 410.246447,768.402735 410.246447,768.402735 L284.52747,416.372436 C284.52747,416.372436 387.25899,763.658546 387.467391,764.31644 C389.379778,773.616849 384.120715,777.748094 381.730232,778.573526 C381.02743,778.89068 359.937453,778.897023 338.608475,778.821001 L335.996938,778.811296 C314.682016,778.728931 293.950468,778.573526 293.950468,778.573526 C291.729566,778.573526 289.400378,778.892257 287.201951,778.573526 L279.875222,777.513132 C276.88201,777.077941 273.992999,776.091101 271.361425,774.601646 L35.1776123,641.030851 L23.0494862,630.641444 C15.2017551,622.397342 9.24189263,612.54324 5.58261472,601.767678 C5.58261472,601.767678 1.00800654,589.952153 0.401191609,580.864231 C0.0746148465,579.549098 -0.0165912764,519.006238 -0.0231392876,456.397276 L-0.0230997976,440.735072 C-0.0229640672,439.431814 -0.0227970439,438.129727 -0.0226000906,436.829328 L-0.021070112,429.05132 C-0.00799876674,374.804909 0.0530613421,325.358942 0.061144595,319.007242 L0.0620290554,318.319725 C0.0558996116,313.683822 0.562600294,309.060178 1.57191536,304.536649 L6.05049559,284.479066 C9.02123266,273.619734 13.5161581,263.810581 20.3096249,254.830946 L34.4339064,237.831956 C39.3476771,231.919086 44.9111689,226.578297 51.0201812,221.909704 L252.781038,67.6969857 C255.296153,65.7825561 258.268933,64.5627968 261.403122,64.1602966 L319.908662,57.1379973 L287.868017,81.7170667 C285.585821,83.4680444 283.49568,85.4539842 281.632329,87.6442388 L100.413282,300.440137 L92.0547639,310.224773 C89.6193316,313.074964 87.5659679,316.229584 85.9477948,319.610994 L82.3089483,327.215591 C81.4937323,328.919576 80.8419681,330.695071 80.3659147,332.523689 L19.1797641,566.956524 L92.9639647,340.083336 C93.9610209,337.063564 95.5158565,334.258321 97.5467455,331.81676 L283.583536,97.7700798 C284.952445,96.0068432 286.388778,94.3539365 287.849628,92.6683395 C289.459629,90.8070317 291.130924,88.9906732 292.855341,87.2356092 L294.831065,85.2292379 C295.633716,84.2638505 301.016854,79.8321708 306.695504,75.2493527 L307.454032,74.6377057 C314.163188,69.2320542 321.018092,63.8211341 321.018092,63.8211341 C323.982699,61.4286079 326.693957,59.2158787 329.88944,57.2769313 C351.076884,44.4153152 438.819871,0.969817947 440.11114,0.743028528 Z M416.580002,217.634826 C400.755821,217.634826 387.930982,230.461708 387.930982,246.283846 C387.930982,262.105983 400.755821,274.932866 416.580002,274.932866 C432.404182,274.932866 445.229022,262.105983 445.229022,246.283846 C445.229022,230.461708 432.404182,217.634826 416.580002,217.634826 Z" id="形状结合"></path>
            </g>
        </g>
    </g>
</svg>