<?xml version="1.0" encoding="UTF-8"?>
<svg width="16px" height="13px" viewBox="0 0 16 13" version="1.1" xmlns="http://www.w3.org/2000/svg" xmlns:xlink="http://www.w3.org/1999/xlink">
    <title>编组</title>
    <g id="页面-1" stroke="none" stroke-width="1" fill="none" fill-rule="evenodd">
        <g id="文件库" transform="translate(-322.000000, -287.000000)" fill-rule="nonzero">
            <g id="编组-12" transform="translate(312.000000, 276.000000)">
                <g id="编组" transform="translate(10.000000, 11.000000)">
                    <path d="M3.86212853,5.0302822 C3.83430814,4.80423663 3.80676051,4.5499703 3.80676051,4.29542455 C3.80676051,1.92180642 5.68272706,0 8.00000245,0 C10.3172754,0 12.1932419,1.92180642 12.1932419,4.32392474 C12.1932419,4.57819107 12.1656943,4.80451605 12.1378739,5.05878238 C14.2620419,5.05878238 16.0000024,6.83920554 16.0000024,9.04321965 C16.0000024,11.2195718 14.2623147,12.9997156 12.110599,12.9997156 C11.0346049,12.9997156 10.0415263,12.5479038 9.3517445,11.8130462 C8.99307977,11.4173966 8.99307977,10.7957015 9.3517445,10.4282726 C9.73795686,10.032623 10.344823,10.032623 10.7034878,10.4282726 L10.7310354,10.4564934 C11.0897001,10.7957015 11.5588281,11.021747 12.0827787,11.021747 C13.1587729,11.021747 14.0413881,10.1172853 14.0413881,9.01527829 C14.0413881,7.91299183 13.1587729,7.00880957 12.0830514,7.00880957 C11.5863758,7.00880957 11.1447954,7.20663436 10.7861307,7.51734224 L10.7588558,7.545563 L10.6483925,7.65872549 L10.5654768,7.7433878 L6.64825796,11.8130462 C5.9309285,12.5479038 4.9653976,13 3.88967616,13 C2.8577161,13.0011831 1.86768902,12.5817474 1.1379826,11.8342104 C0.408276189,11.0866734 -0.00115484725,10.0724546 2.446735e-06,9.01527829 C2.446735e-06,6.83920554 1.71014015,5.05878238 3.86212853,5.03056161 L3.86212853,5.0302822 Z M3.88940341,11.021747 C4.9653976,11.021747 5.8482856,10.1172853 5.8482856,9.01527829 C5.8482856,7.91299183 4.9653976,7.00880957 3.88967616,7.00880957 C2.81368197,7.00880957 1.93106671,7.91299183 1.93106671,9.01499888 C1.93106671,10.1172853 2.81368197,11.021747 3.88940341,11.021747 L3.88940341,11.021747 Z M8.00000123,6.6696089 C8.60774099,6.67116479 9.19102894,6.42453373 9.6207672,5.98429467 C10.0505055,5.54405561 10.2912538,4.94651482 10.289735,4.32392474 C10.2912538,3.70133465 10.0505055,3.10379386 9.6207672,2.6635548 C9.19102894,2.22331574 8.60774099,1.97668468 8.00000123,1.97824057 C7.39226147,1.97668468 6.80897351,2.22331574 6.37923525,2.6635548 C5.94949699,3.10379386 5.7087487,3.70133465 5.71026748,4.32392474 C5.71026748,5.59553582 6.73090086,6.6696089 8.00000123,6.6696089 Z" id="形状" fill="#06A7FF"></path>
                    <path d="M10.157929,5.07127336 L10.157929,4.96153846 C10.157929,4.43948283 10.5788994,4 11.0789645,4 C11.5787694,4 12,4.43948283 12,4.96153846 L12,5.07127336 C11.8683492,7.26923077 10.1316508,9 8,9 C5.86834916,9 4.13165084,7.26923077 4,5.07127336 L4,4.96153846 C4,4.43948283 4.42123065,4 4.92103551,4 C5.42110056,4 5.84207103,4.43948283 5.84207103,4.96153846 L5.84207103,5.07127336 C5.94744374,6.22511951 6.89475738,7.1043568 8,7.1043568 C9.13152075,7.1043568 10.0525563,6.22511951 10.157929,5.07127336 L10.157929,5.07127336 Z" id="路径" fill="#FF436A"></path>
                </g>
            </g>
        </g>
    </g>
</svg>