<?xml version="1.0" encoding="UTF-8"?>
<svg width="16px" height="16px" viewBox="0 0 16 16" version="1.1" xmlns="http://www.w3.org/2000/svg" xmlns:xlink="http://www.w3.org/1999/xlink">
    <title>编组</title>
    <g id="页面-1" stroke="none" stroke-width="1" fill="none" fill-rule="evenodd">
        <g id="文件库" transform="translate(-321.000000, -192.000000)" fill="#333333" fill-rule="nonzero">
            <g id="编组-10" transform="translate(312.000000, 182.000000)">
                <g id="编组" transform="translate(9.000000, 10.000000)">
                    <path d="M15.45,0.371740997 C15.0802964,0.0724995301 14.6004537,-0.0548056093 14.131,0.021802377 L5.835,1.2805816 C4.889,1.42355652 4.14800001,2.26240939 4.14800001,3.19024667 L4.14800001,11.2308364 C3.70775475,10.9430411 3.19299479,10.7901345 2.66700001,10.7909136 C1.194,10.7909136 0,11.9567091 0,13.3954568 C0,14.8342045 1.194,16 2.66700001,16 C4.13900001,16 5.33300001,14.8342045 5.33300001,13.3954568 L5.33300001,6.00075375 L14.815,4.56400574 L14.815,9.74609686 C14.37447,9.45811462 13.8593351,9.30519991 13.333,9.30617401 C11.861,9.30617401 10.667,10.4729694 10.667,11.911717 C10.667,13.3504647 11.861,14.5162602 13.333,14.5162602 C14.806,14.5162602 16,13.3504647 16,11.911717 L16,1.57353022 C16,1.10161299 15.8,0.663689787 15.45,0.371740997 L15.45,0.371740997 Z M2.668,14.8422031 C1.851,14.8422031 1.186,14.1933169 1.186,13.3954568 C1.186,12.5965969 1.851,11.9477107 2.668,11.9477107 C3.485,11.9477107 4.149,12.5975967 4.149,13.3954568 C4.149,14.1933169 3.485,14.8422031 2.668,14.8422031 Z M5.33300001,4.82895926 L5.33300001,3.18924684 C5.33300001,2.83630874 5.65300001,2.47937135 6.01699999,2.42338117 L14.313,1.1666016 C14.4414055,1.14047505 14.5748393,1.17109383 14.679,1.25058686 C14.7711041,1.33194781 14.8211573,1.45080333 14.815,1.57353022 L14.815,3.39321108 L5.33300001,4.82795944 L5.33300001,4.82895926 Z M13.333,13.3584633 C12.516,13.3584633 11.852,12.7095771 11.852,11.911717 C11.852,11.113857 12.516,10.4649708 13.333,10.4649708 C14.15,10.4649708 14.815,11.113857 14.815,11.911717 C14.815,12.7095771 14.15,13.3584633 13.333,13.3584633 Z" id="形状"></path>
                </g>
            </g>
        </g>
    </g>
</svg>