<?xml version="1.0" encoding="UTF-8"?>
<svg width="15px" height="16px" viewBox="0 0 15 16" version="1.1" xmlns="http://www.w3.org/2000/svg" xmlns:xlink="http://www.w3.org/1999/xlink">
    <title>编组</title>
    <g id="页面-1" stroke="none" stroke-width="1" fill="none" fill-rule="evenodd">
        <g id="文件库" transform="translate(-322.000000, -151.000000)" fill="#333333" fill-rule="nonzero">
            <g id="编组-9" transform="translate(312.000000, 142.000000)">
                <g id="编组" transform="translate(10.000000, 9.000000)">
                    <path d="M10.2083333,0 C10.307416,0.000175802131 10.4050561,0.0207316098 10.4933333,0.06 L10.5208333,0.0730909091 C10.5494807,0.0877529484 10.5769097,0.104157147 10.6029167,0.122181818 L10.6133333,0.129818182 L10.6420833,0.152727273 L14.8254167,3.80363635 L14.8383333,3.81563635 L14.8416667,3.81890908 L14.8166667,3.79599999 L14.85125,3.82872726 L14.865,3.84327273 C14.8780239,3.85754316 14.89026,3.87234788 14.9016667,3.88763636 L14.91625,3.90909091 L14.93125,3.93272728 C14.9754167,4.00763637 15,4.092 15,4.18181818 L15,15.2727273 C15,15.6743889 14.6269039,16 14.1666667,16 L0.83333334,16 C0.373096052,16 0,15.6743889 0,15.2727273 L0,0.727272716 C0,0.325611083 0.373096052,0 0.83333334,0 L10.2083333,0 Z M8.75,1.09090909 L1.25,1.09090909 L1.25,14.9090909 L13.75,14.9090909 L13.75,5.45454546 L9.58333334,5.45454546 C9.12309604,5.45454546 8.75,5.12893436 8.75,4.72727272 L8.75,1.09090909 Z M8.125,10.5454545 C8.47017797,10.5454545 8.75,10.7896629 8.75,11.0909091 C8.75,11.3921553 8.47017797,11.6363636 8.125,11.6363636 L4.79166666,11.6363636 C4.44648869,11.6363636 4.16666666,11.3921553 4.16666666,11.0909091 C4.16666666,10.7896629 4.44648869,10.5454545 4.79166666,10.5454545 L8.125,10.5454545 Z M10.2779167,7.27272727 C10.5845833,7.27272727 10.8333333,7.5170909 10.8333333,7.81818181 C10.8333333,8.11927272 10.5845833,8.36363636 10.2779167,8.36363636 L4.72208334,8.36363636 C4.41541666,8.36363636 4.16666666,8.11927272 4.16666666,7.81818181 C4.16666666,7.5170909 4.41541666,7.27272727 4.72208334,7.27272727 L10.2779167,7.27272727 L10.2779167,7.27272727 Z M10,1.13490909 L10,4.36363637 L13.6995833,4.36363637 L10,1.13490909 Z" id="形状"></path>
                </g>
            </g>
        </g>
    </g>
</svg>