<?xml version="1.0" encoding="UTF-8"?>
<svg width="19px" height="18px" viewBox="0 0 19 18" version="1.1" xmlns="http://www.w3.org/2000/svg" xmlns:xlink="http://www.w3.org/1999/xlink">
    <title>编组</title>
    <g id="页面-1" stroke="none" stroke-width="1" fill="none" fill-rule="evenodd">
        <g id="文件库" transform="translate(-320.000000, -70.000000)" fill="#333333" fill-rule="nonzero" stroke="#333333" stroke-width="0.2">
            <g id="编组-7" transform="translate(312.000000, 62.000000)">
                <g id="编组" transform="translate(9.000000, 9.000000)">
                    <path d="M1.88888889,0 L5.55805556,0 C6.07683025,0 6.57273129,0.226113551 6.92938889,0.625 L7.98433333,1.804 C8.34099093,2.20288645 8.83689198,2.42889871 9.35566667,2.429 L15.1111111,2.429 C16.1543156,2.429 17,3.3244305 17,4.429 L17,14 C17,15.1045695 16.1543156,16 15.1111111,16 L1.88888889,16 C0.845684361,16 0,15.1045695 0,14 L0,2 C0,0.8954305 0.845684361,0 1.88888889,0 Z M1.88888889,1 C1.36728663,1 0.944444444,1.44771525 0.944444444,2 L0.944444444,14 C0.944444444,14.5522847 1.36728663,15 1.88888889,15 L15.1111111,15 C15.6327134,15 16.0555556,14.5522847 16.0555556,14 L16.0555556,4.429 C16.0555556,3.87671525 15.6327134,3.429 15.1111111,3.429 L9.35566667,3.429 C8.57743402,3.42871804 7.83357189,3.08951401 7.29866667,2.491 L6.24277778,1.312 C6.06459365,1.11299317 5.81704415,1.00019495 5.55805556,1 L1.88888889,1 Z" id="形状"></path>
                    <path d="M0.472222222,6 L16.5277778,6 C16.8425926,6 17,6.16666667 17,6.5 L17,6.5 C17,6.83333333 16.8425926,7 16.5277778,7 L0.472222222,7 C0.157407407,7 0,6.83333333 0,6.5 L0,6.5 C0,6.16666667 0.157407407,6 0.472222222,6 Z" id="路径"></path>
                </g>
            </g>
        </g>
    </g>
</svg>