<?xml version="1.0" encoding="UTF-8"?>
<svg width="18px" height="18px" viewBox="0 0 18 18" version="1.1" xmlns="http://www.w3.org/2000/svg" xmlns:xlink="http://www.w3.org/1999/xlink">
    <title>编组</title>
    <g id="页面-1" stroke="none" stroke-width="1" fill="none" fill-rule="evenodd">
        <g id="文件库" transform="translate(-320.000000, -110.000000)" fill="#333333" fill-rule="nonzero" stroke="#333333" stroke-width="0.3">
            <g id="编组-8" transform="translate(312.000000, 102.000000)">
                <g id="编组" transform="translate(9.000000, 9.000000)">
                    <path d="M13.9047569,0 L2.09524311,0 C0.939928146,0 0,0.939928146 0,2.09524311 L0,13.9047569 C0,15.0600719 0.939928146,16 2.09524311,16 L13.9047569,16 C15.0600719,16 16,15.0600719 16,13.9047569 L16,2.09524311 C16,0.939928146 15.0600902,0 13.9047569,0 Z M2.09524311,0.761908267 L13.9047569,0.761908267 C14.6399457,0.761908267 15.2380918,1.36003603 15.2380918,2.09524313 L15.2380918,4.54080826 C12.5500904,4.63504114 10.0379282,5.72429048 8.12871347,7.6335052 C7.23397752,8.52825946 6.51977215,9.55567647 6.00304901,10.6712788 C4.50772962,9.40270838 2.34299388,9.32137708 0.761908249,10.4274131 L0.761908249,2.09524311 C0.761908249,1.36003601 1.36003601,0.761908267 2.09524311,0.761908267 Z M0.761908267,13.9047569 L0.761908267,11.4139079 C2.13268338,10.0830837 4.32276414,10.0844582 5.69168831,11.4182879 C5.25644307,12.5876956 5.02859448,13.8379765 5.02859448,15.1238101 C5.02859448,15.1636327 5.03475206,15.2020076 5.04609591,15.2380918 L2.09524311,15.2380918 C1.36003601,15.2380918 0.761908267,14.639964 0.761908267,13.9047569 Z M13.9047569,15.2380918 L5.77300128,15.2380918 C5.78434515,15.2020076 5.79050271,15.1636327 5.79050271,15.1238101 C5.79050271,12.496285 6.81225696,10.0274823 8.66750126,8.17223801 C10.4327827,6.4069566 12.7536752,5.39704103 15.2381101,5.30317467 L15.2381101,13.9047569 C15.2381101,14.639964 14.639964,15.2380918 13.9047569,15.2380918 Z" id="形状"></path>
                    <path d="M4.42539038,6.23525922 C5.5149146,6.23525922 6.40131215,5.34887999 6.40131215,4.25933745 C6.40131215,3.16979492 5.51493292,2.28341568 4.42539038,2.28341568 C3.33584784,2.28341568 2.44946861,3.16979492 2.44946861,4.25933745 C2.44946861,5.34887999 3.33584784,6.23525922 4.42539038,6.23525922 Z M4.42539038,3.04534225 C5.09478841,3.04534225 5.6394039,3.58993942 5.6394039,4.25935577 C5.6394039,4.92877213 5.09480673,5.47336929 4.42539038,5.47336929 C3.75597403,5.47336929 3.21137686,4.92877213 3.21137686,4.25935577 C3.21137686,3.58993942 3.75597403,3.04534225 4.42539038,3.04534225 Z" id="形状"></path>
                </g>
            </g>
        </g>
    </g>
</svg>