<?xml version="1.0" encoding="UTF-8"?>
<svg width="18px" height="18px" viewBox="0 0 18 18" version="1.1" xmlns="http://www.w3.org/2000/svg" xmlns:xlink="http://www.w3.org/1999/xlink">
    <title>编组</title>
    <g id="页面-1" stroke="none" stroke-width="1" fill="none" fill-rule="evenodd">
        <g id="文件库" transform="translate(-321.000000, -230.000000)" fill="#333333" fill-rule="nonzero" stroke="#333333" stroke-width="0.2">
            <g id="编组-11" transform="translate(312.000000, 222.000000)">
                <g id="编组" transform="translate(10.000000, 9.000000)">
                    <path d="M13.4736842,2.33262836 L9.30526317,2.33262836 L11.4947368,0.776650666 C11.7052632,0.650490316 11.7473684,0.398169597 11.5789474,0.187902353 C11.4526316,-0.0223649095 11.2,-0.0644183475 10.9894737,0.103795459 L8,2.20646801 L5.01052631,0.103795459 C4.79999999,-0.0223648915 4.54736841,0.0196885646 4.42105263,0.187902353 C4.29473684,0.398169615 4.33684211,0.650490316 4.50526316,0.776650666 L6.69473683,2.33262836 L2.52631578,2.33262836 C1.13684209,2.33262836 0,3.46807155 0,4.85583544 L0,13.4767929 C0,14.8645568 1.13684211,16 2.52631578,16 L13.4736842,16 C14.8631579,16 16,14.8645568 16,13.4767929 L16,4.85583544 C16,3.46807155 14.8631579,2.33262836 13.4736842,2.33262836 Z M15.1578947,13.4767929 C15.1578947,14.4019688 14.4,15.158931 13.4736842,15.158931 L2.52631578,15.158931 C1.59999999,15.158931 0.842105254,14.4019688 0.842105254,13.4767929 L0.842105254,4.85583544 C0.842105254,3.93065951 1.59999999,3.17369739 2.52631578,3.17369739 L13.4736842,3.17369739 C14.4,3.17369739 15.1578947,3.93065951 15.1578947,4.85583544 L15.1578947,13.4767929 Z" id="形状"></path>
                    <path d="M11.1578947,8.43037879 L6.61052632,5.82306482 C6.48421053,5.73895792 6.31578947,5.69690445 6.18947369,5.69690445 C5.76842106,5.69690445 5.34736842,6.03333206 5.34736842,6.53797348 L5.34736842,11.7946549 C5.34736842,12.2992963 5.76842104,12.6357239 6.18947369,12.6357239 C6.31578947,12.6357239 6.48421053,12.5936704 6.61052632,12.5095635 L11.1578947,9.90224957 C11.7052632,9.56582196 11.7052632,8.76680638 11.1578947,8.43037879 Z M6.18947369,11.7946549 L6.18947369,6.53797348 L10.7368421,9.14528745 L6.18947369,11.7946549 L6.18947369,11.7946549 Z" id="形状"></path>
                </g>
            </g>
        </g>
    </g>
</svg>