<?xml version="1.0" encoding="UTF-8"?>
<svg width="16px" height="16px" viewBox="0 0 16 16" version="1.1" xmlns="http://www.w3.org/2000/svg" xmlns:xlink="http://www.w3.org/1999/xlink">
    <title>编组</title>
    <g id="页面-1" stroke="none" stroke-width="1" fill="none" fill-rule="evenodd">
        <g id="首页" transform="translate(-347, -234)" fill-rule="nonzero">
            <g id="编组" transform="translate(347, 234)">
                <path d="M8.00022342,0.75 C10.0022105,0.75 11.8147645,1.56137697 13.1267664,2.87341552 C14.4386054,4.18529116 15.25,5.99769788 15.25,8 C15.25,10.002458 14.4388101,11.8150068 13.1269397,13.1269139 C11.815109,14.4387811 10.002662,15.25 8.00022342,15.25 C5.99784315,15.25 4.18535268,14.4386128 2.87342674,13.1267235 C1.56137899,11.8147124 0.75,10.0021251 0.75,8 C0.75,5.99757546 1.56127414,4.18505911 2.87320831,2.87316158 C4.18515511,1.56125141 5.99773976,0.75 8.00022342,0.75 Z" id="路径" stroke="#999999" stroke-width="1.5"></path>
                <path d="M8.54313402,8.46627403 L8.53144234,11.4830202 C8.53024785,11.7912284 8.28005961,12.0404489 7.97184907,12.0404489 C7.66410285,12.0404489 7.41462525,11.7909713 7.41462525,11.4832251 C7.41462525,11.4831554 7.41462526,11.4830858 7.41462529,11.4830161 L7.4157567,8.46716302 L7.4157567,8.46716302 L4.66715573,8.46642605 C4.35401228,8.46634209 4.10020387,8.21246562 4.10020387,7.89932215 C4.10020387,7.58620327 4.35403687,7.33237026 4.66715575,7.33237026 L7.4157567,7.33237026 L7.4157567,7.33237026 L7.4157567,4.44656103 C7.4157567,4.13561455 7.66782862,3.88354263 7.9787751,3.88354263 C8.28972158,3.88354263 8.54179351,4.13561455 8.54179351,4.44656103 L8.54179351,7.33237026 L8.54179351,7.33237026 L11.1143393,7.33237026 C11.4275305,7.33237026 11.6814914,7.58613101 11.6817382,7.89932215 C11.6819848,8.21219434 11.4285517,8.46602727 11.1156795,8.46627386 C11.1155306,8.46627398 11.1153818,8.46627403 11.115233,8.46627403 L8.54313402,8.46627403 L8.54313402,8.46627403 Z" id="形状" fill="#999999"></path>
            </g>
        </g>
    </g>
</svg>