<?xml version="1.0" encoding="UTF-8"?>
<svg width="22px" height="23px" viewBox="0 0 22 23" version="1.1" xmlns="http://www.w3.org/2000/svg" xmlns:xlink="http://www.w3.org/1999/xlink">
    <title>编组 54</title>
    <g id="页面-1" stroke="none" stroke-width="1" fill="none" fill-rule="evenodd">
        <g id="首页" transform="translate(-98, -118)">
            <g id="编组-54" transform="translate(98, 118)">
                <rect id="矩形备份-18" fill="#D8D8D8" opacity="0" x="0" y="0" width="22" height="22"></rect>
                <g id="编组-53" transform="translate(0, 0.5)" stroke="#666666" stroke-width="1.5">
                    <path d="M11,1.69427191 C11.67038,1.69427191 12.34076,1.90117017 12.9103021,2.31496668 L18.6696417,6.49937188 C19.2391838,6.91316839 19.6431145,7.48680259 19.8502733,8.12437188 C20.0574322,8.76194116 20.067819,9.46344552 19.8502733,10.1329823 L17.6504013,16.9034922 C17.4328556,17.573029 17.0121186,18.1344527 16.4697697,18.5284922 C15.9274209,18.9225317 15.2634603,19.1491869 14.5594677,19.1491869 L7.44053234,19.1491869 C6.73653966,19.1491869 6.07257909,18.9225317 5.53023027,18.5284922 C4.98788144,18.1344527 4.56714436,17.573029 4.34959866,16.9034922 L2.14972666,10.1329823 C1.93218096,9.46344552 1.94256784,8.76194116 2.14972666,8.12437188 C2.35688548,7.48680259 2.76081623,6.91316839 3.33035827,6.49937188 L9.08969793,2.31496668 C9.65923997,1.90117017 10.32962,1.69427191 11,1.69427191 Z" id="多边形备份-4"></path>
                    <path d="M7.51127978,14.5 L8.89876672,15.1441092 C10.2374638,15.7655688 11.7823349,15.7638326 13.1196318,15.1393655 L14.4888336,14.5 L14.4888336,14.5" id="路径-15备份-4" stroke-linecap="round" stroke-linejoin="round"></path>
                </g>
            </g>
        </g>
    </g>
</svg>