<?xml version="1.0" encoding="UTF-8"?>
<svg width="22px" height="22px" viewBox="0 0 22 22" version="1.1" xmlns="http://www.w3.org/2000/svg" xmlns:xlink="http://www.w3.org/1999/xlink">
    <title>编组 40备份 2</title>
    <defs>
        <rect id="path-1" x="0" y="0" width="22" height="22"></rect>
    </defs>
    <g id="页面-1" stroke="none" stroke-width="1" fill="none" fill-rule="evenodd">
        <g id="首页" transform="translate(-106, -250)">
            <g id="编组-40备份-2" transform="translate(106, 250)">
                <mask id="mask-2" fill="white">
                    <use xlink:href="#path-1"></use>
                </mask>
                <use id="蒙版" fill-opacity="0" fill="#D8D8D8" xlink:href="#path-1"></use>
                <g id="编组-40" mask="url(#mask-2)" stroke="#666666" stroke-width="1.5">
                    <g transform="translate(-1, 0.3)">
                        <path d="M11.4222692,1.95542576 C11.8605497,1.93593917 12.3061122,2.08023482 12.6592746,2.39274474 L15.2588285,5.21973662 C15.5545413,5.54296862 15.9125514,5.80307818 16.3113435,5.98443359 L19.6391639,7.49779884 C20.0790619,7.69784759 20.396229,8.05726164 20.5534094,8.476638 C20.7073784,8.88744584 20.7078314,9.35579076 20.51975,9.78823904 L18.6344273,13.1341502 C18.4183957,13.515274 18.281648,13.9361401 18.2324023,14.3714559 L17.8214595,18.0040567 C17.7671377,18.484243 17.5233247,18.8969519 17.1730455,19.1760338 C16.8299231,19.4494136 16.3846406,19.594571 15.9152375,19.5493288 L12.1504901,18.7902237 C11.7212624,18.7025392 11.2787376,18.7025392 10.8495099,18.7902237 L7.26771292,19.5219293 C6.79424226,19.618652 6.3263904,19.514306 5.95272553,19.2674118 C5.58669523,19.0255619 5.31104246,18.6469292 5.20901679,18.1865198 L4.76759771,14.3714559 C4.71835202,13.9361401 4.58160433,13.515274 4.36557271,13.1341502 L2.56284327,9.95376826 C2.32454403,9.53335986 2.27920873,9.05616164 2.39855034,8.62449071 C2.51545362,8.2016395 2.79037332,7.82247419 3.19672109,7.58316767 L6.68865645,5.98443359 C7.08744864,5.80307818 7.44545874,5.54296862 7.74117155,5.21973662 L10.2088205,2.52244697 C10.5350141,2.16589759 10.9748472,1.9753188 11.4222692,1.95542576 Z" id="星形"></path>
                        <path d="M7.86528217,13.7 L8.48736376,14.1492766 C10.2753816,15.4406096 12.6983217,15.4078444 14.450767,14.0686342 L14.9331492,13.7 L14.9331492,13.7" id="路径-15备份-2" stroke-linecap="round" stroke-linejoin="round"></path>
                    </g>
                </g>
            </g>
        </g>
    </g>
</svg>