<?xml version="1.0" encoding="UTF-8"?>
<svg width="22px" height="22px" viewBox="0 0 22 22" version="1.1" xmlns="http://www.w3.org/2000/svg" xmlns:xlink="http://www.w3.org/1999/xlink">
    <title>编组 39备份 3</title>
    <defs>
        <rect id="path-1" x="0" y="0" width="22" height="22"></rect>
    </defs>
    <g id="页面-1" stroke="none" stroke-width="1" fill="none" fill-rule="evenodd">
        <g id="首页" transform="translate(-106, -206)">
            <g id="编组-39备份-3" transform="translate(106, 206)">
                <g id="编组-38">
                    <g id="矩形">
                        <mask id="mask-2" fill="white">
                            <use xlink:href="#path-1"></use>
                        </mask>
                        <use id="蒙版" fill-opacity="0" fill="#D8D8D8" xlink:href="#path-1"></use>
                        <path d="M7.1277704,4 L14.8722296,4 C16.6552671,4 17.3018396,4.18565122 17.9536914,4.53426541 C18.6055433,4.88287959 19.1171204,5.39445674 19.4657346,6.04630859 C19.8143488,6.69816044 20,7.34473292 20,9.1277704 L20,14.8722296 C20,16.6552671 19.8143488,17.3018396 19.4657346,17.9536914 C19.1171204,18.6055433 18.6055433,19.1171204 17.9536914,19.4657346 C17.3018396,19.8143488 16.6552671,20 14.8722296,20 L7.1277704,20 C5.34473292,20 4.69816044,19.8143488 4.04630859,19.4657346 C3.39445674,19.1171204 2.88287959,18.6055433 2.53426541,17.9536914 C2.18565122,17.3018396 2,16.6552671 2,14.8722296 L2,9.1277704 C2,7.34473292 2.18565122,6.69816044 2.53426541,6.04630859 C2.88287959,5.39445674 3.39445674,4.88287959 4.04630859,4.53426541 C4.69816044,4.18565122 5.34473292,4 7.1277704,4 Z" stroke="#666666" stroke-width="1.5" mask="url(#mask-2)"></path>
                    </g>
                    <line x1="6" y1="4" x2="10" y2="4" id="路径备份-2" stroke="#666666" stroke-width="1.5" stroke-linecap="round" transform="translate(8, 4) rotate(90) translate(-8, -4)"></line>
                    <line x1="13" y1="4" x2="17" y2="4" id="路径备份-3" stroke="#666666" stroke-width="1.5" stroke-linecap="round" transform="translate(15, 4) rotate(90) translate(-15, -4)"></line>
                </g>
                <line x1="6" y1="10" x2="14" y2="10" id="路径" stroke="#666666" stroke-width="1.5" stroke-linecap="round"></line>
                <line x1="6" y1="14" x2="10" y2="14" id="路径备份" stroke="#666666" stroke-width="1.5" stroke-linecap="round"></line>
            </g>
        </g>
    </g>
</svg>