<?xml version="1.0" encoding="UTF-8"?>
<svg width="20px" height="20px" viewBox="0 0 20 20" version="1.1" xmlns="http://www.w3.org/2000/svg" xmlns:xlink="http://www.w3.org/1999/xlink">
    <title>升级</title>
    <g id="页面-2" stroke="none" stroke-width="1" fill="none" fill-rule="evenodd">
        <g id="升级" transform="translate(-224, -614)" fill-rule="nonzero">
            <g transform="translate(224, 614)">
                <path d="M0,10 C0,15.5213675 4.47863248,20 10,20 C15.5213675,20 20,15.5213675 20,10 C20,4.47863248 15.5213675,0 10,0 C4.47863248,0 0,4.47863248 0,10 Z" id="路径" fill="#FF3800"></path>
                <path d="M13.8803419,8.66666667 L11.8803419,8.66666667 L11.8803419,12.4444444 C11.8803419,12.5299145 11.8119658,12.5982906 11.7264957,12.5982906 L8.5982906,12.5982906 C8.51282051,12.5982906 8.44444444,12.5299145 8.44444444,12.4444444 L8.44444444,8.66666667 L6.42735043,8.66666667 L6.39316239,8.63247863 C6.32478632,8.56410256 6.32478632,8.44444444 6.39316239,8.35897436 L10.034188,4.71794872 C10.1025641,4.64957265 10.2222222,4.64957265 10.3076923,4.71794872 L13.9316239,8.35897436 C14,8.42735043 14,8.54700855 13.9316239,8.63247863 L13.8803419,8.66666667 Z M8.46153846,13.5555556 C8.46153846,13.3162393 8.64957265,13.1282051 8.88888889,13.1282051 L11.4529915,13.1282051 C11.6923077,13.1282051 11.8632479,13.3333333 11.8632479,13.5555556 C11.8632479,13.7777778 11.6752137,13.965812 11.4529915,13.965812 L8.88888889,13.965812 C8.64957265,13.982906 8.46153846,13.7948718 8.46153846,13.5555556 Z M8.99145299,14.9401709 C8.99145299,14.7008547 9.17948718,14.5128205 9.41880342,14.5128205 L10.9230769,14.5128205 C11.1623932,14.5128205 11.3333333,14.7179487 11.3333333,14.9401709 C11.3333333,15.1623932 11.1452991,15.3504274 10.9230769,15.3504274 L9.41880342,15.3504274 C9.17948718,15.3675214 8.99145299,15.1794872 8.99145299,14.9401709 L8.99145299,14.9401709 Z" id="形状" fill="#FFFFFF"></path>
            </g>
        </g>
    </g>
</svg>