<?xml version="1.0" encoding="UTF-8"?>
<svg width="22px" height="22px" viewBox="0 0 22 22" version="1.1" xmlns="http://www.w3.org/2000/svg" xmlns:xlink="http://www.w3.org/1999/xlink">
    <title>编组 52备份</title>
    <g id="页面-1" stroke="none" stroke-width="1" fill="none" fill-rule="evenodd">
        <g id="首页" transform="translate(-23, -937)">
            <g id="编组-52备份" transform="translate(23, 937)">
                <rect id="矩形备份-17" fill="#D8D8D8" opacity="0" x="0" y="0" width="22" height="22"></rect>
                <g id="设置" transform="translate(1, 1.5)" fill="#666666" fill-rule="nonzero">
                    <path d="M19.7911046,7.49865673 C19.6742334,6.88106779 19.2970959,6.48204006 18.8303506,6.48204006 C18.8243806,6.48204006 18.8183252,6.48209693 18.8150274,6.48221064 L18.7290869,6.48221064 C17.3792554,6.48221064 16.2810478,5.38403152 16.2810478,4.03417152 C16.2810478,3.59611095 16.4923597,3.10500208 16.4941791,3.10076616 C16.7360804,2.55623942 16.549985,1.88850193 16.061719,1.54783871 L16.032153,1.52702876 L13.5512217,0.148825176 L13.5198362,0.135065591 C13.3582465,0.0648178379 13.1813904,0.0291964553 12.9941294,0.0291964553 C12.610368,0.0291964553 12.2329462,0.183224109 11.9847052,0.440960329 C11.712584,0.721837633 10.7733508,1.52358886 10.0516268,1.52358886 C9.32339266,1.52358886 8.37858735,0.706088043 8.10530053,0.420008243 C7.85575182,0.15701269 7.4753166,3.27903129e-16 7.08768884,3.27903129e-16 C6.90409514,3.27903129e-16 6.73042313,0.0343705062 6.571591,0.102116544 L6.53935265,0.115790828 L3.97088882,1.5266592 L3.94055521,1.54769657 C3.4506972,1.8880471 3.26354991,2.55518757 3.50519536,3.09943002 C3.50732752,3.1043198 3.7189521,3.59275634 3.7189521,4.03411467 C3.7189521,5.38397465 2.62077299,6.48215378 1.27091299,6.48215378 L1.18633708,6.48215378 C1.18045231,6.48204007 1.17459595,6.48195479 1.16876803,6.48195479 C0.702477569,6.48195479 0.325681212,6.88101095 0.208838536,7.49871362 C0.200309876,7.54400083 -9.83709387e-17,8.61775956 -9.83709387e-17,9.45757704 C-9.83709387e-17,10.2973661 0.200309857,11.371068 0.208866964,11.4164689 C0.32579494,12.0340863 0.702818715,12.4331424 1.16942188,12.4331424 C1.17533508,12.4331424 1.18144729,12.4330287 1.18497248,12.432915 L1.27091299,12.432915 C2.62077297,12.432915 3.7189521,13.5310941 3.7189521,14.8809257 C3.7189521,15.3195264 3.50769711,15.8100383 3.5058208,15.814331 C3.26411848,16.3584029 3.44967376,17.026112 3.93768389,17.3677133 L3.96665292,17.3878978 L6.40030702,18.7488451 L6.43123763,18.7624625 C6.59277052,18.8333926 6.76914328,18.8693551 6.95543772,18.8693551 C7.34460063,18.8693551 7.72475158,18.7086466 7.97233869,18.4394251 C8.31797698,18.0638228 9.25576039,17.2882546 9.94837315,17.2882546 C10.6982985,17.2882546 11.6600191,18.157695 11.9375418,18.4619693 C12.185669,18.7357394 12.568407,18.899376 12.9614931,18.899376 L12.9616068,18.899376 C13.1442624,18.899376 13.3174795,18.8646075 13.4765106,18.796037 L13.5080951,18.7823912 L16.0307316,17.3881253 L16.060582,17.3672869 C16.5496155,17.0265952 16.7362227,16.3593979 16.4950889,15.8164063 C16.4929568,15.8114597 16.2810479,15.3164845 16.2810479,14.8809541 C16.2810479,13.5311225 17.3792555,12.4329434 18.729087,12.4329434 L18.8124689,12.432915 C18.8180126,12.4330287 18.8235278,12.4330855 18.8290714,12.4330855 C19.2966696,12.4330571 19.6742335,12.034001 19.790934,11.41681 C19.7930094,11.4059218 20,10.3183466 20,9.45752017 C20,8.61386474 19.7996332,7.54383021 19.7911046,7.49865673 Z M6.9681454,17.4561555 L4.83927731,16.2657531 C4.93309261,16.0248184 5.12424839,15.4624383 5.12424839,14.8809825 C5.12424839,12.8618498 3.5704112,11.1925061 1.56921718,11.0389617 C1.52034795,10.7541896 1.40540999,10.0243066 1.40540999,9.45760537 C1.40540999,8.89170012 1.52029109,8.16116324 1.5691319,7.87616374 C3.5704112,7.72273309 5.12424839,6.05338937 5.12424839,4.034143 C5.12424839,3.45422232 4.93411605,2.89340585 4.84049976,2.65238582 L7.1058549,1.40816756 C7.10591178,1.40816756 7.10594018,1.40816756 7.10599706,1.40816756 C7.1876448,1.49160631 7.51434945,1.8157808 7.96543046,2.13722614 C8.70250597,2.66262023 9.40438655,2.92902725 10.0515984,2.92902725 C10.6924422,2.92902725 11.3887507,2.66779428 12.1211638,2.15254932 C12.569402,1.83727306 12.894543,1.51935292 12.9759918,1.4373356 C12.9761624,1.43730717 12.9763329,1.43725032 12.9764751,1.43722189 L15.1602393,2.65048112 C15.0665093,2.89147272 14.8756663,3.45345478 14.8756663,4.03417147 C14.8756663,6.05341782 16.429475,7.72276154 18.4307543,7.8761922 C18.4795952,8.16161813 18.5945331,8.89343431 18.5945331,9.45763384 C18.5945331,10.0241077 18.479652,10.7542465 18.4308112,11.0391039 C16.4295603,11.1925061 14.8756947,12.8618499 14.8756947,14.8811246 C14.8756947,15.4616708 15.0661397,16.0228568 15.1598413,16.2637915 L12.9487285,17.4857784 C12.8533212,17.3844295 12.5314778,17.0545123 12.0859405,16.7236286 C11.3346221,16.1657119 10.6154283,15.8828161 9.94834469,15.8828161 C9.28765755,15.8828161 8.57389372,16.1604241 7.82686809,16.7078506 C7.38778407,17.0297224 7.0637517,17.3564555 6.9681454,17.4561555 Z M13.4987704,9.44464185 C13.4987704,7.49157792 11.9097667,5.90265949 9.95664593,5.90265949 C8.00358201,5.90265949 6.41466357,7.4915779 6.41466357,9.44464185 C6.41466357,11.3977058 8.00358199,12.9866526 9.95664593,12.9866526 C11.9097951,12.9866526 13.4987704,11.3977058 13.4987704,9.44464185 Z M9.95664591,7.30809795 C11.1348239,7.30809795 12.093332,8.26654913 12.093332,9.44464185 C12.093332,10.6228198 11.1348239,11.5813279 9.95664591,11.5813279 C8.7785532,11.5813279 7.82010201,10.6228198 7.82010201,9.44464185 C7.82010201,8.2665207 8.7785532,7.30809795 9.95664591,7.30809795 Z" id="形状"></path>
                </g>
            </g>
        </g>
    </g>
</svg>