<?xml version="1.0" encoding="UTF-8"?>
<svg width="12px" height="12px" viewBox="0 0 12 12" version="1.1" xmlns="http://www.w3.org/2000/svg" xmlns:xlink="http://www.w3.org/1999/xlink">
    <title>上箭头</title>
    <g id="页面-1" stroke="none" stroke-width="1" fill="none" fill-rule="evenodd" opacity="0.665411086">
        <g id="主页黑色" transform="translate(-486.000000, -332.000000)" fill-rule="nonzero">
            <g id="编组-12" transform="translate(396.000000, 170.000000)">
                <g id="编组-10" transform="translate(20.000000, 152.000000)">
                    <g id="上箭头" transform="translate(76.000000, 16.000000) scale(1, -1) translate(-76.000000, -16.000000) translate(70.000000, 10.000000)">
                        <rect id="矩形" fill="#000000" opacity="0" x="0" y="0" width="12" height="12"></rect>
                        <path d="M6.7155,3.1875 L10.33425,7.929 C10.5419684,8.2011872 10.5772501,8.56766184 10.4252743,8.874478 C10.2732984,9.18129416 9.96039265,9.37530038 9.618,9.37500035 L2.381625,9.37500035 C2.03936752,9.37500035 1.72672265,9.18089984 1.57493463,8.87414166 C1.42314661,8.56738348 1.45848879,8.20107975 1.666125,7.929 L5.284875,3.1875 C5.45513546,2.9645217 5.71963814,2.83369413 6.0001875,2.83369413 C6.28073686,2.83369413 6.54523954,2.9645217 6.7155,3.1875 Z" id="路径" fill="#C7C7C7"></path>
                    </g>
                </g>
            </g>
        </g>
    </g>
</svg>