<?xml version="1.0" encoding="UTF-8"?>
<svg width="18px" height="18px" viewBox="0 0 18 18" version="1.1" xmlns="http://www.w3.org/2000/svg" xmlns:xlink="http://www.w3.org/1999/xlink">
    <title>编组</title>
    <defs>
        <linearGradient x1="81.2669598%" y1="5.47455125%" x2="41.5183806%" y2="94.5254488%" id="linearGradient-1">
            <stop stop-color="#FAC3AF" offset="0%"></stop>
            <stop stop-color="#F89575" offset="100%"></stop>
        </linearGradient>
    </defs>
    <g id="页面-1" stroke="none" stroke-width="1" fill="none" fill-rule="evenodd">
        <g id="主页黑色" transform="translate(-25.000000, -165.000000)" fill-rule="nonzero">
            <g id="编组-3备份" transform="translate(15.000000, 154.000000)">
                <g id="编组" transform="translate(10.000000, 11.264803)">
                    <g transform="translate(0.000000, 0.000000)" id="形状">
                        <path d="M15.750637,0 C16.9927672,0 18,0.950274902 18,2.12319875 L18,12.0322247 C18,13.2046895 16.9927672,14.1554235 15.7501737,14.1554235 L11.4766158,14.1554235 L7.16552984,16.867609 C6.95159064,17.0005442 6.68603493,17.0229416 6.45249801,16.9277472 C6.22321288,16.83708 6.05664364,16.6365317 6.01096497,16.3961442 L6.00030887,16.2786222 L6.00030887,14.1554235 L2.24982626,14.1554235 C1.09109161,14.1554235 0.121386837,13.3245068 0.0101927878,12.2360518 L0,12.0322247 L0,2.12319875 C0.000463308538,0.950733972 1.00769607,0 2.24982626,0 L15.7497104,0 L15.750637,0 Z" fill="url(#linearGradient-1)"></path>
                        <path d="M5.12592983,10.2832542 C5.48638388,10.2832542 5.68653317,10.0996262 5.82691565,9.63321108 L6.20729196,8.48232259 L8.60584026,8.48232259 L8.99131296,9.63321108 C9.12659906,10.0945764 9.33647783,10.2832542 9.70202826,10.2832542 C10.0879643,10.2832542 10.3432473,10.0550964 10.3432473,9.69793995 C10.3432473,9.55884174 10.3080358,9.39495375 10.2380762,9.18194527 L8.5154951,4.29009534 C8.30005663,3.65520153 7.99983269,3.39720419 7.43413297,3.39720419 C6.86333685,3.39720419 6.55801652,3.6602513 6.34257805,4.29009534 L4.61999691,9.18194527 C4.53521145,9.43443377 4.5,9.58868129 4.5,9.72272973 C4.5,10.0596871 4.755283,10.2827951 5.12546653,10.2827951 L5.12592983,10.2832542 Z M6.5079792,7.48522255 L7.37899925,4.74641092 L7.44386245,4.74641092 L8.31024941,7.48522255 L6.5079792,7.48522255 Z M11.9852127,10.2731547 C12.4109933,10.2731547 12.6560835,10.0055169 12.6560835,9.5487422 L12.6560835,4.12620735 C12.6560835,3.66989177 12.4058969,3.40225396 11.9805797,3.40225396 C11.5497027,3.40225396 11.3041492,3.66989177 11.3041492,4.12620735 L11.3041492,9.54920127 C11.3041492,10.0059759 11.5543358,10.2736137 11.9852127,10.2736137 L11.9852127,10.2731547 Z" fill="#FFFFFF"></path>
                    </g>
                </g>
            </g>
        </g>
    </g>
</svg>