<?xml version="1.0" encoding="UTF-8"?>
<svg width="17px" height="17px" viewBox="0 0 17 17" version="1.1" xmlns="http://www.w3.org/2000/svg" xmlns:xlink="http://www.w3.org/1999/xlink">
    <title>编组</title>
    <g id="页面-1" stroke="none" stroke-width="1" fill="none" fill-rule="evenodd">
        <g id="Mac-新UI" transform="translate(-23.9197, -916.4766)">
            <g id="编组" transform="translate(24, 917)">
                <rect id="矩形-4" x="0" y="0" width="16" height="16"></rect>
                <g id="编组-2" transform="translate(1.9197, 1.9766)" stroke="#91918E">
                    <path d="M2.84210526,2.21052632 L2.87172627,2.03773713 C2.9981875,1.3000466 3.06141812,0.93120134 3.23944982,0.665354157 C3.39639187,0.430999269 3.61622912,0.245641535 3.87373204,0.130553458 C4.16583785,0 4.54006364,0 5.28851521,0 L6.07990584,0 C6.82835741,0 7.2025832,0 7.49468902,0.130553458 C7.75219194,0.245641535 7.97202918,0.430999269 8.12897123,0.665354157 C8.30700294,0.93120134 8.37023355,1.3000466 8.49669479,2.03773713 L8.52631579,2.21052632" id="路径" stroke-linejoin="round"></path>
                    <line x1="0" y1="2.21052632" x2="11.3684211" y2="2.21052632" id="路径" stroke-linecap="round"></line>
                    <path d="M9.78947368,2.21052632 L9.45011694,7.47055583 C9.34642647,9.07775809 9.29458124,9.88135922 8.95410537,10.4810958 C8.52337428,11.2398138 7.78368875,11.7734365 6.92784314,11.9428785 C6.63932471,12 6.32095331,12 5.68421053,12 L5.68421053,12 C5.04746774,12 4.72909634,12 4.44057791,11.9428785 C3.58473231,11.7734365 2.84504677,11.2398138 2.41431568,10.4810958 C2.07383981,9.88135922 2.02199458,9.07775809 1.91830411,7.47055583 L1.57894737,2.21052632 L9.78947368,2.21052632 Z" id="路径" stroke-linecap="round" stroke-linejoin="round"></path>
                    <line x1="4.10526316" y1="9.02335435" x2="7.26315789" y2="9.02335435" id="路径" stroke-linecap="round"></line>
                    <line x1="4.10526316" y1="6.02335435" x2="7.26315789" y2="6.02335435" id="路径-2" stroke-linecap="round"></line>
                </g>
            </g>
        </g>
    </g>
</svg>