<?xml version="1.0" encoding="UTF-8"?>
<svg width="24px" height="24px" viewBox="0 0 24 24" version="1.1" xmlns="http://www.w3.org/2000/svg" xmlns:xlink="http://www.w3.org/1999/xlink">
    <title>编组 48</title>
    <g id="页面-1" stroke="none" stroke-width="1" fill="none" fill-rule="evenodd">
        <g id="首页" transform="translate(-220, -23)">
            <g id="编组-48" transform="translate(220, 23)">
                <rect id="矩形" fill-opacity="0.419453227" fill="#333333" opacity="0" x="0" y="0" width="24" height="24"></rect>
                <g id="编组-46" transform="translate(3.5, 5)" stroke="#333333">
                    <path d="M17,8.73610231 L17,9.46430555 C17,11.0645 16.8027456,11.8867379 16.432343,12.6388747 C16.0619404,13.3910115 15.5183897,13.9812928 14.8257971,14.3835399 C14.1332045,14.7857871 13.3760605,15 11.902548,15 L5.44825605,15 C3.55377873,15 2.86679547,14.7857871 2.17420288,14.3835399 C1.48161029,13.9812928 0.938059567,13.3910115 0.567656996,12.6388747 C0.197254424,11.8867379 0,11.1406928 0,9.08334185 L0,5.81489319 C0,3.87966021 0.197254424,3.11326205 0.567656996,2.3611253 C0.938059567,1.60898855 1.48161029,1.01870722 2.17420288,0.616460086 C2.86679547,0.214212949 3.57252044,0 5.35454748,0 L6.43318644,0 L6.43318644,0" id="路径" stroke-width="1.5" stroke-linecap="round"></path>
                    <path d="M6.0419045,1.07978793 L6.32417525,1.09500204 C10.3643043,1.31210132 13.7420262,4.161721 14.6803359,8.03545197 L15.8203904,6.27122489 C16.0031756,5.98883635 16.3802663,5.9080965 16.662646,6.09088738 C16.9450258,6.27367827 17.0257631,6.65078072 16.8429779,6.93316928 L15.1006251,9.62668219 C14.8194081,10.0616476 14.2502724,10.2060047 13.7957483,9.95765438 L11.0080061,8.43361996 C10.7177255,8.27018313 10.6127506,7.90375224 10.7724558,7.61139567 C10.9321609,7.31903909 11.2972076,7.2093822 11.591574,7.36533955 L13.519894,8.41768318 C12.7395,5.01354113 9.79096418,2.50023358 6.25798288,2.31090405 L5.97647468,2.29568993 C5.64052281,2.27834678 5.38282698,1.99134805 5.40089492,1.65538568 C5.41896287,1.31942331 5.70595263,1.06171942 6.0419045,1.07978793 Z" id="形状结合" stroke-width="0.5" fill="#333333" fill-rule="nonzero" transform="translate(11.1704, 5.5789) scale(-1, 1) translate(-11.1704, -5.5789)"></path>
                </g>
            </g>
        </g>
    </g>
</svg>