<?xml version="1.0" encoding="UTF-8"?>
<svg width="24px" height="24px" viewBox="0 0 24 24" version="1.1" xmlns="http://www.w3.org/2000/svg" xmlns:xlink="http://www.w3.org/1999/xlink">
    <title>编组 47</title>
    <g id="页面-1" stroke="none" stroke-width="1" fill="none" fill-rule="evenodd">
        <g id="首页" transform="translate(-260, -23)" fill="#333333">
            <g id="编组-47" transform="translate(260, 23)">
                <rect id="矩形备份-8" fill-opacity="0.419453227" opacity="0" x="0" y="0" width="24" height="24"></rect>
                <g id="通知" transform="translate(4, 4)" fill-rule="nonzero">
                    <path d="M15.4545455,12.75 L15.0681818,12.75 L15.0681818,6.95454546 C15.0681818,3.12954546 11.9386364,0 8.11363637,0 C4.28863637,0 1.15909091,3.12954546 1.15909091,6.95454546 L1.15909091,12.75 L0.77272728,12.75 C0.34772728,12.75 0,13.0977273 0,13.5227273 C0,13.9477273 0.34772728,14.2954546 0.77272728,14.2954545 L4.71363637,14.2954545 C5.06136365,15.8409091 6.45227274,17 8.11363637,17 C9.775,17 11.1659091,15.8409091 11.5136364,14.2954545 L15.4545455,14.2954545 C15.8795455,14.2954545 16.2272727,13.9477273 16.2272727,13.5227273 C16.2272727,13.0977273 15.8795455,12.75 15.4545455,12.75 Z M8.11363637,15.4545455 C7.34090909,15.4545455 6.64545454,14.9909091 6.33636365,14.2954545 L9.89090909,14.2954545 C9.58181818,14.9909091 8.88636363,15.4545455 8.11363637,15.4545455 L8.11363637,15.4545455 Z M2.70454546,12.75 L2.70454546,6.95454546 C2.70454546,3.97954546 5.13863637,1.54545454 8.11363637,1.54545454 C11.0886364,1.54545454 13.5227273,3.97954546 13.5227273,6.95454546 L13.5227273,12.75 L2.70454546,12.75 Z" id="形状"></path>
                </g>
            </g>
        </g>
    </g>
</svg>