<?xml version="1.0" encoding="UTF-8"?>
<svg width="22px" height="22px" viewBox="0 0 22 22" version="1.1" xmlns="http://www.w3.org/2000/svg" xmlns:xlink="http://www.w3.org/1999/xlink">
    <title>编组 51</title>
    <g id="页面-1" stroke="none" stroke-width="1" fill="none" fill-rule="evenodd">
        <g id="首页" transform="translate(-23, -893)">
            <g id="编组-51" transform="translate(23, 893)">
                <rect id="矩形备份-11" fill="#D8D8D8" opacity="0" x="0" y="0" width="22" height="22"></rect>
                <g id="编组-50" transform="translate(2, 1.25)" stroke="#666666">
                    <polyline id="路径" stroke-width="1.5" fill="#F1F1F1" stroke-linecap="round" points="0 4.25 0 4.25 18 4.25"></polyline>
                    <path d="M5.31595144,0.75 L12.6840486,0.75 C13.1120917,0.75 13.3863914,0.801874561 13.6231466,0.928492602 C13.8164379,1.03186594 13.9681341,1.18356211 14.0715074,1.37685344 C14.1981254,1.61360859 14.25,1.8879083 14.25,2.31595144 C14.25,3.06410424 14.2086946,3.36662886 14.0715074,3.62314656 C13.9681341,3.81643789 13.8164379,3.96813406 13.6231466,4.0715074 C13.3863914,4.19812544 13.1120917,4.25 12.6840486,4.25 L5.31595144,4.25 C4.8879083,4.25 4.61360859,4.19812544 4.37685344,4.0715074 C4.18356211,3.96813406 4.03186594,3.81643789 3.9284926,3.62314656 C3.80187456,3.38639141 3.75,3.1120917 3.75,2.68404856 C3.75,1.93589576 3.79130543,1.63337114 3.9284926,1.37685344 C4.03186594,1.18356211 4.18356211,1.03186594 4.37685344,0.928492602 C4.61360859,0.801874561 4.8879083,0.75 5.31595144,0.75 Z" id="矩形备份-13" stroke-width="1.5"></path>
                    <path d="M16.25,4.25 L16.25,13.090287 C16.25,15.1066859 16.0665611,15.8484218 15.6708083,16.5884151 C15.3059744,17.2705953 14.7705953,17.8059744 14.0884151,18.1708083 C13.3484218,18.5665611 12.6066859,18.75 10.590287,18.75 L7.409713,18.75 C5.39331407,18.75 4.65157825,18.5665611 3.91158489,18.1708083 C3.22940466,17.8059744 2.69402563,17.2705953 2.32919166,16.5884151 C1.93343888,15.8484218 1.75,15.1066859 1.75,13.090287 L1.75,4.25 L16.25,4.25 Z" id="矩形" stroke-width="1.5"></path>
                    <rect id="矩形" x="6.5" y="8.25" width="1" height="6" rx="0.5"></rect>
                    <rect id="矩形备份-16" x="11.5" y="8.25" width="1" height="6" rx="0.5"></rect>
                </g>
            </g>
        </g>
    </g>
</svg>