<?xml version="1.0" encoding="UTF-8"?>
<svg width="18px" height="18px" viewBox="0 0 18 18" version="1.1" xmlns="http://www.w3.org/2000/svg" xmlns:xlink="http://www.w3.org/1999/xlink">
    <title>编组</title>
    <g id="页面-1" stroke="none" stroke-width="1" fill="none" fill-rule="evenodd">
        <g id="主页黑色" transform="translate(-25.000000, -252.000000)" fill="#C7C7C7" fill-rule="nonzero" stroke="#C7C7C7" stroke-width="0.2">
            <g id="编组-3备份-3" transform="translate(15.000000, 242.000000)">
                <g id="编组" transform="translate(10.562500, 10.132401)">
                    <g id="编组备份" transform="translate(0.000000, -0.000000)">
                        <path d="M14.0625,-2.51443621e-16 L2.8125,-2.51443621e-16 C1.2599701,0.00187192538 0.00185969044,1.26825947 -2.49800181e-16,2.83100349 L-2.49800181e-16,14.1550175 C0.00185969044,15.7177615 1.2599701,16.984149 2.8125,16.986021 L14.0625,16.986021 C15.6150299,16.984149 16.8731403,15.7177615 16.875,14.1550175 L16.875,2.83100349 C16.8731403,1.26825947 15.6150299,0.00187192538 14.0625,-2.51443621e-16 L14.0625,-2.51443621e-16 Z M2.8125,1.1324014 L14.0625,1.1324014 C14.9939666,1.13364903 15.7487605,1.89340873 15.75,2.83100349 L15.75,9.05921118 L12.50775,9.05921118 C11.8676944,9.05736317 11.2822295,9.42184369 10.998,9.99910434 L10.495125,11.0114712 C10.4003674,11.203601 10.2053492,11.3248071 9.99225,11.3240178 L6.88275,11.3240178 C6.6696508,11.3248071 6.47463259,11.203601 6.379875,11.0114712 L5.877,9.99797193 C5.59245414,9.4211515 5.00705375,9.05715023 4.36725,9.05921118 L1.125,9.05921118 L1.125,2.83100349 C1.12623948,1.89340873 1.88103338,1.13364903 2.8125,1.1324014 Z M14.0625,15.8536196 L2.8125,15.8536196 C1.88103338,15.8523719 1.12623948,15.0926122 1.125,14.1550175 L1.125,10.1916087 L4.36725,10.1916087 C4.5803492,10.1908194 4.77536741,10.3120256 4.870125,10.5041554 L5.373,11.5176546 C5.65754586,12.094475 6.24294625,12.4584763 6.88275,12.4564154 L9.99225,12.4564154 C10.6323056,12.4582634 11.2177705,12.0937829 11.502,11.5165222 L12.004875,10.5041554 C12.0996326,10.3120256 12.2946508,10.1908194 12.50775,10.1916087 L15.75,10.1916087 L15.75,14.1550175 C15.7487605,15.0926122 14.9939666,15.8523719 14.0625,15.8536196 L14.0625,15.8536196 Z" id="形状"></path>
                    </g>
                </g>
            </g>
        </g>
    </g>
</svg>