<?xml version="1.0" encoding="UTF-8"?>
<svg width="70px" height="70px" viewBox="0 0 70 70" version="1.1" xmlns="http://www.w3.org/2000/svg" xmlns:xlink="http://www.w3.org/1999/xlink">
    <title>编组 2</title>
    <g id="页面-1" stroke="none" stroke-width="1" fill="none" fill-rule="evenodd">
        <g id="登录" transform="translate(-685, -223)">
            <g id="编组-2" transform="translate(685, 223)">
                <path d="M12.819426,0 L57.180574,9.06834139e-16 C61.6381677,-5.2689675e-16 63.2545989,0.464128056 64.8842285,1.33566352 C66.5138581,2.20719898 67.792801,3.48614185 68.6643365,5.11577148 C69.5358719,6.74540111 70,8.3618323 70,12.819426 L70,57.180574 C70,61.6381677 69.5358719,63.2545989 68.6643365,64.8842285 C67.792801,66.5138581 66.5138581,67.792801 64.8842285,68.6643365 C63.2545989,69.5358719 61.6381677,70 57.180574,70 L12.819426,70 C8.3618323,70 6.74540111,69.5358719 5.11577148,68.6643365 C3.48614185,67.792801 2.20719898,66.5138581 1.33566352,64.8842285 C0.464128056,63.2545989 0,61.6381677 0,57.180574 L0,12.819426 C0,8.3618323 0.464128056,6.74540111 1.33566352,5.11577148 C2.20719898,3.48614185 3.48614185,2.20719898 5.11577148,1.33566352 C6.74540111,0.464128056 8.3618323,0 12.819426,0 Z" id="矩形"></path>
                <g id="编组备份" transform="translate(10.455, 7.7273)" fill="#FF3800">
                    <path d="M30.8085834,0.052011997 C31.5936221,-0.212718678 32.0478547,0.609505337 31.9953663,0.803583957 C32.0158182,0.879241724 30.2799801,7.48149033 30.2357868,7.52411039 C30.1323831,7.89195874 29.6110739,8.2409284 29.3145927,8.41384001 C29.1863035,8.48849664 29.042139,8.5304016 28.8941129,8.53855376 L24.7379414,8.77010371 L29.1562692,8.83103039 C29.1562692,8.83103039 30.2197686,8.87508065 30.8237435,9.39095507 L30.8570323,9.42341712 C31.2721378,9.83202624 35.4518793,13.9907236 39.6713939,18.1962151 L40.5748269,19.0967584 C42.3774807,20.8938793 44.1385712,22.6510095 45.5648877,24.0766361 L46.8687533,25.3809647 C48.0393081,26.5531986 48.7773521,27.2967579 48.7896743,27.3201297 C49.335583,27.99018 49.0584096,29.0751324 48.8887875,29.5685527 C48.8330095,29.7307377 48.7407614,29.8773336 48.6206243,29.999616 L44.7972612,33.8930591 C44.7972612,33.8930591 43.8843622,35.0006087 42.5089355,35.1103053 C41.4000987,35.1985489 39.4684658,34.1001526 38.7613732,33.6710915 C38.570441,33.555245 38.3702125,33.456418 38.1616888,33.3761835 L35.8386092,32.4810191 L9.14557639,23.6077503 L24.7857102,29.7949539 C25.0352807,29.8934949 25.23365,30.0881456 25.3363386,30.3358569 C25.4367259,30.5777693 25.5815158,30.9267084 25.7630089,31.3641282 L25.9273833,31.7602957 C26.8789037,34.0536367 28.5972396,38.1956516 30.2756814,42.2432267 L30.5802335,42.9776762 C32.7065065,48.1054825 34.6889618,52.889553 34.8644809,53.3239495 L34.8770834,53.355984 C35.0661563,54.0460572 34.4258542,54.4008907 34.18558,54.5074408 C34.1328055,54.5308962 34.0774566,54.5427669 34.0198194,54.5429099 C33.9986677,54.5429354 33.9734764,54.5429661 33.9445582,54.5430012 L33.0890742,54.5439736 C33.0266911,54.5440387 32.9624575,54.5441044 32.896686,54.54417 L32.0536227,54.5449101 C31.9805515,54.5449644 31.9071932,54.545016 31.8338607,54.5450642 L30.0880909,54.5450748 C30.0405505,54.5450097 29.9958501,54.5449355 29.9543026,54.5448513 L29.7453529,54.5442227 C29.6622968,54.5438439 29.6132448,54.5433645 29.6066403,54.5427669 C29.0865083,54.5450411 28.8103935,54.0032085 28.737746,53.836437 L28.7180549,53.7881915 L19.9203371,29.155 L19.9282224,29.1815523 C20.2303192,30.2027956 26.9538448,52.931749 27.1203964,53.4916957 L27.1235209,53.5021508 C27.257388,54.1531794 26.8892536,54.4423666 26.7219198,54.5001468 C26.6923903,54.5134726 26.1486927,54.5189597 25.3958333,54.5200663 L24.9214583,54.5202323 C23.2728106,54.5192179 21.0315207,54.5034483 20.6376386,54.5005895 L20.5773363,54.5001468 C20.4218732,54.5001468 20.25883,54.522458 20.1049401,54.5001468 L19.5920691,54.4259192 C19.3825443,54.3954559 19.1803135,54.3263771 18.9961033,54.2221152 L2.46323639,44.8721596 L1.61426757,44.1449011 C1.06492639,43.567814 0.647736015,42.8780268 0.391586561,42.1237374 C0.391586561,42.1237374 0.0713639888,41.2966507 0.0288869437,40.6604962 C0.0123214557,40.5937865 0.00440748259,38.3500443 0.00113072136,35.4517976 L0.000405816541,34.7144816 C0.000300326138,34.5896167 0.000202305677,34.4638358 0.000111464771,34.337249 L0.000276584539,27.7237229 C0.00034592683,27.6015656 0.000417512107,27.4804747 0.000491049983,27.3605604 L0.0011977706,26.3160727 C0.00128041059,26.2042091 0.00136413202,26.0938524 0.0014486445,25.9851129 L0.00222277483,25.0530931 C0.00230942016,24.9550476 0.00239598537,24.8589495 0.00248218009,24.7649092 L0.00324008884,23.9770766 C0.00332144712,23.8963735 0.00340156375,23.8180585 0.00348014835,23.7422417 L0.00433104085,22.9594028 C0.00439272294,22.9053338 0.00445171145,22.8542037 0.00450771599,22.8061224 L0.00514556494,22.2823807 C0.00471650388,21.9578675 0.0401855517,21.6342125 0.110837607,21.3175654 L0.424338222,19.9135346 C0.632289817,19.1533814 0.946934596,18.4667407 1.42247727,17.8381662 L2.41117698,16.6482369 C2.75514093,16.234336 3.14458536,15.8604808 3.57221621,15.5336793 L17.6954762,4.738789 C17.8715342,4.60477893 18.0796288,4.51939577 18.2990221,4.49122076 L22.3944099,3.99965981 L20.1515647,5.72019467 C19.991811,5.84276311 19.8455012,5.98177889 19.7150666,6.13509671 L7.02973327,21.0308096 L6.444637,21.7157341 C6.27415674,21.9152475 6.13042129,22.1360709 6.01714916,22.3727696 L5.76242991,22.9050913 C5.70536479,23.0243703 5.6597413,23.148655 5.62641756,23.2766582 L1.34338702,39.6869567 L6.50828106,23.8058335 C6.57807499,23.5944494 6.68691348,23.3980825 6.82907571,23.2271732 L19.851651,6.84390559 C19.9474747,6.72047902 20.048018,6.60477556 20.1502775,6.48678376 C20.2629776,6.35649222 20.3799682,6.22934713 20.5006774,6.10649264 L20.6389781,5.96604665 C20.7638348,5.81587528 22.47207,4.46747939 22.47207,4.46747939 C22.6795925,4.30000255 22.8693805,4.14511151 23.0930643,4.00938519 C24.0368686,3.43645866 26.8673301,1.99656756 28.8243402,1.02104184 L29.2293245,0.819593426 C30.1383991,0.368395773 30.7798233,0.0570632158 30.8085834,0.052011997 Z M29.1614036,15.2344378 C28.053711,15.2344378 27.1559722,16.1323196 27.1559722,17.2398692 C27.1559722,18.3474188 28.053711,19.2453006 29.1614036,19.2453006 C30.2690963,19.2453006 31.166835,18.3474188 31.166835,17.2398692 C31.166835,16.1323196 30.2690963,15.2344378 29.1614036,15.2344378 Z" id="形状结合"></path>
                </g>
            </g>
        </g>
    </g>
</svg>