<?xml version="1.0" encoding="UTF-8"?>
<svg width="18px" height="19px" viewBox="0 0 18 19" version="1.1" xmlns="http://www.w3.org/2000/svg" xmlns:xlink="http://www.w3.org/1999/xlink">
    <title>编组</title>
    <g id="页面-1" stroke="none" stroke-width="1" fill="none" fill-rule="evenodd">
        <g id="主页黑色" transform="translate(-25.000000, -207.000000)" fill="#C7C7C7" fill-rule="nonzero">
            <g id="编组-3备份-2" transform="translate(15.000000, 198.000000)">
                <g id="编组" transform="translate(10.562500, 9.566201)">
                    <g transform="translate(0.000000, 0.000000)">
                        <path d="M15.5222135,1.39372485 L1.3497577,1.39372485 C0.604307107,1.39372485 0,2.0177167 0,2.78744965 L0,16.7246976 C0,17.4944305 0.604307114,18.1184224 1.3497577,18.1184224 L15.5222135,18.1184224 C16.2676641,18.1184224 16.8719712,17.4944305 16.8719712,16.7246976 L16.8719712,2.78744965 C16.8719712,2.0177167 16.2676641,1.39372485 15.5222135,1.39372485 L15.5222135,1.39372485 Z M1.3497577,2.78744965 L15.5222135,2.78744965 L15.5222135,16.7246976 L1.3497577,16.7246976 L1.3497577,2.78744965 Z" id="形状"></path>
                        <path d="M16.1970923,6.01914188 C16.561132,6.01746662 16.8608574,6.31422081 16.8745164,6.68985779 C16.8881755,7.06549477 16.6108451,7.38462141 16.2477082,7.41113165 L16.1970923,7.4128738 L0.67487886,7.4128738 C0.312628566,7.41198912 0.0156668954,7.11595431 0.00207164874,6.74216652 C-0.0115235979,6.36837873 0.26309737,6.05017812 0.624262947,6.02123959 L0.67487886,6.01914188 L16.1970923,6.01914188 L16.1970923,6.01914188 Z M4.72415194,3.55074619e-08 C5.0773244,-0.000115339038 5.37085567,0.280948142 5.39734359,0.644597781 L5.39903767,0.69686246 L5.39903767,3.48431204 C5.40065993,3.86020982 5.11326733,4.16969829 4.74948049,4.18380231 C4.38569365,4.19790632 4.07663438,3.91154228 4.05096029,3.53657672 L4.04927308,3.48431204 L4.04927308,0.69686246 C4.04927308,0.51204306 4.12037619,0.334793381 4.24694052,0.204106332 C4.37350486,0.0734192827 4.54516294,3.55074619e-08 4.72415194,3.55074619e-08 L4.72415194,3.55074619e-08 Z M12.1478192,3.55074619e-08 C12.5009917,-0.000115339038 12.794523,0.280948142 12.8210109,0.644597781 L12.822705,0.69686246 L12.822705,3.48431204 C12.8243274,3.86020994 12.5369348,4.1696986 12.1731478,4.18380261 C11.8093609,4.19790663 11.5003015,3.91154241 11.4746276,3.53657672 L11.4729404,3.48431204 L11.4729404,0.69686246 C11.4729404,0.31199599 11.775094,3.55074619e-08 12.1478192,3.55074619e-08 L12.1478192,3.55074619e-08 Z" id="形状"></path>
                        <path d="M9.11086443,14.6341104 L7.76110675,14.6341104 L7.76110675,9.40764242 L8.43598559,9.40764242 C8.80871088,9.40764242 9.11086443,9.71963834 9.11086443,10.1045048 L9.11086443,14.6341104 L9.11086443,14.6341104 Z" id="路径"></path>
                    </g>
                </g>
            </g>
        </g>
    </g>
</svg>


