<?xml version="1.0" encoding="UTF-8"?>
<svg width="22px" height="22px" viewBox="0 0 22 22" version="1.1" xmlns="http://www.w3.org/2000/svg" xmlns:xlink="http://www.w3.org/1999/xlink">
    <title>编组 49备份</title>
    <g id="页面-1" stroke="none" stroke-width="1" fill="none" fill-rule="evenodd">
        <g id="首页" transform="translate(-23, -849)">
            <g id="编组-49备份" transform="translate(23, 849)">
                <rect id="矩形" fill="#D8D8D8" opacity="0" x="0" y="0" width="22" height="22"></rect>
                <path d="M6.00103099,1.75 C6.7119092,1.75 7.26654033,1.80575491 7.767816,1.94451377 C8.23273059,2.07320746 8.64074725,2.27459078 9.0256721,2.56534929 C9.44070201,2.87884809 9.82229833,3.2851836 10.2546716,3.84945411 C10.8836665,4.67032664 11.3571984,5.15707756 11.8628526,5.53903077 C12.40199,5.94627592 12.9734705,6.22833948 13.6246439,6.40859175 C14.2394562,6.57877886 14.9185948,6.657469 15.7915977,6.657469 L16.6249242,6.657469 C17.3854986,6.657469 18.0530907,6.8075764 18.6025631,7.10303331 C19.1194041,7.38094397 19.526525,7.78806488 19.8044357,8.30490591 C20.0998926,8.85437835 20.25,9.52197039 20.25,10.2825448 L20.25,14.7091086 C20.25,16.5907341 20.0652874,17.3508033 19.6708083,18.0884151 C19.3059744,18.7705953 18.7705953,19.3059744 18.0884151,19.6708083 C17.3508033,20.0652874 16.5907341,20.25 14.7091086,20.25 L7.409713,20.25 C5.39331407,20.25 4.65157825,20.0665611 3.91158489,19.6708083 C3.22940466,19.3059744 2.69402563,18.7705953 2.32919166,18.0884151 C1.93343888,17.3484218 1.75,16.6066859 1.75,14.590287 L1.75,5.00806805 C1.75,4.1083774 2.11467169,3.29386039 2.70426604,2.70426604 C3.29386039,2.11467169 4.1083774,1.75 5.00806805,1.75 Z" id="矩形" stroke="#666666" stroke-width="1.5"></path>
                <path d="M9.90565545,3.5 C11.537732,3.5 13.9858469,3.5 17.25,3.5 C18.9068542,3.5 20.25,4.84314575 20.25,6.5 L20.25,14.5" id="路径" stroke="#666666" stroke-width="1.5"></path>
                <rect id="矩形" stroke="#666666" fill="#D8D8D8" x="5.5" y="14.5" width="7" height="1" rx="0.5"></rect>
            </g>
        </g>
    </g>
</svg>