<?xml version="1.0" encoding="UTF-8"?>
<svg width="18px" height="19px" viewBox="0 0 18 19" version="1.1" xmlns="http://www.w3.org/2000/svg" xmlns:xlink="http://www.w3.org/1999/xlink">
    <title>编组</title>
    <g id="页面-1" stroke="none" stroke-width="1" fill="none" fill-rule="evenodd">
        <g id="主页黑色" transform="translate(-25.000000, -119.000000)" fill-rule="nonzero">
            <g id="编组-3" transform="translate(15.000000, 110.000000)">
                <g id="编组" transform="translate(10.000000, 9.566201)">
                    <path d="M17.2014933,4.97199891 L11.4520067,0.789386526 C10.7479111,0.276661671 9.88705827,-0.000693051536 9.00191917,1.30054998e-06 C8.13695217,1.30054998e-06 7.27589902,0.261883532 6.5518316,0.789386526 L0.798431091,4.97199891 C0.293540842,5.33863219 1.77635684e-15,5.90728791 1.77635684e-15,6.51335518 L1.77635684e-15,14.5718052 C1.77635684e-15,16.5321709 1.6633981,18.1184211 3.71035624,18.1184211 L14.2895682,18.1184211 C16.3404402,18.1184211 17.9999626,16.5284298 17.9999626,14.5718052 L17.9999626,6.51335518 C18.0038383,5.90728791 17.7063836,5.33863221 17.2014933,4.97199891 Z" id="形状" fill="#C7C7C7"></path>
                    <path d="M8.99800529,8.29402919 C6.91582224,8.29402919 5.22111313,10.0151949 5.22111313,12.1298835 L5.22111313,14.7970941 C5.22111313,15.2343417 5.57336214,15.5920898 6.0038887,15.5920898 C6.43441526,15.5920898 6.78666427,15.2343417 6.78666427,14.7970941 L6.78666427,12.1298835 C6.78666427,10.8936652 7.77687539,9.88402061 8.99800529,9.88402061 C10.2191352,9.88402061 11.2093463,10.8896902 11.2093463,12.1298835 L11.2093463,14.7970941 C11.2093463,15.2343417 11.5615953,15.5920898 11.9921219,15.5920898 C12.4226484,15.5920898 12.7748974,15.2343417 12.7748974,14.7970941 L12.7748974,12.1298835 C12.7748974,10.0151949 11.0841022,8.29402919 8.99800529,8.29402919 Z" id="路径" fill="#2C2C2C"></path>
                </g>
            </g>
        </g>
    </g>
</svg>