<?xml version="1.0" encoding="UTF-8"?>
<svg width="18px" height="12px" viewBox="0 0 18 12" version="1.1" xmlns="http://www.w3.org/2000/svg" xmlns:xlink="http://www.w3.org/1999/xlink">
    <title>编组</title>
    <g id="页面-1" stroke="none" stroke-width="1" fill="none" fill-rule="evenodd">
        <g id="文件库" transform="translate(-321.000000, -367.000000)" fill-rule="nonzero">
            <g id="编组-13" transform="translate(312.000000, 356.000000)">
                <g id="编组" transform="translate(9.000000, 11.000000)">
                    <path d="M2.98717949,11.6720064 C2.52051282,11.5599371 2.41025641,11.5233928 2.13846154,11.399142 C1.71794873,11.2066752 1.44615385,11.019081 1.04871795,10.6463288 C0.441025645,10.0738009 0,9.14801106 0,8.4366147 C0,8.26363818 0.00256410216,8.25876561 0.0641025687,8.25876561 C0.128205137,8.25876561 0.128205137,8.26120189 0.128205137,8.4609776 C0.128205137,8.82642093 0.194871808,9.09441272 0.39230769,9.5134544 C0.748717949,10.2735766 1.41538461,10.9313746 2.1923077,11.2919453 C2.50256411,11.4356864 2.88461539,11.5575008 3.18717949,11.6086629 C3.39743589,11.6452072 3.43589744,11.6573887 3.43589744,11.6963693 C3.43589744,11.7597128 3.33333334,11.7548402 2.98717949,11.6720064 Z M6.51282052,11.7085507 C6.51282052,11.6890604 6.55384616,11.6354621 6.60512821,11.5867363 C6.6948718,11.5014662 6.6948718,11.5014662 6.65384615,11.4235049 C6.63076923,11.382088 6.57692307,11.3357985 6.53589744,11.3211808 C6.45128205,11.289509 6.43333334,11.2066752 6.51025642,11.2066752 C6.61282052,11.2066752 6.6897436,11.255401 6.75641026,11.3625977 C6.83333333,11.4892847 6.82820513,11.5355742 6.71282052,11.659825 C6.63333334,11.7450951 6.51282052,11.7743305 6.51282052,11.7085507 L6.51282052,11.7085507 Z" id="形状" fill="#E7B15B"></path>
                    <path d="M3.28461538,11.2675824 C2.83076923,11.1993663 2.47948717,11.0848608 2.08205128,10.8753399 C1.76923077,10.7096723 1.30769231,10.3393564 1.30769231,10.2540862 C1.30769231,10.2248508 1.28974359,10.2077967 1.26153847,10.2077967 C1.21538463,10.2077967 1.18205129,10.1688161 1.01538462,9.93493239 C0.974358983,9.87646145 0.910256415,9.78631876 0.871794867,9.73272041 C0.805128196,9.64257772 0.764102562,9.5597439 0.658974359,9.31855129 C0.617948724,9.22353602 0.553846155,9.00427001 0.484615382,8.70947906 C0.458974361,8.6120275 0.448717952,8.40494295 0.448717952,8.07604394 C0.451282054,7.60827647 0.453846156,7.5766047 0.533333338,7.29155891 C0.576923075,7.13076384 0.638461541,6.93829702 0.666666665,6.86520835 C0.751282051,6.66543266 0.943589743,6.34140623 1.1,6.13919425 C1.26153847,5.9321097 1.64358975,5.56910265 1.75128206,5.52281315 C1.78974359,5.50819542 1.82051283,5.48626882 1.82051283,5.47895994 C1.82051283,5.41805271 2.71538463,4.99413845 2.83846153,4.99413845 C2.86153845,4.99413845 2.87179486,5.01362876 2.86666667,5.0477368 C2.86153847,5.08915371 2.81282051,5.11595289 2.65384615,5.17686012 C2.05897436,5.39612612 1.57948718,5.73720657 1.21538462,6.20010146 C0.620512826,6.95535102 0.42307693,7.80074329 0.61282052,8.76795 C0.646153848,8.93361764 0.784615394,9.33560531 0.85128205,9.46229234 C1.07692307,9.88377033 1.43076923,10.2760128 1.87179487,10.597603 C1.93589744,10.6438925 1.99230769,10.6877457 2,10.6974908 C2.04102563,10.7486529 2.56923076,10.9776641 2.80769231,11.0458801 C3.24615385,11.1725672 3.31794871,11.1847486 3.75128205,11.1993663 C4.12051282,11.2139841 4.15384615,11.2188566 4.15384615,11.2578373 C4.15384615,11.3016905 4.12820513,11.3041268 3.82820513,11.3016905 C3.64615385,11.2992542 3.4025641,11.2846365 3.28461538,11.2675824 L3.28461538,11.2675824 Z M4.38461539,11.2612207 C4.38461539,11.2094025 4.4025641,11.2066752 4.87179487,11.2066752 C5.34102564,11.2066752 5.35897436,11.2094025 5.35897436,11.2612207 C5.35897436,11.3130388 5.34102564,11.3157661 4.87179487,11.3157661 C4.4025641,11.3157661 4.38461539,11.3130388 4.38461539,11.2612207 Z M6.07692308,11.2612207 C6.07692308,11.2121298 6.09487179,11.2066752 6.24358975,11.2066752 C6.3923077,11.2066752 6.4102564,11.2121298 6.4102564,11.2612207 C6.4102564,11.3103116 6.39230769,11.3157661 6.24358975,11.3157661 C6.09487181,11.3157661 6.07692308,11.3103116 6.07692308,11.2612207 Z M6.77692307,10.7462166 C6.38717949,10.5610586 6.01025641,10.0811097 5.93333333,9.67668576 C5.84871794,9.23815375 5.84102564,9.09684901 5.85384616,8.48046791 C5.87179488,7.54249666 5.97692308,6.98945908 6.32564103,6.01737979 C6.84615386,4.55317016 7.42820514,3.60545376 8.24615385,2.87943966 C8.5,2.65286478 8.99230769,2.32396579 9.25384616,2.20702392 C9.40512822,2.13880783 9.44615385,2.13149896 9.66666667,2.13149896 C9.88717948,2.13149896 9.92564103,2.13880783 10.0769231,2.20702392 C10.3461538,2.33127465 10.5820513,2.50668746 11.0692308,2.94278318 C11.8948718,3.68828758 12.3435897,4.16092764 12.951282,4.93323122 C13.0358974,5.04042793 13.1358974,5.16467868 13.174359,5.21096816 C13.3307692,5.39856241 13.9333333,6.25126354 14.1358974,6.56798109 C14.2128205,6.68979553 14.2307692,6.7409576 14.2307692,6.84328175 L14.2307692,6.96996877 L14.1384615,6.9626599 C14.0769231,6.95778733 14.0333333,6.93829702 14.0153846,6.90662525 C14,6.87982608 13.9538461,6.8091737 13.9102564,6.74826647 C13.8692308,6.68735924 13.8128205,6.60452542 13.7897436,6.56067222 C13.7230769,6.44616665 13.451282,6.08559589 13.3897436,6.03443381 C13.3384615,5.99058062 13.3384615,5.99058062 13.3230769,6.0368701 C13.3128205,6.06366928 13.2589744,6.1050862 13.1974359,6.12701281 C13.1384615,6.1489394 13.0564103,6.19766519 13.0128205,6.23664581 C12.9128205,6.32435221 12.8410256,6.35846025 12.7512821,6.35846025 C12.674359,6.35846025 12.4538462,6.49245614 12.3794872,6.58259884 C12.3564103,6.6118343 12.2948718,6.64837864 12.2410256,6.66299637 C12.1692308,6.68248668 12.1153846,6.7239036 12.025641,6.83110029 C11.9615385,6.91149783 11.8923077,6.98215021 11.8717949,6.98702279 C11.8512821,6.99433166 11.7846154,7.03087598 11.725641,7.06742033 C11.6589744,7.11127352 11.5846154,7.13807271 11.5307692,7.13807271 C11.4615385,7.13807271 11.4051282,7.16487188 11.2974359,7.25014199 C11.2179487,7.31104922 11.1538461,7.37439272 11.1538462,7.39144676 C11.1538462,7.4255548 10.9820513,7.50351604 10.9076923,7.50351604 C10.8358974,7.50351604 10.7128205,7.579041 10.548718,7.72521833 C10.4128205,7.84459648 10.3717949,7.86895938 10.2948718,7.86895938 C10.1948718,7.86895938 10.0871795,7.9323029 9.96666666,8.05898992 C9.92051282,8.10527941 9.86666666,8.13695116 9.83076923,8.13695116 C9.7897436,8.13695116 9.72307693,8.18080436 9.63333334,8.26851077 C9.56153846,8.33916316 9.45897436,8.41225183 9.4102564,8.42686954 C9.36153845,8.44148726 9.27948718,8.49508564 9.22564102,8.54381142 C9.14358974,8.61933638 9.12051282,8.62908153 9.03333333,8.61933637 C8.94615384,8.60715492 8.92564102,8.61690008 8.84102564,8.70460648 C8.78717948,8.76064113 8.74358974,8.82885721 8.74358974,8.85809269 C8.74358974,8.91412734 8.7,8.94092651 8.61282051,8.94092651 C8.58461539,8.94092651 8.50769231,8.96772568 8.44102564,9.00427003 C8.14871795,9.15288366 8.02564103,9.24059006 8.02564103,9.29662469 C8.02564103,9.35265933 7.90512822,9.40869398 7.8,9.40138512 C7.69487178,9.39407625 7.62564102,9.44036573 7.52820512,9.57679792 C7.5051282,9.61334225 7.44102564,9.65232288 7.38461539,9.6693769 C7.31282051,9.68886721 7.24615386,9.74002928 7.15128205,9.8447897 C7.07692307,9.92275095 6.98974358,9.99583962 6.95641025,10.0031485 C6.92307693,10.0128936 6.89743589,10.0323839 6.8974359,10.049438 C6.8974359,10.0981638 6.72307693,10.2321596 6.66153846,10.2321596 C6.6102564,10.2321596 6.61538462,10.2419048 6.70512821,10.3296112 C6.76153847,10.3832096 6.85384617,10.4489894 6.91025641,10.4757885 C7.05641027,10.5415683 7.12820513,10.6268384 7.12820513,10.7315989 C7.12820513,10.816869 7.12820513,10.816869 7.02051282,10.8144327 C6.95641025,10.8119964 6.85384615,10.7851972 6.77692307,10.7462166 L6.77692307,10.7462166 Z" id="形状" fill="#E7B15B"></path>
                    <path d="M0,7.63263935 C0,7.50351604 0.0871794882,7.10396465 0.148717955,6.9431696 C0.264102567,6.65081493 0.312820523,6.54605451 0.430769237,6.34140623 C0.574358987,6.09534104 0.700000008,5.91749195 0.756410255,5.87120247 C0.776923073,5.85414845 0.794871788,5.82734927 0.794871803,5.81273153 C0.794871803,5.76644203 1.32307694,5.28649312 1.53846155,5.1354432 C1.72307693,5.00631989 2.17435899,4.75050956 2.22051283,4.75050956 C2.28205129,4.74807327 2.31025642,4.69691119 2.33589744,4.55317016 C2.3948718,4.19259939 2.5923077,3.7297045 2.82051282,3.41055065 C2.94871794,3.23270155 3.26410257,2.92572916 3.46153846,2.78686068 C3.90512821,2.47745199 4.47692308,2.27767629 4.96153846,2.26305856 C5.17179487,2.25574969 5.19487179,2.23869567 5.30512821,2.0121208 C5.46923078,1.67591292 5.73589745,1.3275236 6.05641026,1.03273265 C6.27179487,0.83295696 6.56153846,0.608818372 6.6025641,0.608818386 C6.61538461,0.608818386 6.64871794,0.586891789 6.67948718,0.560092601 C6.75897436,0.489440219 7.21282051,0.282355665 7.47435898,0.199521841 C7.91282052,0.058217077 8.19743591,0.00461872899 8.50769231,0.00218244044 C8.67692308,-0.000253848102 8.6923077,0.00461872899 8.6923077,0.0484719228 C8.6923077,0.0923251166 8.67435898,0.0971977077 8.48205129,0.0971977077 C8.36410258,0.0971977077 8.22820513,0.10937915 8.17948718,0.121560593 C8.13076922,0.133742036 7.97948718,0.170286378 7.84358975,0.201958129 C7.45897437,0.296973396 6.92307693,0.521111984 6.67948718,0.689215922 C6.46666667,0.837829551 6.23333333,1.0254238 6.08974359,1.16916484 C5.82307692,1.43472033 5.78461539,1.47370095 5.74358974,1.54191704 C5.72307692,1.57602508 5.66410256,1.65642261 5.61538462,1.72220242 C5.56666666,1.78554594 5.46923076,1.9487773 5.3974359,2.08277318 L5.26923077,2.32640208 L5.15384615,2.33371094 C4.58717949,2.3629464 3.97948717,2.5651584 3.56923077,2.86238564 C3.46666667,2.93547431 3.35897436,2.99638154 3.33076924,2.99638152 C3.30512822,2.99638152 3.28205128,3.01343554 3.28205128,3.03536215 C3.28205128,3.05485246 3.21025641,3.14986773 3.12564102,3.24731929 C2.78205127,3.62494407 2.56410256,4.02936803 2.47179488,4.46302747 C2.43846155,4.62382254 2.3948718,4.76999986 2.37435897,4.78949019 C2.35384615,4.80654421 2.23333332,4.8747603 2.10256411,4.9381038 C1.81794873,5.07940857 1.44358975,5.34252777 1.18717949,5.58128408 C0.641025643,6.09046847 0.22051283,6.84815431 0.148717955,7.44260882 C0.115384627,7.72034575 0.115384627,7.72278204 0.0512820579,7.72278204 C0.0102564233,7.72278204 0,7.70816431 0,7.63263935 L0,7.63263935 Z" id="路径" fill="#E7B15B"></path>
                    <path d="M2.7948718,4.74320069 C2.7948718,4.56778789 2.86153847,4.29735982 2.96410257,4.05129463 C3.03076924,3.89049956 3.14615385,3.69803274 3.18717949,3.68341501 C3.1974359,3.67854243 3.2051282,3.66148841 3.2051282,3.64687068 C3.2051282,3.61276264 3.58205128,3.21564753 3.61538462,3.21564753 C3.62564103,3.21564753 3.67179488,3.18397578 3.71794872,3.14255886 C3.76410256,3.10357825 3.81538462,3.06947019 3.83589744,3.06947019 C3.85641025,3.06947019 3.87179487,3.05972504 3.87179487,3.0475436 C3.87179487,2.9793275 4.58205128,2.72838974 4.77948718,2.72838974 C4.93846154,2.72838974 4.89230769,2.79173326 4.7,2.83802275 C4.33076923,2.92572916 4.02820513,3.05728875 3.7897436,3.23270155 C3.64615385,3.33746198 3.27692309,3.70290531 3.25897436,3.75893996 C3.25384616,3.77599398 3.21794873,3.8393375 3.17692308,3.90024473 C3.08461539,4.0391132 2.93589743,4.45328231 2.91282051,4.6311314 C2.88205129,4.8503974 2.86923078,4.8966869 2.83076923,4.8966869 C2.8025641,4.8966869 2.7948718,4.86014257 2.7948718,4.74320069 L2.7948718,4.74320069 Z M5.38461539,2.80147841 C5.34871796,2.79173326 5.23076923,2.78686068 5.12307693,2.79416955 C4.93333334,2.80878728 4.92307693,2.80635099 4.92307693,2.75762522 C4.92307693,2.71377202 4.94358975,2.70646314 5.11025642,2.69184541 C5.21538462,2.68210026 5.34358974,2.68697284 5.41025641,2.70159057 C5.5948718,2.74300747 5.5974359,2.74057118 5.66410257,2.5651584 C5.81282053,2.17291588 6.04358975,1.79772738 6.3025641,1.53217188 C6.4076923,1.42741146 6.5102564,1.33970506 6.53333334,1.33970506 C6.55897436,1.33970506 6.5897436,1.31534218 6.6025641,1.2861067 C6.61794871,1.25687124 6.65128205,1.22276318 6.67948718,1.20814545 C6.7076923,1.19352772 6.74102564,1.16672855 6.75128205,1.15211082 C6.76153846,1.1350568 6.78717948,1.12043906 6.80512821,1.12043905 C6.82564103,1.12043905 6.84615385,1.10582132 6.85384615,1.0887673 C6.85897436,1.07171328 6.91025641,1.03760523 6.96410256,1.01080605 C7.02051282,0.984006878 7.06923076,0.954771401 7.07692308,0.947462536 C7.10512821,0.913354496 7.38717949,0.791540041 7.58461539,0.728196539 C7.7025641,0.689215922 7.92051283,0.63561756 8.06923077,0.606382097 C8.30769231,0.560092601 8.39230768,0.555220024 8.7923077,0.567401467 C9.18461539,0.57958291 9.27692308,0.589328064 9.51282051,0.65267158 C9.78974358,0.723323962 10.1564103,0.859756134 10.2128205,0.910918208 C10.2307692,0.925535939 10.2871795,0.952335113 10.3410256,0.969389147 C10.5153846,1.02786009 10.6769231,0.910918208 10.648718,0.745250559 C10.6410256,0.696524774 10.6230769,0.657544157 10.6102564,0.657544157 C10.5974359,0.657544157 10.5435897,0.623436117 10.4897436,0.584455487 C10.3538462,0.479695065 9.92820513,0.306718551 9.58461538,0.219012149 C9.13589743,0.0996339962 9.12564102,0.0971977077 8.95641026,0.0971977077 C8.80769231,0.0971977077 8.7948718,0.0923251306 8.7948718,0.0460356343 C8.7948718,-0.00512643913 8.8,-0.00756272768 9.03589743,0.00949130608 C9.28717949,0.0265453259 9.34102563,0.0387267686 9.87179487,0.197085552 C10.3205128,0.333517738 10.5487179,0.445587026 10.6717949,0.591764352 C10.8025641,0.750123136 10.8076923,0.871937577 10.6871795,0.979134301 C10.5282051,1.11800278 10.4230769,1.12287535 10.1615385,1.0010609 C9.9076923,0.881682745 9.71538461,0.811030363 9.44871795,0.740377981 C9.2076923,0.674598177 9.16153847,0.6697256 8.6923077,0.6697256 C8.15641026,0.6697256 8.07435897,0.681907042 7.67948718,0.808594075 C7.22051282,0.959643992 6.8871795,1.15698339 6.51025642,1.51024529 C6.16410257,1.83427172 5.88205129,2.26062227 5.73333333,2.69915428 L5.68717949,2.82584131 L5.56923076,2.82340501 C5.50256409,2.82096872 5.42051281,2.81122357 5.38461539,2.80147841 L5.38461539,2.80147841 Z" id="形状" fill="#E7B15B"></path>
                    <path d="M10.3717949,11.9935965 C9.73589744,11.9570522 9.21282052,11.8912724 8.6923077,11.7816394 C8.12820513,11.6671338 7.3,11.3796517 7.06410256,11.2164204 C7.02307692,11.1896212 6.93076923,11.1360228 6.85897436,11.1019148 C6.6948718,11.0239535 6.28974359,10.6609465 6.14358975,10.4660434 C5.9948718,10.268704 5.86666667,10.0226388 5.78205129,9.76926474 C5.71282051,9.56461648 5.71025641,9.54999874 5.7,8.7874403 C5.68974359,8.25389303 5.6948718,7.98102867 5.71538462,7.90306742 C5.73076923,7.84459648 5.76666667,7.66674739 5.7948718,7.50838862 C5.87948718,7.05036631 6.05897436,6.39987717 6.22051282,5.98083547 C6.49743589,5.26700281 6.78974358,4.65793058 7.06666666,4.2120897 C7.56410255,3.41298693 8.1102564,2.83558647 8.76923078,2.41167219 C9.11538463,2.1899699 9.15897436,2.1461167 9.2,1.98532162 C9.25384616,1.78310965 9.38974359,1.62231457 9.57179487,1.53704446 C9.94615384,1.36894052 10.4923077,1.22032689 10.7948718,1.20327287 C11.0205128,1.19109143 11.4589744,1.19352772 11.6820513,1.20570916 C12.4230769,1.25199866 13.3435898,1.5297356 14.0051282,1.90492409 C14.3435897,2.09739091 14.325641,2.08520947 14.9230769,2.5188689 C15.0487179,2.60901159 15.0897436,2.59439386 15.3205128,2.38243673 C15.725641,2.0145571 16.4333333,1.70271211 16.8769231,1.70027582 C17.1897436,1.70027582 17.325641,1.74412902 17.5,1.90736038 C17.8128205,2.20215133 18,2.58708499 18,2.9379106 C18,3.08652423 17.9923077,3.11575969 17.9410256,3.16204917 C17.8641026,3.23026527 17.8025641,3.23026527 17.5076923,3.1571766 C17.0589744,3.04510731 16.748718,3.05241617 16.4846154,3.17910319 C16.3179487,3.25706444 16.0358974,3.45927642 15.9974359,3.52505622 C15.9615385,3.58596345 15.9692308,3.60058118 16.2128205,3.97820596 C16.3076923,4.12194701 16.3846154,4.24619774 16.3846154,4.25107032 C16.3846154,4.2559429 16.4179487,4.31441384 16.4564102,4.37775735 C16.6153846,4.63600398 16.8410256,5.18416899 16.948718,5.56910263 C17.1512821,6.30729817 17.1820513,7.15269044 17.0358974,7.94204805 C16.9333333,8.48777677 16.6897436,9.16019252 16.425641,9.62308741 C16.274359,9.8910792 16.1923077,9.98122189 16.0076923,10.066492 C15.8461538,10.142017 15.8435897,10.142017 15.6384615,10.1152178 C15.3846154,10.0811097 15.3538462,10.0932912 15.1307692,10.319866 C14.4820513,10.977664 13.8358974,11.3406711 12.6358974,11.7182959 C12.1666667,11.8669095 12.0589744,11.8937087 11.6871795,11.9375619 C11.3,11.9862877 10.674359,12.0130869 10.3717949,11.9935965 L10.3717949,11.9935965 Z M11.2435897,11.8522918 C11.4282051,11.8376741 11.774359,11.7889483 12.025641,11.7402225 C12.1769231,11.710987 13.0692308,11.4381227 13.1128205,11.4040146 C13.1282051,11.3942695 13.2,11.365034 13.2692308,11.3406711 C13.4846154,11.2651461 13.9025641,11.0678067 14.074359,10.9581737 C14.1641026,10.8997028 14.274359,10.8314867 14.3205128,10.8046875 C14.4692308,10.7169811 14.7,10.5196417 14.9923077,10.2370322 L15.2794872,9.95685899 L15.5538462,9.97147673 C15.8051282,9.98609446 15.8384615,9.98365818 15.9410256,9.93493239 C16.0871795,9.8667163 16.1769231,9.7570833 16.3358974,9.45985605 C16.7307692,8.72166051 17,7.71303689 17,6.96753248 C17,6.53874563 16.9128205,5.92236453 16.8025641,5.55935748 C16.7461538,5.36689066 16.7435897,5.41561643 16.7974359,5.6641179 C16.8717949,5.99788949 16.9128205,6.87008093 16.874359,7.29155891 C16.8282051,7.79343444 16.6769231,8.4171244 16.5282051,8.72166051 C16.4923077,8.79474918 16.4615385,8.86783785 16.4615385,8.88489186 C16.4615385,8.93118136 16.2538461,9.35509562 16.1410256,9.53538101 C16.0846154,9.6255237 16.0102564,9.72053897 15.974359,9.74490186 C15.8435897,9.83260826 15.5307692,9.87402516 15.4666667,9.81311795 C15.4307692,9.77900991 15.425641,9.53538101 15.4615385,9.5134544 C15.4923077,9.49396409 15.4948718,9.06517724 15.4641026,8.92874507 C15.3948718,8.62420896 15.2871795,8.34647201 15.0230769,7.798307 C14.8717949,7.48402572 14.425641,6.75070276 14.3333333,6.66786895 L14.2769231,6.61427059 L14.3333333,6.72390358 C14.3641026,6.78481081 14.4153846,6.86764464 14.4461538,6.90662525 C14.525641,7.00894939 14.9615385,7.78612556 15.0282051,7.94448434 C15.3153846,8.62664525 15.3769231,8.88732816 15.348718,9.30393356 C15.3333333,9.57436163 15.2820513,9.71566639 15.1435897,9.8910792 C15.0410256,10.0202025 14.5538462,10.4830974 14.4025641,10.5951667 C14.1923077,10.7462166 13.6102564,11.0629342 13.4025641,11.1384591 C13.3282051,11.1652583 13.2282051,11.2066752 13.1769231,11.2310381 C13.125641,11.255401 12.9974359,11.2992542 12.8948718,11.3284897 C12.7897436,11.3577251 12.6230769,11.4064509 12.5230769,11.4381227 C12.2564103,11.5209565 11.5282051,11.6403346 11.1153846,11.6695701 C9.78461539,11.7621491 8.63589745,11.6135355 7.46923077,11.1944938 C7.17179488,11.0872971 7.13589743,11.1043511 7.41025641,11.2237292 C7.83076922,11.4040146 8.06666667,11.4795396 8.71794872,11.6452072 C8.97179488,11.710987 9.71025642,11.8108749 10.1282051,11.8401103 C10.8,11.8863998 10.8153846,11.8863998 11.2435897,11.8522918 L11.2435897,11.8522918 Z M7.06410256,11.0215172 C6.98461538,10.9630463 6.8128205,10.8826488 6.83333333,10.9118843 C6.84871795,10.9362471 7.07179488,11.0580616 7.10256411,11.0580616 C7.11025641,11.0580616 7.0923077,11.0410076 7.06410256,11.0215172 Z M7.05128205,10.7315989 C7.05128205,10.6974908 6.92564103,10.5902941 6.85128205,10.5610586 C6.68205128,10.4928426 6.28205128,10.0567468 6.28205128,9.93980497 C6.28205128,9.92031466 6.3,9.9324961 6.32564103,9.96416787 C6.41538462,10.0932912 6.49743591,10.159071 6.56923077,10.159071 C6.64358975,10.159071 6.82051282,10.032384 6.82051282,9.97634931 C6.82051282,9.95929529 6.84615385,9.93980498 6.87948717,9.93005981 C6.9128205,9.92275095 6.99999999,9.84966228 7.07435898,9.77170103 C7.16923078,9.66694061 7.23589745,9.61577854 7.30769231,9.59628823 C7.36410257,9.57923421 7.42820512,9.54025358 7.44871796,9.51101811 C7.57948718,9.32098758 7.71538463,9.24059004 7.78717949,9.30880614 C7.82307692,9.34291418 7.94871795,9.27713439 7.94871795,9.22353602 C7.94871795,9.16750137 8.07179487,9.07979497 8.36153846,8.93118136 C8.46153846,8.88001928 8.53846154,8.8556564 8.64871795,8.84591124 C8.65897435,8.84347495 8.66666666,8.81911207 8.66666666,8.7874403 C8.66666666,8.70217019 8.86923076,8.5023945 8.95384616,8.5023945 C8.99230769,8.5023945 9.03076924,8.51457594 9.04102563,8.52919368 C9.05128204,8.5462477 9.09230769,8.52188481 9.15128206,8.46828646 C9.20256411,8.42199697 9.28461538,8.36839862 9.33333334,8.35378087 C9.3820513,8.33916313 9.4846154,8.26607447 9.55641026,8.1954221 C9.64615385,8.1077157 9.71282052,8.06386251 9.75384615,8.06386249 C9.78974358,8.06386249 9.84358974,8.03219074 9.88974358,7.98590125 C10.0102564,7.85677794 10.1615385,7.76663525 10.2410256,7.78125298 C10.3,7.79099814 10.3384615,7.76907154 10.474359,7.64969339 C10.6358974,7.50595233 10.7589744,7.43042739 10.8307692,7.43042737 C10.9051282,7.43042737 11.0769231,7.35246613 11.0769231,7.31835809 C11.0769231,7.30130407 11.1410256,7.23796055 11.2205128,7.17705332 C11.3282051,7.09178321 11.3846154,7.06498404 11.4538462,7.06498404 C11.5076923,7.06498404 11.5820513,7.03818486 11.6487179,6.99433166 C11.7076923,6.95778733 11.774359,6.92124298 11.7948718,6.91393412 C11.8153846,6.90906154 11.8846154,6.83840916 11.9487179,6.75801164 C12.0384615,6.65081493 12.0923077,6.60939801 12.1641026,6.5899077 C12.2179487,6.57528997 12.2794872,6.53874563 12.3025641,6.50951016 C12.3769231,6.41936747 12.5974359,6.28537158 12.674359,6.28537158 C12.7666667,6.28537158 12.8307692,6.25369983 12.9717949,6.13675796 C13.0307692,6.08559589 13.0897436,6.04417898 13.1,6.04661527 C13.1461538,6.05879671 13.225641,6.01007094 13.251282,5.95403629 C13.2948718,5.86632989 13.2897436,5.81273153 13.2307692,5.76156946 C13.2025641,5.73720657 13.1794872,5.70309852 13.1794872,5.68360822 C13.1794872,5.6665542 13.1589744,5.62026471 13.1358974,5.58372036 L13.0923077,5.51794057 L13.1615385,5.5764115 C13.2,5.61051954 13.2307692,5.64706388 13.2307692,5.66168161 C13.2307692,5.67629934 13.3051282,5.7737509 13.3974359,5.87607505 C13.5820513,6.08559589 13.7974359,6.36576911 13.8666667,6.48758357 C13.8897436,6.52900047 13.948718,6.61670687 13.9948718,6.68005039 C14.0384615,6.74339391 14.0769231,6.80430112 14.0769231,6.81648256 C14.0769231,6.82866401 14.0948718,6.85302689 14.1153846,6.87008093 C14.1897436,6.92855186 14.1589743,6.79699226 14.0589744,6.64106976 C13.8564103,6.32435219 13.2538461,5.47165108 13.0974359,5.28405683 C13.0589744,5.23776733 12.9589744,5.1135166 12.874359,5.00631989 C12.2666667,4.2340163 11.8179487,3.76137625 10.9923077,3.01587185 C10.3051282,2.39949075 9.99230768,2.20702392 9.66666667,2.20702392 C9.45384616,2.20702392 9.27692308,2.28254888 8.85641025,2.55297694 C7.78974359,3.23757413 7.02820513,4.33390414 6.4025641,6.09046847 C6.06666666,7.02843971 5.95128204,7.61558533 5.93076923,8.48046791 C5.91794872,9.02132405 5.92820512,9.16993768 6.01025641,9.60359709 C6.08717949,10.0080211 6.46410256,10.48797 6.85384615,10.6731279 C6.98205128,10.7364714 7.05128205,10.7559618 7.05128205,10.7315989 L7.05128205,10.7315989 Z M14.2461538,6.53630934 C14.225641,6.49732872 14.1897436,6.44616665 14.1666667,6.41936747 C14.125641,6.37307798 14.1230769,6.37307798 14.1589744,6.43154892 C14.1794872,6.46565696 14.2102564,6.51681903 14.2282051,6.54849078 C14.2435897,6.57772624 14.2641026,6.60208914 14.2717949,6.60208914 C14.2769231,6.60208914 14.2666667,6.57285368 14.2461538,6.53630934 L14.2461538,6.53630934 Z M13.7187204,5.77375091 C13.6876043,5.7347703 13.6564881,5.70066224 13.6513021,5.70066224 C13.643523,5.70066224 13.6616741,5.73477028 13.6927903,5.77375091 C13.7239065,5.81516782 13.7550227,5.84683957 13.7602087,5.84683957 C13.7679877,5.84683957 13.7498366,5.81516782 13.7187204,5.77375091 Z M15.8589744,3.44465869 C15.8794872,3.35938857 16.2974359,3.07190648 16.5,3.00369039 C16.6974359,2.93791058 17.2717949,2.94521945 17.5692308,3.01830813 C17.6948718,3.0475436 17.8051282,3.06459763 17.8205128,3.05728875 C17.851282,3.04023473 17.8538461,2.76980666 17.825641,2.67966397 C17.8128205,2.63581078 17.8051282,2.66991882 17.7948718,2.80147841 C17.7820513,2.9793275 17.7794872,2.98420008 17.7102564,2.99150895 C17.6692308,2.99638152 17.5205128,2.96958235 17.3769231,2.93303802 C17.1615385,2.87700337 17.0615385,2.86482193 16.8179487,2.86238564 C16.5666667,2.86238564 16.5102564,2.86969451 16.4692308,2.90623883 C16.4410257,2.92816543 16.4025641,2.94765574 16.3820513,2.94765575 C16.3615385,2.94765577 16.2205128,3.03779844 16.0666667,3.14986773 C15.9128205,3.25950073 15.7666667,3.35938857 15.7435897,3.37157003 C15.7025641,3.39349663 15.7051282,3.40324178 15.7666667,3.48607561 C15.8128205,3.54941912 15.8358974,3.56403685 15.8410256,3.53480138 C15.8435897,3.51287478 15.8538462,3.47145786 15.8589744,3.44465869 L15.8589744,3.44465869 Z" id="形状" fill="#99632B"></path>
                    <path d="M3.1025641,11.6841878 C2.03333334,11.474667 1.14102564,10.8948302 0.579487177,10.049438 C0.235897428,9.53050842 0.0564102476,9.02863291 0.0487179558,8.57548317 C0.0487179558,8.46341389 0.0410256493,8.43174212 0.0256410216,8.46585017 C0.0128205108,8.49508564 0.00256410216,8.3513446 0.00256410216,8.09309797 C3.36421429e-13,7.86165052 0.0102564087,7.65456596 0.0230769195,7.63020306 C0.0358974303,7.60827647 0.0589743497,7.49133459 0.0717948752,7.36952015 C0.141025648,6.77750193 0.564102564,6.01981608 1.11025641,5.50819542 C1.37179488,5.26456652 1.74615385,5.00144732 2.04102564,4.85770627 C2.17692307,4.79192646 2.2974359,4.72614667 2.31025642,4.71152894 C2.32051282,4.69691121 2.36153847,4.55317016 2.3948718,4.39237508 C2.56666668,3.58839974 3.20000001,2.84289533 3.9897436,2.51399632 C4.36923078,2.35563754 4.59487179,2.2996029 4.97948718,2.27036743 L5.19230769,2.25331341 L5.32051282,2.00968451 C5.3923077,1.87568861 5.4897436,1.71245726 5.53846154,1.64667746 C5.58717948,1.58089766 5.66153846,1.4834461 5.70256411,1.42741146 C5.80769231,1.2861067 6.18974359,0.915790785 6.37179487,0.781794901 C6.67948718,0.555220024 6.97692307,0.394424966 7.34358974,0.255556491 C7.5,0.197085552 7.66153845,0.153232358 8.11538462,0.0460356343 C8.25128205,0.0119275946 9.13846155,0.0119275946 9.26923077,0.0435993457 C9.96153846,0.214139572 10.4,0.374934644 10.5871795,0.52842085 C10.7897436,0.691652211 10.8102564,0.869501302 10.6435898,0.998624609 C10.5128205,1.10338503 10.3871795,1.09851245 10.1333333,0.979134301 C9.64615385,0.750123136 9.27948718,0.657544157 8.77948718,0.640490137 C8.47435898,0.628308694 8.37692309,0.63561756 8.14615385,0.679470754 C7.42564102,0.820775517 6.94358974,1.06927698 6.42307693,1.5711525 C6.12051283,1.86107088 5.85897437,2.28254887 5.72564102,2.68453655 C5.67435897,2.84289533 5.68205129,2.83802275 5.42307693,2.79173326 C5.1897436,2.74788006 4.88205128,2.77711553 4.51282051,2.87943966 C4.0923077,2.99394524 3.85384615,3.13037742 3.53333334,3.43734982 C3.12564104,3.82715604 2.90769231,4.28030578 2.87435898,4.80898049 L2.85897437,5.07453599 L2.52564103,5.21340445 C2.16410256,5.36201808 2.12820513,5.38150839 1.85897436,5.56910263 C1.47435898,5.8395307 1.14871795,6.19522889 0.917948721,6.60208914 C0.76153846,6.87251721 0.707692314,7.00651311 0.610256417,7.36464757 C0.53589744,7.63994822 0.528205134,7.69111029 0.528205134,8.07604394 C0.525641031,8.34403572 0.538461542,8.54137512 0.561538462,8.6363904 C0.630769235,8.93118136 0.694871789,9.15044737 0.735897438,9.24546262 C0.846153846,9.49883667 0.882051291,9.56705276 0.935897436,9.63526886 C0.966666662,9.67668576 1.01025641,9.74246557 1.03333333,9.78388247 C1.12820513,9.95929528 1.48717949,10.3344838 1.75641026,10.5415683 C2.07435897,10.7851972 2.58461539,11.0288261 2.96153847,11.1189688 C3.37692308,11.2188566 3.57179487,11.2286018 5.07692307,11.2188567 C6.66153846,11.2091115 6.65384615,11.2091115 6.72820513,11.3504163 C6.7948718,11.4722307 6.78205129,11.5648097 6.68205128,11.659825 L6.59487179,11.7426588 L4.98205128,11.7402225 C3.43589744,11.7353499 3.36153846,11.7353499 3.1025641,11.6841878 L3.1025641,11.6841878 Z" id="路径" fill="#99632B"></path>
                    <path d="M10.5641026,11.9473071 C9.71025642,11.896145 9.00769231,11.8108749 8.64102564,11.7182959 C7.96666667,11.5477557 7.65897436,11.4478678 7.31538461,11.2846365 C6.68205128,10.9849729 6.39487179,10.758398 6.0974359,10.3296112 C5.94102564,10.1006 5.83076923,9.85940745 5.7948718,9.66450432 C5.78205129,9.59628823 5.75897437,9.46960121 5.74358974,9.38920367 C5.72820513,9.30636985 5.71538462,8.98234342 5.71794872,8.66806215 C5.71794872,7.99808269 5.77435898,7.58147729 5.94871796,6.93098815 C6.13846155,6.23420952 6.25384616,5.91505568 6.58205128,5.17929641 C7.14102564,3.9270439 7.88974359,2.99150895 8.78974359,2.42385363 C8.97948718,2.30447548 9.14871795,2.18509731 9.16923077,2.15829814 C9.18717949,2.12906268 9.22564103,2.03404741 9.25384616,1.94634101 C9.34102565,1.6832218 9.42820513,1.60769684 9.80512821,1.47613723 C9.97948719,1.41523001 10.2666667,1.33239618 10.4410256,1.29341557 C10.7487179,1.22032689 10.7717949,1.22032689 11.2948718,1.22519949 C11.9794872,1.23494464 12.2358974,1.27392527 12.8717949,1.45908321 C13.251282,1.56871621 13.7128205,1.76361932 14.0205128,1.93903214 C14.2923077,2.09495464 14.6846154,2.35563755 14.8076923,2.46283425 C14.9230769,2.56272209 15.0025641,2.6065753 15.0641026,2.6065753 C15.0871795,2.6065753 15.1897436,2.53105034 15.2948718,2.43603507 C15.5102564,2.24113196 15.7435897,2.09251833 16.051282,1.95364987 C16.4538461,1.7709282 16.5666667,1.74169274 16.9102564,1.74169273 C17.2692308,1.74169273 17.3179487,1.76118304 17.5358974,1.98775791 C17.7794872,2.24113196 17.9076923,2.52130519 17.9333333,2.86482193 C17.9461538,3.03779844 17.9435897,3.07190648 17.9,3.12063227 L17.851282,3.1766669 L17.551282,3.10601454 C17.0230769,2.98176381 16.6179487,3.00856298 16.3461538,3.18641207 C16.1179487,3.3350257 15.9487179,3.4665853 15.9358974,3.5080022 C15.9179487,3.56160056 15.9794872,3.70777789 16.0615385,3.81010204 C16.0948718,3.85151894 16.1717949,3.96846082 16.2358974,4.06834865 C17.1,5.44972447 17.3076923,7.04305743 16.8179487,8.55112029 C16.6794872,8.97259828 16.5717949,9.23571748 16.4128205,9.53294472 C16.2538462,9.83017197 16.1641026,9.93980498 16.0205128,10.0055848 C15.8923077,10.066492 15.7794872,10.0762372 15.5307692,10.049438 L15.3538462,10.0299477 L15.0692308,10.3101209 C14.7769231,10.5927304 14.5461538,10.7900698 14.3974359,10.8777762 C14.3512821,10.9045754 14.2410256,10.9727915 14.1512821,11.0312624 C13.9794872,11.1408954 13.5615385,11.3382348 13.3461538,11.4137598 C13.2769231,11.4381227 13.2051282,11.4673581 13.1923077,11.4771033 C13.1615385,11.4990299 12.3717949,11.7524039 12.2051282,11.7913846 C12.0974359,11.8181837 11.8435897,11.8596006 11.4615385,11.9107627 C11.2589744,11.9375619 10.7589744,11.9594885 10.5641026,11.9473071 L10.5641026,11.9473071 Z M11.0384615,11.5964814 C11.451282,11.567246 12.1794872,11.4478678 12.4461538,11.365034 C12.5461538,11.3333622 12.7128205,11.2846365 12.8179487,11.255401 C12.9205128,11.2261655 13.0487179,11.1823123 13.1,11.1579494 C13.1512821,11.1335866 13.2512821,11.0921696 13.325641,11.0653705 C13.5333333,10.9898455 14.1153846,10.6731279 14.325641,10.522078 C14.4769231,10.4100087 14.9641026,9.94711385 15.0666667,9.81799053 C15.1846154,9.6693769 15.2512821,9.49883667 15.2692308,9.30393356 C15.3,8.97259826 15.2282051,8.67537102 14.9487179,8.01757301 C14.8820513,7.85921423 14.4897436,7.15025415 14.3717949,6.97971392 C14.325641,6.91393412 14.2435897,6.78237452 14.1923077,6.68979555 C14.0358974,6.41693119 13.4948718,5.65924532 13.1564103,5.24020364 C13.1205128,5.19635044 13.0564103,5.11351662 13.0128205,5.05748197 C12.6230769,4.53611614 12.0358974,3.90024473 11.3358974,3.244883 C10.6102564,2.5602858 10.2641026,2.29229402 9.97692307,2.18509731 C9.66153846,2.06815545 9.49743589,2.09495462 9.09487179,2.32640208 C8.4948718,2.67479139 8.11025642,3.00125411 7.67435898,3.53236509 C7.33333333,3.95140679 6.86923077,4.70909264 6.70769231,5.11595289 C6.67435899,5.20365929 6.61282052,5.34009148 6.57692307,5.42048902 C6.3051282,5.99301691 6.01025641,6.97240506 5.91282051,7.61314904 C5.7948718,8.40737923 5.7923077,8.92630878 5.91025641,9.56705276 C6.02820512,10.2151056 6.67435897,10.8144327 7.6051282,11.1433317 C8.71794872,11.5331379 9.82564103,11.6793153 11.0384615,11.5964814 Z M15.8410256,9.70348495 C15.8871795,9.68155835 15.9589744,9.61821484 16,9.56218019 C16.1153846,9.4038214 16.3846154,8.87758299 16.3846154,8.80936691 C16.3846154,8.79474918 16.4153846,8.72166051 16.451282,8.64857184 C16.5846154,8.37570748 16.725641,7.82997877 16.7846154,7.3573387 C16.8282051,6.99676794 16.8128205,6.280499 16.7538462,5.91992824 C16.674359,5.44241561 16.4692308,4.85283369 16.2179487,4.37288478 C16,3.96115194 15.9641026,3.90755359 15.6564103,3.52018364 C15.5282051,3.35938857 15.1076923,2.89892997 14.925641,2.72108088 C14.6205128,2.42141734 13.948718,1.97557647 13.4871795,1.76849192 C13.1487179,1.617442 12.625641,1.45177435 12.2435897,1.3738131 C11.7051282,1.26661639 11.0871795,1.25687124 10.6153846,1.34945022 C10.2461538,1.42253889 9.79999999,1.54435333 9.65897436,1.61013313 C9.46410256,1.70271211 9.333303,1.85376203 9.333303,1.98532162 C9.333303,2.05841029 9.32820514,2.05597401 9.45128205,2.00724822 C9.73333334,1.89517893 10.2282051,2.06084658 10.6564103,2.41167219 C10.7153846,2.45796169 10.8358974,2.55784953 10.925641,2.63093819 C11.7358974,3.29604506 12.5128205,4.09027525 13.251282,5.00631989 C13.6948718,5.55935748 13.8666667,5.79080493 14.1974359,6.280499 C14.2846154,6.40962231 14.3820513,6.54849078 14.4153846,6.58747141 C14.5358974,6.73121246 14.9666667,7.4499177 15.1,7.72521833 C15.3641026,8.27338334 15.4717949,8.55112027 15.5410256,8.8556564 C15.5717949,8.99452487 15.5692308,9.56705276 15.5384615,9.58654307 C15.5025641,9.60846967 15.5076923,9.70592123 15.5461538,9.74246557 C15.5820513,9.77657361 15.7128205,9.75951959 15.8410256,9.70348495 L15.8410256,9.70348495 Z M15.7051282,3.28629992 C15.7358974,3.24001042 16.2692308,2.87456708 16.3051282,2.87456708 C16.325641,2.87456708 16.3641026,2.85507677 16.3923077,2.83315018 C16.4358974,2.79416956 16.4948718,2.78929698 16.8307692,2.79173326 C17.1641026,2.79416955 17.2487179,2.80147841 17.4487179,2.85751306 C17.574359,2.8916211 17.6871795,2.91354771 17.6974359,2.90623883 C17.7589744,2.87213079 17.6769231,2.45796167 17.5692308,2.24600454 C17.4897436,2.08520947 17.3102564,1.89274264 17.2051282,1.85132574 C17.0846154,1.80503624 16.6974359,1.83670801 16.4487179,1.91223295 C16.2358974,1.97801276 15.8487179,2.16317072 15.6564103,2.28742145 C15.4948718,2.39461816 15.1282051,2.7381349 15.1282051,2.78686068 C15.1282051,2.84045904 15.5923077,3.3106628 15.6461538,3.31309909 C15.6692308,3.31309909 15.6974359,3.30091765 15.7051282,3.28629992 L15.7051282,3.28629992 Z" id="形状" fill="#050506"></path>
                </g>
            </g>
        </g>
    </g>
</svg>