<?xml version="1.0" encoding="UTF-8"?>
<svg width="24px" height="24px" viewBox="0 0 24 24" version="1.1" xmlns="http://www.w3.org/2000/svg">
  <g stroke="none" stroke-width="1" fill="none" fill-rule="evenodd">
    <rect fill-opacity="0.419453227" opacity="0" x="0" y="0" width="24" height="24"/>
    <g transform="translate(5, 5)" fill="#444444" fill-rule="nonzero">
      <path d="M13.6363636,11.25 L13.2954546,11.25 L13.2954546,6.13636364 C13.2954546,2.76136364 10.5340909,0 7.15909091,0 C3.78409091,0 1.02272728,2.76136364 1.02272728,6.13636364 L1.02272728,11.25 L0.681818188,11.25 C0.306818188,11.25 0,11.5568182 0,11.9318182 C0,12.3068182 0.306818188,12.6136364 0.681818188,12.6136364 L4.15909091,12.6136364 C4.4659091,13.9772727 5.69318183,15 7.15909091,15 C8.625,15 9.85227272,13.9772727 10.1590909,12.6136364 L13.6363636,12.6136364 C14.0113636,12.6136364 14.3181818,12.3068182 14.3181818,11.9318182 C14.3181818,11.5568182 14.0113636,11.25 13.6363636,11.25 Z M7.15909091,13.6363636 C6.47727272,13.6363636 5.86363636,13.2272727 5.5909091,12.6136364 L8.72727272,12.6136364 C8.45454545,13.2272727 7.84090909,13.6363636 7.15909091,13.6363636 L7.15909091,13.6363636 Z M2.38636364,11.25 L2.38636364,6.13636364 C2.38636364,3.51136364 4.53409091,1.36363636 7.15909091,1.36363636 C9.78409091,1.36363636 11.9318182,3.51136364 11.9318182,6.13636364 L11.9318182,11.25 L2.38636364,11.25 Z"/>
    </g>
  </g>
</svg>
