<?xml version="1.0" encoding="UTF-8"?>
<svg width="24px" height="24px" viewBox="0 0 24 24" version="1.1" xmlns="http://www.w3.org/2000/svg">
  <g stroke="none" stroke-width="1" fill="none" fill-rule="evenodd">
    <rect fill-opacity="0.419453227" fill="#444444" opacity="0" x="0" y="0" width="24" height="24"/>
    <g transform="translate(5, 6)" stroke="#444444">
      <path d="M14,7.57128867 L14,8.20239814 C14,9.58923337 13.8375552,10.3018396 13.5325178,10.9536914 C13.2274804,11.6055433 12.7798504,12.1171204 12.20948,12.4657346 C11.6391096,12.8143488 11.0155792,13 9.80209838,13 L4.4867991,13 C2.92664131,13 2.36089039,12.8143488 1.79052002,12.4657346 C1.22014965,12.1171204 0.772519644,11.6055433 0.467482232,10.9536914 C0.16244482,10.3018396 0,9.65526708 0,7.8722296 L0,5.0395741 C0,3.36237218 0.16244482,2.69816044 0.467482232,2.04630859 C0.772519644,1.39445674 1.22014965,0.882879593 1.79052002,0.534265408 C2.36089039,0.185651222 2.94207566,0 4.40962733,0 L5.29791824,0 L5.29791824,0" stroke-width="1.3" stroke-linecap="round"/>
      <path d="M4.5029839,0.935816202 L4.74761855,0.949001772 C8.24908838,1.1371558 11.1764639,3.60685959 11.9896416,6.96412918 L12.9776717,5.43506157 C13.1360855,5.19032483 13.4628975,5.1203503 13.7076266,5.27876907 C13.9523557,5.43718784 14.022328,5.76400995 13.8639142,6.00874671 L12.3538751,8.34312456 C12.1101537,8.72009463 11.6169027,8.84520403 11.2229819,8.62996713 L8.80693865,7.3091373 C8.55536211,7.16749205 8.46438384,6.84991861 8.60279499,6.59654291 C8.74120613,6.34316721 9.05757989,6.24813124 9.31269746,6.38329428 L10.984163,7.29643735 C10.3082087,4.34561628 7.75255361,2.16688971 4.69025183,2.00278351 L4.44627805,1.98959794 C4.15511977,1.97456721 3.93178338,1.72583497 3.94744227,1.43466759 C3.96310116,1.1435002 4.21182562,0.920156829 4.5029839,0.935816202 Z" stroke-width="0.5" fill="#444444" fill-rule="nonzero" transform="translate(8.9477, 4.835) scale(-1, 1) translate(-8.9477, -4.835)"/>
    </g>
  </g>
</svg>
