<?xml version="1.0" encoding="UTF-8"?>
<svg width="483px" height="143px" viewBox="0 0 483 143" version="1.1" xmlns="http://www.w3.org/2000/svg" xmlns:xlink="http://www.w3.org/1999/xlink">
    <title>小马黑</title>
    <g id="页面-1" stroke="none" stroke-width="1" fill="none" fill-rule="evenodd">
        <g id="小马黑">
            <g id="小马笔记" transform="translate(167.08, 33.6)" fill="#333333" fill-rule="nonzero">
                <path d="M33.28,73.84 C40.08,73.84 43.52,70.24 43.52,63.2 L43.52,1.92 L34.8,1.92 L34.8,60.96 C34.8,64.16 33.2,65.76 30.08,65.76 C26.88,65.76 23.44,65.52 19.76,65.12 L21.76,73.84 L33.28,73.84 Z M13.2,20.48 C10.4,34.16 6,45.12 0,53.36 L7.36,59.84 C13.28,51.52 18,39.44 21.6,23.76 L13.2,20.48 Z M62.56,18.4 L54.88,23.2 C60.32,36.8 64.64,49.2 67.84,60.32 L75.44,55.04 C72.4,44.64 68.08,32.4 62.56,18.4 Z" id="形状"></path>
                <path d="M83.36,49.68 L83.36,57.84 L134.16,57.84 L134.16,49.68 L83.36,49.68 Z M131.6,11.28 L128.32,33.44 L104.08,33.44 L107.44,15.6 L98.88,14.88 L93.52,41.6 L143.84,41.6 C143.2,53.52 142.24,60.48 140.96,62.56 C139.68,64.64 137.12,65.76 133.36,65.76 C130,65.76 126.24,65.44 122.16,64.96 L124.48,73.04 C127.84,73.2 130.8,73.36 133.36,73.44 C140.8,73.44 145.68,71.52 148,67.68 C150.32,63.84 151.92,52.48 152.88,33.44 L137.28,33.44 L141.2,3.12 L89.6,3.12 L89.6,11.28 L131.6,11.28 Z" id="形状"></path>
                <path d="M225.12,33.44 L199.84,36.48 L199.84,32.48 C209.84,31.44 218.64,29.92 226.16,27.84 L222.32,21.28 C207.04,25.04 188.4,26.96 166.32,26.96 L168.72,33.92 C176.72,33.92 184.32,33.68 191.44,33.2 L191.44,37.52 L165.92,40.56 L167.04,48 L191.44,45.12 L191.44,50.32 L163.36,54 L164.48,61.52 L191.44,58 L191.44,63.44 C191.44,69.84 194.56,73.04 200.8,73.04 L223.76,73.04 C227.28,73.04 229.84,72.32 231.44,71.04 C233.2,69.76 234.4,65.44 235.2,58.08 L227.2,55.44 C226.88,60.16 226.32,62.96 225.52,63.76 C224.8,64.64 223.68,65.12 222.24,65.12 L203.36,65.12 C200.96,65.12 199.84,63.92 199.84,61.68 L199.84,56.88 L231.76,52.64 L230.56,45.2 L199.84,49.2 L199.84,44.08 L226.24,40.88 L225.12,33.44 Z M174.32,14.64 L178.16,14.64 C180.16,17.92 181.92,21.36 183.52,24.88 L191.2,21.92 C190.08,19.68 188.64,17.2 186.96,14.64 L197.12,14.64 L197.12,7.28 L177.68,7.28 C178.32,5.68 178.88,3.92 179.52,2.08 L171.44,0.32 C169.52,6.56 166.32,12.56 161.68,18.16 L168.96,22.72 C170.88,20.24 172.72,17.52 174.32,14.64 Z M207.52,14.32 L212.48,14.32 C214,16.56 215.36,18.96 216.64,21.44 L224,18.64 C223.2,17.28 222.32,15.84 221.28,14.32 L233.36,14.32 L233.36,6.96 L210.48,6.96 C210.96,5.36 211.52,3.6 212,1.76 L204,0 C202.4,6.4 199.6,12.4 195.76,18.16 L202.88,22.64 C204.56,20.08 206.08,17.28 207.52,14.32 Z" id="形状"></path>
                <path d="M315.92,52.24 L307.6,49.52 C307.28,55.2 306.8,59.04 306.16,61.12 C305.52,63.2 303.76,64.32 301.04,64.32 L285.2,64.32 C282.96,64.16 281.84,62.96 281.84,60.72 L281.84,35.76 L309.76,35.76 L309.76,3.76 L270.4,3.76 L270.4,11.76 L301.76,11.76 L301.76,27.76 L273.68,27.76 L273.68,64.08 C273.68,69.44 276.24,72.16 281.52,72.16 L302.4,72.16 C307.52,72.16 310.8,70.88 312.32,68.48 C313.92,65.92 315.12,60.48 315.92,52.24 Z M252.16,1.2 L246.24,6.96 C251.92,11.12 256.32,15.04 259.36,18.72 L265.12,12.88 C261.52,9.04 257.2,5.12 252.16,1.2 Z M241.04,24.32 L241.04,32.32 L252,32.32 L252,60.72 C252,62.4 251.28,63.84 249.84,65.04 L253.04,72.56 C259.2,68.8 265.04,64.56 270.48,59.76 L268.24,51.04 C265.36,53.68 262.64,56 260.08,58.08 L260.08,24.32 L241.04,24.32 Z" id="形状"></path>
            </g>
            <g id="编组-2备份-5">
                <path d="M57.687417,0 L85.312583,3.62733656e-15 C105.371755,-2.107587e-15 112.645695,2.08857625 119.979028,6.01048584 C127.312362,9.93239542 133.067605,15.6876383 136.989514,23.0209717 C140.911424,30.354305 143,37.6282454 143,57.687417 L143,85.312583 C143,105.371755 140.911424,112.645695 136.989514,119.979028 C133.067605,127.312362 127.312362,133.067605 119.979028,136.989514 C112.645695,140.911424 105.371755,143 85.312583,143 L57.687417,143 C37.6282454,143 30.354305,140.911424 23.0209717,136.989514 C15.6876383,133.067605 9.93239542,127.312362 6.01048584,119.979028 C2.08857625,112.645695 0,105.371755 0,85.312583 L0,57.687417 C0,37.6282454 2.08857625,30.354305 6.01048584,23.0209717 C9.93239542,15.6876383 15.6876383,9.93239542 23.0209717,6.01048584 C30.354305,2.08857625 37.6282454,0 57.687417,0 Z" id="矩形" fill="#FF3800"></path>
                <g id="编组备份" transform="translate(21.3578, 15.7857)" fill="#FFFFFF">
                    <path d="M62.937727,0.10625308 C64.5414489,-0.434553871 65.4693813,1.24513233 65.3621549,1.64160723 C65.3819828,1.71495679 64.5937459,4.79117561 63.7503055,8.01286887 L63.5689977,8.70441703 C62.6912449,12.0475958 61.8119607,15.3278872 61.7675855,15.3706827 C61.5563465,16.1221443 60.4913863,16.8350395 59.8857176,17.1882732 C59.6236409,17.340786 59.3291334,17.4263918 59.0267373,17.4430455 L50.5362727,17.916069 L59.5622852,18.0405335 C59.5622852,18.0405335 59.5742061,18.0410273 59.5967832,18.04237 L59.695219,18.0493001 C60.1854084,18.0883516 61.9176528,18.286649 62.968697,19.1843796 C63.0666062,19.2719898 71.1524208,27.3159452 79.7088039,35.842438 L80.8030851,36.9329719 C80.9856983,37.1149724 81.1683797,37.2970475 81.3510569,37.479125 L82.4464905,38.571044 L83.538348,39.6595673 C86.4421108,42.554697 89.2706571,45.3767488 91.727415,47.8308677 L93.0681742,49.1705606 C93.2123561,49.3146717 93.3548686,49.4571297 93.495639,49.5978624 L94.7135866,50.8159337 C97.695935,53.7998109 99.6419003,55.7568251 99.6705271,55.811122 C100.785741,57.1799392 100.219515,59.396342 99.873001,60.404329 C99.7590547,60.7356499 99.5706049,61.0351243 99.325182,61.2849298 L91.5145973,69.2386779 C91.5145973,69.2386779 89.6496753,71.5012435 86.8398749,71.725338 C84.5746797,71.905607 80.6286297,69.6617402 79.1841404,68.7852298 C78.7940933,68.548572 78.3850551,68.3466824 77.959071,68.1827749 L73.2133512,66.354082 L18.6832984,48.2272614 L50.6338575,60.8668343 C51.1436945,61.0681396 51.5489345,61.4657831 51.7587126,61.9718219 C52.9962052,64.9539208 57.5366247,75.8972814 61.9238814,86.4772515 L62.4712408,87.7972529 C67.0217544,98.7714559 71.2498217,108.974987 71.2490913,108.998653 C71.6353402,110.408374 70.3272945,111.133248 69.8364486,111.350915 C69.7286378,111.398831 69.615568,111.423081 69.4978234,111.423373 L69.0316802,111.423936 C68.9816966,111.423996 68.9291336,111.424058 68.8741451,111.424123 L68.1077082,111.424998 C68.035778,111.425077 67.9620378,111.425157 67.8866417,111.425238 L67.1675184,111.425983 C67.0835711,111.426066 66.9984294,111.426149 66.9122473,111.426232 L66.112671,111.426956 C66.0216312,111.427033 65.9300126,111.427109 65.8379692,111.427183 L64.7229025,111.427968 C64.6299223,111.428023 64.5371328,111.428075 64.4446879,111.428123 L61.7239242,111.428093 C61.6576814,111.428029 61.593476,111.427959 61.5314619,111.427881 L61.1869045,111.427328 C61.1342713,111.42722 61.0841372,111.427105 61.0366561,111.426981 L60.7848365,111.42614 C60.6035688,111.425353 60.4963207,111.424347 60.482329,111.423081 C59.2265817,111.428571 58.6670759,109.881591 58.6670759,109.881591 L40.6892621,59.5412584 C40.6892621,59.5412584 55.3798695,109.203172 55.4096708,109.297251 C55.6831421,110.627209 54.9310961,111.217977 54.5892571,111.336014 C54.5160058,111.36907 52.8939919,111.378515 50.8388177,111.376997 L50.2103862,111.376225 C46.9078782,111.37067 42.832726,111.341817 42.139293,111.336768 L42.0367508,111.336014 C41.7191619,111.336014 41.3860879,111.381593 41.0717128,111.336014 L40.0239907,111.184378 C39.5959614,111.122146 39.1828328,110.981027 38.8065176,110.768035 L5.03223244,91.6674117 L3.29791042,90.1817265 C2.17568487,89.0028199 1.32342453,87.5936833 0.800147791,86.0527779 C0.800147791,86.0527779 0.145978821,84.3631579 0.0592042864,83.0635851 C0.0202872222,82.906865 0.00474377012,76.8685027 0.000101770751,69.6788871 L-1.63782594e-12,58.0878021 C8.41721739e-05,57.9104367 0.00017106533,57.7339039 0.000260484589,57.5582776 L0.00112820102,56.0041132 C0.001231023,55.8345913 0.00133578645,55.6661977 0.00144229649,55.4990064 L0.00210075686,54.5108756 C0.00221347376,54.3487886 0.00232754751,54.1880516 0.00244278321,54.0287386 L0.00314658196,53.0905387 C0.003265686,52.937217 0.00338556224,52.785467 0.00350601582,52.6353627 L0.00423410617,51.7550762 C0.0046000563,51.3253982 0.00496769458,50.9118615 0.00533175934,50.5164619 L0.00605356511,49.7504366 C0.00617255228,49.6269933 0.00629075264,49.505713 0.00640797131,49.3866697 L0.00709794397,48.6998446 C0.00721045636,48.5900447 0.0073215973,48.4826297 0.00743117192,48.3776733 L0.00806826471,47.7780308 C0.00817079452,47.6832049 0.00827136826,47.5909855 0.00836979103,47.5014466 L0.00919225848,46.7699632 C0.00927602162,46.6971721 0.00935704917,46.6272831 0.00943514625,46.5603702 L0.0102191767,45.9049978 C0.010270712,45.8630762 0.0103185373,45.8244263 0.0103624578,45.7891221 L0.0107040412,45.5197206 C0.00982753076,44.8567865 0.0822857284,44.1956055 0.226617783,43.5487408 L0.867054756,40.6805064 C1.29187016,39.127622 1.93464449,37.7249131 2.90611024,36.4408253 L4.9258825,34.0099697 C5.62855172,33.1644292 6.42413104,32.4006965 7.29771979,31.7330877 L36.1495223,9.68066895 C36.5091837,9.40690552 36.9342913,9.23247994 37.3824803,9.17492242 L45.7487726,8.17073361 L41.1669603,11.6855405 C40.8406062,11.9359304 40.5417162,12.2199197 40.275257,12.5331261 L14.3609332,42.9629396 L13.1656651,44.3621425 C12.8173983,44.7697198 12.5237673,45.2208305 12.2923685,45.7043721 L11.7720135,46.7918295 C11.6554376,47.0354994 11.5622353,47.2893952 11.4941597,47.5508875 L2.74454015,81.0747829 L13.2956808,48.6319171 C13.4382599,48.2000896 13.6606014,47.79894 13.9510185,47.4497966 L40.5542795,13.9811214 C40.7500335,13.7289786 40.9554291,13.4926129 41.1643308,13.2515725 C41.3945608,12.9854055 41.633556,12.7256663 41.8801476,12.4746921 L42.1626762,12.187781 C42.4177407,11.8810024 45.907421,9.12642217 45.907421,9.12642217 C46.3313599,8.78429093 46.7190697,8.46787065 47.1760238,8.19060118 C49.0122689,7.07592778 54.3443608,4.3548283 58.3015448,2.37669646 L58.8842018,2.08584261 C61.1687116,0.947065654 62.870581,0.118046129 62.937727,0.10625308 Z M59.5727741,31.1217801 C57.3099163,31.1217801 55.4759643,32.9560243 55.4759643,35.2185899 C55.4759643,37.4811556 57.3099163,39.3153998 59.5727741,39.3153998 C61.8356319,39.3153998 63.669584,37.4811556 63.669584,35.2185899 C63.669584,32.9560243 61.8356319,31.1217801 59.5727741,31.1217801 Z" id="形状结合"></path>
                </g>
            </g>
        </g>
    </g>
</svg>