<?xml version="1.0" encoding="UTF-8"?>
<svg width="35px" height="35px" viewBox="0 0 35 35" version="1.1" xmlns="http://www.w3.org/2000/svg" xmlns:xlink="http://www.w3.org/1999/xlink">
    <title>编组 12备份</title>
    <g id="谷" stroke="none" stroke-width="1" fill="none" fill-rule="evenodd">
        <g id="问ai（deepseek）" transform="translate(-1251, -530)">
            <g id="编组-12备份" transform="translate(1251, 530)">
                <circle id="椭圆形" fill-opacity="0.1" fill="#E94618" cx="17.5" cy="17.5" r="17.5"></circle>
                <g id="编组-9" transform="translate(10, 8)" fill="#16100F" fill-rule="nonzero">
                    <path d="M1.65436545,12.4077409 C1.65436545,15.0290763 4.16108415,17.3456345 7.16891696,17.3456345 C10.255656,17.3456345 12.968104,15.0264423 12.968104,12.4816758 L12.968104,4.76130373 C12.968104,4.30446332 13.3384463,3.934121 13.7952867,3.934121 C14.2521271,3.934121 14.6224695,4.30446332 14.6224695,4.76130373 L14.6224695,12.4816758 C14.6224695,16.0026396 11.1168591,19 7.16891696,19 C3.27528084,19 0,15.9731829 0,12.4077409 L0,5.23882393 C0,2.34550137 2.34550137,0 5.23882393,0 C8.13214649,0 10.4776479,2.34550137 10.4776479,5.23882393 L10.4776479,11.8562857 C10.4776479,13.5313672 9.11972602,14.8892891 7.44464453,14.8892891 C5.76956305,14.8892891 4.4116412,13.5313672 4.4116412,11.8562857 L4.4116412,6.34173423 C4.4116412,5.88489383 4.78198353,5.51455151 5.23882393,5.51455151 C5.69566433,5.51455151 6.06600666,5.88489383 6.06600666,6.34173423 L6.06600666,11.8562857 C6.06600666,12.6176864 6.68324386,13.2349236 7.44464453,13.2349236 C8.20604521,13.2349236 8.82328241,12.6176864 8.82328241,11.8562857 L8.82328241,5.23882393 C8.82328241,3.25918218 7.21846568,1.65436545 5.23882393,1.65436545 C3.25918218,1.65436545 1.65436545,3.25918218 1.65436545,5.23882393 L1.65436545,12.4077409 Z" id="形状结合"></path>
                </g>
            </g>
        </g>
    </g>
</svg>