<?xml version="1.0" encoding="UTF-8"?>
<svg width="35px" height="35px" viewBox="0 0 35 35" version="1.1" xmlns="http://www.w3.org/2000/svg" xmlns:xlink="http://www.w3.org/1999/xlink">
    <title>编组 11备份</title>
    <g id="谷" stroke="none" stroke-width="1" fill="none" fill-rule="evenodd" opacity="0.500999087">
        <g id="问ai（deepseek）" transform="translate(-1296, -530)">
            <g id="编组-11备份" transform="translate(1296, 530)">
                <circle id="椭圆形" fill="#E94618" cx="17.5" cy="17.5" r="17.5"></circle>
                <g id="编组" transform="translate(7, 10)" fill="#FFFFFF" fill-rule="nonzero">
                    <path d="M1.06006598,5.55533707 C0.41006998,5.82835364 0.0060724485,6.3153832 3.59233145e-05,7.00242488 C-0.0039274744,7.48345408 0.320070534,8.12949326 0.971066531,8.39350928 C1.23906489,8.50351595 5.00104176,9.0085466 5.00104176,9.0085466 C5.00104176,9.0085466 5.99603564,12.1557376 6.35503342,13.2618047 C6.45903277,13.5818241 6.51803243,13.7388336 6.74503102,13.9478463 C7.13302865,14.3018678 7.78702463,14.1908611 8.06902289,13.9078439 C8.81801828,13.1577984 10.000011,11.9997281 10.000011,11.9997281 L10.498008,12.4047527 C10.498008,12.4047527 12.7079944,14.1678596 13.9159869,14.99791 C14.6269826,15.4879398 15.1209795,15.9979707 15.9219746,15.9999855 C16.3289721,16.0019709 16.9839681,15.7999587 17.4159654,15.3039286 C17.7019637,14.9769087 17.8849625,14.453877 17.9559621,13.9848485 C18.1169611,12.9197839 20.0079495,1.40408517 19.9999748,1.00006066 C19.9929106,0.449518039 19.5474801,0.00539020787 18.9969557,0 C18.7149574,0.00200011355 18.4819589,0.0840050971 17.9639621,0.242014677 C13.9589867,1.46508888 1.32606436,5.44433033 1.06006598,5.55533707 Z M15.9999741,2.99918197 C15.9999741,2.99918197 10.7220066,7.59346074 8.61301956,9.70758901 C7.9370237,10.3846301 7.890024,11.5477007 7.890024,11.5477007 L6.80003069,8.05848896 L15.9999741,2.99918197 Z" id="形状"></path>
                </g>
            </g>
        </g>
    </g>
</svg>