<?xml version="1.0" encoding="UTF-8"?>
<svg width="24px" height="24px" viewBox="0 0 24 24" version="1.1" xmlns="http://www.w3.org/2000/svg" xmlns:xlink="http://www.w3.org/1999/xlink">
    <title>时间</title>
    <g id="页面-1" stroke="none" stroke-width="1" fill="none" fill-rule="evenodd">
        <g id="日历2/新建日程" transform="translate(-717.000000, -268.000000)" fill-rule="nonzero">
            <g id="时间" transform="translate(717.000000, 268.000000)">
                <rect id="矩形" fill="#000000" opacity="0" x="0" y="0" width="24" height="24"></rect>
                <path d="M20.58,17.1392578 C20.3668159,17.4944459 19.9060592,17.609563 19.5508711,17.3963789 C19.195683,17.1831948 19.0805659,16.7224381 19.29375,16.36725 C20.08561,15.0483274 20.5026674,13.5383732 20.5000078,11.9999922 C20.5000078,7.30549219 16.6945078,3.49999219 11.9999922,3.49999219 C7.30549219,3.49999219 3.49999219,7.30549219 3.49999219,11.9999922 C3.49999219,16.6945078 7.30549219,20.5000078 11.9999922,20.5000078 C13.5381597,20.5027265 15.0479287,20.0858434 16.3667578,19.2942422 C16.7219459,19.0811293 17.1826449,19.1963041 17.3957578,19.5514922 C17.6088707,19.9066803 17.4936959,20.3673793 17.1385078,20.5804922 C15.5865576,21.5119759 13.8100287,22.002743 11.9999922,22.0000192 C6.47725781,22.0000192 1.99999219,17.5227422 1.99999219,11.9999922 C1.99999219,6.47725781 6.47725781,1.99999219 11.9999922,1.99999219 C17.5227422,1.99999219 22.0000078,6.47725781 22.0000078,11.9999922 C22.0000078,13.8349922 21.5042578,15.59925 20.58,17.1392578 Z M7.71975,15.21975 L11.25,11.6892422 L11.25,7.5 C11.25,7.08578644 11.5857864,6.75 12,6.75 C12.4142136,6.75 12.75,7.08578644 12.75,7.5 L12.75,12 C12.75,12.1988961 12.670912,12.3896305 12.53025,12.53025 L8.78025,16.28025 C8.59194415,16.4752174 8.31309158,16.5534094 8.05086951,16.4847729 C7.78864743,16.4161363 7.58386371,16.2113526 7.51522713,15.9491305 C7.44659055,15.6869084 7.52478256,15.4080559 7.71975,15.21975 L7.71975,15.21975 Z" id="形状" fill="#888888"></path>
            </g>
        </g>
    </g>
</svg>